<?xml version="1.0" encoding="utf-8"?><svg xmlns="http://www.w3.org/2000/svg" xmlns:xlink="http://www.w3.org/1999/xlink"><symbol fill="none" viewBox="0 0 56 56" id="fb" xmlns="http://www.w3.org/2000/svg"><path d="M0 19.2C0 12.48 0 9.12 1.308 6.552a12 12 0 015.244-5.244C9.12 0 12.48 0 19.2 0h17.6c6.72 0 10.08 0 12.648 1.308a12 12 0 015.244 5.244C56 9.12 56 12.48 56 19.2v17.6c0 6.72 0 10.08-1.308 12.648a12 12 0 01-5.244 5.244C46.88 56 43.52 56 36.8 56H19.2c-6.72 0-10.08 0-12.648-1.308a12 12 0 01-5.244-5.244C0 46.88 0 43.52 0 36.8V19.2z" fill="#fff"/><path d="M29.496 42.933V29.31h4.573l.685-5.31h-5.258v-3.39c0-1.537.427-2.584 2.632-2.584l2.811-.002v-4.748c-.486-.065-2.155-.21-4.097-.21-4.053 0-6.828 2.475-6.828 7.019V24h-4.585v5.31h4.584v13.623h5.483z" fill="#042951"/></symbol><symbol fill="none" viewBox="0 0 56 56" id="in" xmlns="http://www.w3.org/2000/svg"><path d="M0 19.2C0 12.48 0 9.12 1.308 6.552a12 12 0 015.244-5.244C9.12 0 12.48 0 19.2 0h17.6c6.72 0 10.08 0 12.648 1.308a12 12 0 015.244 5.244C56 9.12 56 12.48 56 19.2v17.6c0 6.72 0 10.08-1.308 12.648a12 12 0 01-5.244 5.244C46.88 56 43.52 56 36.8 56H19.2c-6.72 0-10.08 0-12.648-1.308a12 12 0 01-5.244-5.244C0 46.88 0 43.52 0 36.8V19.2z" fill="#fff"/><path d="M28 22.866A5.133 5.133 0 0022.868 28 5.133 5.133 0 1028 22.866z" fill="#042951"/><path fill-rule="evenodd" clip-rule="evenodd" d="M18.83 14.735c.89-.346 1.908-.582 3.399-.65 1.493-.07 1.97-.085 5.773-.085 3.802 0 4.279.017 5.771.085 1.49.066 2.508.304 3.399.65.92.357 1.7.836 2.479 1.615a6.885 6.885 0 011.614 2.48c.346.89.583 1.908.65 3.398.069 1.493.084 1.97.084 5.772 0 3.802-.016 4.278-.083 5.772-.067 1.49-.305 2.508-.65 3.398a6.858 6.858 0 01-1.615 2.48 6.883 6.883 0 01-2.48 1.615c-.89.346-1.908.582-3.399.65-1.492.07-1.97.085-5.772.085-3.802 0-4.278-.017-5.771-.085-1.49-.068-2.508-.304-3.399-.65a6.884 6.884 0 01-2.48-1.615 6.843 6.843 0 01-1.615-2.48c-.346-.89-.582-1.908-.65-3.398C14.016 32.279 14 31.802 14 28c0-3.802.016-4.28.085-5.772.068-1.49.304-2.508.65-3.398a6.84 6.84 0 011.615-2.48 6.865 6.865 0 012.48-1.615zM28 35.908a7.908 7.908 0 110-15.815 7.908 7.908 0 010 15.815zm6.684-15.102a1.848 1.848 0 113.075-2.053 1.848 1.848 0 01-3.075 2.053z" fill="#042951"/></symbol><symbol fill="none" viewBox="0 0 56 56" id="ok" xmlns="http://www.w3.org/2000/svg"><path d="M0 19.2C0 12.48 0 9.12 1.308 6.552a12 12 0 015.244-5.244C9.12 0 12.48 0 19.2 0h17.6c6.72 0 10.08 0 12.648 1.308a12 12 0 015.244 5.244C56 9.12 56 12.48 56 19.2v17.6c0 6.72 0 10.08-1.308 12.648a12 12 0 01-5.244 5.244C46.88 56 43.52 56 36.8 56H19.2c-6.72 0-10.08 0-12.648-1.308a12 12 0 01-5.244-5.244C0 46.88 0 43.52 0 36.8V19.2z" fill="#fff"/><path d="M28 17.584a3.195 3.195 0 013.19 3.192 3.195 3.195 0 01-3.19 3.19 3.195 3.195 0 01-3.192-3.19A3.195 3.195 0 0128 17.584zm0 10.897c4.25 0 7.707-3.456 7.707-7.705 0-4.252-3.456-7.71-7.708-7.71-4.25 0-7.708 3.458-7.708 7.71 0 4.249 3.457 7.705 7.708 7.705zm3.118 6.287a14.431 14.431 0 004.475-1.853 2.258 2.258 0 00-2.405-3.823 9.788 9.788 0 01-10.377 0 2.257 2.257 0 00-3.405 2.413c.133.584.492 1.09.999 1.41a14.444 14.444 0 004.475 1.853l-4.31 4.31a2.258 2.258 0 103.195 3.193l4.233-4.234 4.236 4.235a2.258 2.258 0 103.192-3.193l-4.308-4.31z" fill="#042951"/></symbol><symbol fill="none" viewBox="0 0 56 56" id="vk" xmlns="http://www.w3.org/2000/svg"><path d="M0 19.2C0 12.48 0 9.12 1.308 6.552a12 12 0 015.244-5.244C9.12 0 12.48 0 19.2 0h17.6c6.72 0 10.08 0 12.648 1.308a12 12 0 015.244 5.244C56 9.12 56 12.48 56 19.2v17.6c0 6.72 0 10.08-1.308 12.648a12 12 0 01-5.244 5.244C46.88 56 43.52 56 36.8 56H19.2c-6.72 0-10.08 0-12.648-1.308a12 12 0 01-5.244-5.244C0 46.88 0 43.52 0 36.8V19.2z" fill="#fff"/><path fill-rule="evenodd" clip-rule="evenodd" d="M42.248 21.032c.207-.692 0-1.2-.989-1.2h-3.267c-.83 0-1.214.439-1.421.924 0 0-1.662 4.05-4.016 6.68-.761.762-1.108 1.004-1.523 1.004-.208 0-.508-.242-.508-.934v-6.474c0-.83-.242-1.2-.934-1.2h-5.134c-.52 0-.832.385-.832.75 0 .788 1.177.97 1.298 3.185v4.812c0 1.055-.19 1.246-.606 1.246-1.107 0-3.801-4.069-5.4-8.723-.313-.905-.627-1.27-1.462-1.27h-3.268c-.933 0-1.12.439-1.12.924 0 .865 1.108 5.157 5.158 10.834 2.7 3.877 6.504 5.979 9.966 5.979 2.077 0 2.334-.467 2.334-1.271v-2.93c0-.934.196-1.12.854-1.12.485 0 1.315.242 3.254 2.111 2.215 2.215 2.58 3.21 3.827 3.21h3.267c.934 0 1.4-.467 1.131-1.388-.294-.918-1.352-2.25-2.756-3.83-.761-.9-1.904-1.869-2.25-2.353-.484-.623-.346-.9 0-1.454 0 0 3.981-5.608 4.397-7.512z" fill="#042951"/></symbol></svg>