<svg width="183" height="60" viewBox="0 0 183 60" fill="none" xmlns="http://www.w3.org/2000/svg">
<path d="M53.0393 23.4247V26.9164H45.4578V29.8304H49.1601V33.297H45.4578V36.2047H53.0393V39.6964H41.9702V23.3682L53.0393 23.4247Z" fill="white"/>
<path d="M58.5869 39.7215H55.0677V23.3933H58.5869V29.7236H60.2106L63.2748 23.3933H66.9772L63.0158 31.2623L67.2109 39.6901H63.3696L60.2106 33.2216H58.5932L58.5869 39.7215Z" fill="white"/>
<path d="M11.0123 23.4939V39.7907H7.49945V27.017H3.51284V39.8221H0V23.4939H11.0123Z" fill="white"/>
<path d="M26.5117 23.4939V34.9048H17.8813V39.7907H14.3685V23.4939H26.5117ZM17.8813 31.4131H22.9862V27.017H17.8813V31.4131Z" fill="white"/>
<path d="M39.8856 23.4939V39.7907H28.2162V23.4939H39.8856ZM31.7354 36.299H36.3728V27.017H31.7354V36.299Z" fill="white"/>
<path d="M79.797 23.4246V26.9163H75.7093V39.7214H72.2154V26.9163H68.1529V23.4246H79.797Z" fill="white"/>
<path d="M92.5144 23.249V39.5773H81.5021V23.249H92.5144ZM85.0213 36.0604H89.0016V26.7533H85.0213V36.0604Z" fill="white"/>
<path d="M106.421 23.249V34.66H97.7965V39.5773H94.2837V23.249H106.421ZM97.7965 31.1682H102.908V26.7721H97.7965V31.1682Z" fill="white"/>
<path d="M119.79 23.249V39.5773H116.277V29.8431L111.639 39.5773H108.127V23.249H111.639V32.9832L116.277 23.249H119.79Z" fill="white"/>
<path opacity="0.2" fill-rule="evenodd" clip-rule="evenodd" d="M168.95 21.1828C170.388 21.1841 171.795 20.761 172.992 19.9673C174.189 19.1735 175.122 18.0446 175.673 16.7235C176.224 15.4025 176.369 13.9486 176.088 12.5458C175.808 11.1431 175.115 9.85451 174.098 8.84322C173.081 7.83194 171.784 7.14337 170.373 6.86466C168.962 6.58595 167.499 6.72963 166.17 7.27751C164.841 7.82539 163.705 8.75284 162.907 9.94251C162.108 11.1322 161.683 12.5306 161.684 13.9607C161.684 15.8762 162.449 17.7131 163.812 19.0675C165.175 20.422 167.023 21.1828 168.95 21.1828Z" fill="white"/>
<path opacity="0.7" fill-rule="evenodd" clip-rule="evenodd" d="M136.659 53.2676C138.097 53.2688 139.504 52.8459 140.701 52.0524C141.897 51.2589 142.83 50.1304 143.382 48.8097C143.933 47.489 144.078 46.0354 143.798 44.6329C143.518 43.2303 142.826 41.9417 141.809 40.9302C140.793 39.9186 139.497 39.2296 138.086 38.9501C136.675 38.6707 135.213 38.8135 133.884 39.3604C132.554 39.9073 131.418 40.8338 130.619 42.0227C129.82 43.2115 129.393 44.6093 129.393 46.0392C129.393 47.9552 130.158 49.7928 131.521 51.1482C132.883 52.5036 134.731 53.2659 136.659 53.2676Z" fill="white"/>
<path opacity="0.4" fill-rule="evenodd" clip-rule="evenodd" d="M175.722 37.2221C177.16 37.2234 178.567 36.8004 179.764 36.0066C180.961 35.2128 181.894 34.0839 182.445 32.7629C182.996 31.4418 183.141 29.9879 182.861 28.5851C182.58 27.1824 181.887 25.8938 180.87 24.8825C179.853 23.8712 178.556 23.1827 177.145 22.904C175.734 22.6253 174.271 22.7689 172.942 23.3168C171.613 23.8647 170.478 24.7921 169.679 25.9818C168.88 27.1715 168.455 28.5699 168.456 30C168.456 31.9155 169.221 33.7524 170.584 35.1068C171.947 36.4612 173.795 37.2221 175.722 37.2221Z" fill="white"/>
<path opacity="0.8" fill-rule="evenodd" clip-rule="evenodd" d="M129.899 37.2221C131.338 37.2234 132.745 36.8004 133.941 36.0066C135.138 35.2128 136.071 34.0839 136.622 32.7629C137.174 31.4418 137.318 29.9879 137.038 28.5851C136.757 27.1824 136.065 25.8938 135.047 24.8825C134.03 23.8712 132.734 23.1827 131.322 22.904C129.911 22.6253 128.448 22.7689 127.119 23.3168C125.79 23.8647 124.655 24.7921 123.856 25.9818C123.058 27.1715 122.632 28.5699 122.633 30C122.633 31.9155 123.399 33.7524 124.761 35.1068C126.124 36.4612 127.972 37.2221 129.899 37.2221Z" fill="white"/>
<path opacity="0.5" fill-rule="evenodd" clip-rule="evenodd" d="M168.95 53.2676C170.388 53.2688 171.795 52.8459 172.991 52.0524C174.188 51.2589 175.121 50.1304 175.673 48.8097C176.224 47.489 176.369 46.0354 176.089 44.6329C175.809 43.2303 175.117 41.9417 174.1 40.9302C173.083 39.9186 171.788 39.2296 170.377 38.9501C168.966 38.6707 167.504 38.8135 166.174 39.3604C164.845 39.9073 163.709 40.8338 162.91 42.0227C162.111 43.2115 161.684 44.6093 161.684 46.0392C161.683 46.9881 161.87 47.9279 162.235 48.8049C162.6 49.6818 163.135 50.4787 163.81 51.15C164.484 51.8213 165.286 52.3539 166.168 52.7172C167.05 53.0805 167.995 53.2676 168.95 53.2676Z" fill="white"/>
<path opacity="0.8" fill-rule="evenodd" clip-rule="evenodd" d="M136.659 21.1828C138.098 21.1841 139.504 20.761 140.701 19.9673C141.898 19.1735 142.831 18.0446 143.382 16.7235C143.933 15.4025 144.078 13.9486 143.798 12.5458C143.517 11.1431 142.824 9.85451 141.807 8.84322C140.79 7.83194 139.493 7.14337 138.082 6.86466C136.671 6.58595 135.208 6.72963 133.879 7.27751C132.55 7.82539 131.415 8.75284 130.616 9.94251C129.817 11.1322 129.392 12.5306 129.393 13.9607C129.393 15.8762 130.159 17.7131 131.521 19.0675C132.884 20.422 134.732 21.1828 136.659 21.1828Z" fill="white"/>
<path opacity="0.6" fill-rule="evenodd" clip-rule="evenodd" d="M152.813 60C154.251 60 155.658 59.5759 156.854 58.7814C158.05 57.9868 158.982 56.8575 159.532 55.5363C160.082 54.2152 160.226 52.7614 159.945 51.3591C159.664 49.9568 158.97 48.6688 157.953 47.6581C156.935 46.6475 155.639 45.9595 154.228 45.6813C152.817 45.4031 151.354 45.5472 150.026 46.0953C148.697 46.6433 147.562 47.5708 146.763 48.7603C145.965 49.9498 145.54 51.348 145.541 52.7779C145.541 53.7268 145.729 54.6665 146.095 55.5431C146.46 56.4197 146.996 57.2162 147.671 57.8869C148.346 58.5576 149.148 59.0895 150.03 59.452C150.913 59.8146 151.858 60.0008 152.813 60Z" fill="white"/>
<path fill-rule="evenodd" clip-rule="evenodd" d="M152.813 14.4568C154.251 14.4568 155.657 14.0328 156.853 13.2386C158.049 12.4443 158.981 11.3154 159.531 9.99457C160.082 8.67376 160.226 7.22037 159.945 5.8182C159.665 4.41603 158.972 3.12806 157.955 2.11715C156.938 1.10624 155.642 0.417804 154.232 0.138895C152.821 -0.140014 151.359 0.00313117 150.03 0.550231C148.701 1.09733 147.565 2.02381 146.766 3.21251C145.967 4.40122 145.541 5.79876 145.541 7.22839C145.54 8.17787 145.728 9.11819 146.093 9.99555C146.458 10.8729 146.993 11.6701 147.669 12.3415C148.344 13.0129 149.146 13.5453 150.029 13.9082C150.912 14.2712 151.858 14.4576 152.813 14.4568Z" fill="white"/>
<path d="M159.707 40.3245H155.392V33.7492H153.352L150.098 40.3245H145.208L148.891 33.6048H146.187V20.3098H159.707V40.3245ZM150.502 24.6242V29.485H155.392V24.6242H150.502Z" fill="white"/>
</svg>
