<svg width="1355" height="140" viewBox="0 0 1355 140" fill="none" xmlns="http://www.w3.org/2000/svg">
<path d="M121.532 137H92.646V27.516H29.016V137H0.332V2.26599H121.532V137ZM180.808 137H152.124V2.26599H215.148C229.288 2.26599 240.331 6.44066 248.276 14.79C256.356 23.0047 260.396 33.3067 260.396 45.696C260.396 57.9507 256.356 68.2527 248.276 76.602C240.196 84.9513 229.153 89.126 215.148 89.126H180.808V137ZM211.31 63.876C217.101 63.876 221.814 62.26 225.45 59.028C229.221 55.6613 231.106 51.2173 231.106 45.696C231.106 40.1747 229.221 35.798 225.45 32.566C221.814 29.1993 217.101 27.516 211.31 27.516H180.808V63.876H211.31ZM346.049 139.424C325.714 139.424 308.881 132.893 295.549 119.83C282.351 106.633 275.753 89.934 275.753 69.734C275.753 49.534 282.351 32.9027 295.549 19.84C308.881 6.64266 325.714 0.0439934 346.049 0.0439934C366.518 0.0439934 383.351 6.57533 396.549 19.638C409.881 32.7007 416.547 49.3993 416.547 69.734C416.547 90.0687 409.881 106.767 396.549 119.83C383.351 132.893 366.518 139.424 346.049 139.424ZM316.355 101.448C323.896 109.797 333.794 113.972 346.049 113.972C358.303 113.972 368.201 109.797 375.743 101.448C383.284 93.0987 387.055 82.5273 387.055 69.734C387.055 56.9407 383.284 46.3693 375.743 38.02C368.201 29.6707 358.303 25.496 346.049 25.496C333.794 25.496 323.896 29.6707 316.355 38.02C308.948 46.3693 305.245 56.9407 305.245 69.734C305.245 82.5273 308.948 93.0987 316.355 101.448ZM536.06 137H440.716V2.26599H536.06V27.516H469.4V55.998H534.646V81.248H469.4V111.75H536.06V137ZM677.865 137H642.515L601.711 83.066L591.207 95.59V137H562.523V2.26599H591.207V62.462L638.879 2.26599H674.229L620.699 65.492L677.865 137ZM754.977 137H726.091V27.516H686.701V2.26599H794.165V27.516H754.977V137ZM875.494 139.424C855.159 139.424 838.326 132.893 824.994 119.83C811.797 106.633 805.198 89.934 805.198 69.734C805.198 49.534 811.797 32.9027 824.994 19.84C838.326 6.64266 855.159 0.0439934 875.494 0.0439934C895.963 0.0439934 912.797 6.57533 925.994 19.638C939.326 32.7007 945.992 49.3993 945.992 69.734C945.992 90.0687 939.326 106.767 925.994 119.83C912.797 132.893 895.963 139.424 875.494 139.424ZM845.8 101.448C853.341 109.797 863.239 113.972 875.494 113.972C887.749 113.972 897.647 109.797 905.188 101.448C912.729 93.0987 916.5 82.5273 916.5 69.734C916.5 56.9407 912.729 46.3693 905.188 38.02C897.647 29.6707 887.749 25.496 875.494 25.496C863.239 25.496 853.341 29.6707 845.8 38.02C838.393 46.3693 834.69 56.9407 834.69 69.734C834.69 82.5273 838.393 93.0987 845.8 101.448ZM998.845 137H970.161V2.26599H1033.18C1047.32 2.26599 1058.37 6.44066 1066.31 14.79C1074.39 23.0047 1078.43 33.3067 1078.43 45.696C1078.43 57.9507 1074.39 68.2527 1066.31 76.602C1058.23 84.9513 1047.19 89.126 1033.18 89.126H998.845V137ZM1029.35 63.876C1035.14 63.876 1039.85 62.26 1043.49 59.028C1047.26 55.6613 1049.14 51.2173 1049.14 45.696C1049.14 40.1747 1047.26 35.798 1043.49 32.566C1039.85 29.1993 1035.14 27.516 1029.35 27.516H998.845V63.876H1029.35ZM1127.93 137H1100.25V2.26599H1128.94V89.328L1191.36 2.26599H1220.85V137H1192.16V46.706L1127.93 137ZM1278.52 137H1245.6L1275.9 85.692C1267.68 83.8067 1260.68 79.43 1254.89 72.562C1249.23 65.694 1246.4 56.7387 1246.4 45.696C1246.4 32.9027 1250.44 22.466 1258.52 14.386C1266.74 6.30599 1277.78 2.26599 1291.65 2.26599H1354.68V137H1325.99V89.126H1305.19L1278.52 137ZM1295.89 63.876H1325.99V27.516H1295.89C1289.97 27.516 1285.12 29.1993 1281.35 32.566C1277.58 35.798 1275.69 40.1747 1275.69 45.696C1275.69 51.2173 1277.58 55.6613 1281.35 59.028C1285.12 62.26 1289.97 63.876 1295.89 63.876Z" fill="white"/>
</svg>
