<svg width="437" height="392" viewBox="0 0 437 392" fill="none" xmlns="http://www.w3.org/2000/svg">
<path fill-rule="evenodd" clip-rule="evenodd" d="M249.722 5.40999C245.596 8.44706 234.624 16.4354 225.341 23.1615C216.057 29.8881 202.807 39.5072 195.895 44.5383L183.329 53.6849L149.544 53.9527L115.76 54.2206L115.607 78.5964L115.453 102.972L112.392 105.172C107.726 108.523 54.0089 147.491 36.5885 160.16C28.1157 166.322 21.1829 171.507 21.1829 171.683C21.1829 171.857 22.8124 173.707 24.8036 175.791C44.9493 196.882 52.9967 205.321 76.3365 229.83C98.7526 253.368 103.401 258.004 104.049 257.466C105.256 256.465 106.853 258.194 105.844 259.41C105.219 260.162 105.704 260.86 109.641 264.887C112.122 267.425 114.454 269.839 114.822 270.252C115.343 270.834 115.492 278.446 115.492 304.443V337.885L70.6148 338.022L25.7376 338.159L25.5988 365.079L25.4601 392H112.54H199.62V381.553V371.106H248.918H298.216V307.149V243.191L299.421 242.868C300.084 242.691 302.043 242.542 303.773 242.538C351.752 242.426 397.432 199.638 404.873 147.84L405.508 143.42H408.662H411.815V135.116V126.812H408.677H405.539L405.192 122.65C402.149 86.1642 377.648 51.3239 343.763 35.2958C331.959 29.713 315.428 25.0328 307.483 25.0248L305.765 25.0232L305.607 21.1391L305.45 17.255H297.412H289.374L289.106 21.0052L288.838 24.7553L284.599 25.1394C273.573 26.1386 260.091 29.9937 249.217 35.2573C244.016 37.7747 244.066 37.8213 246.109 32.3873C247.022 29.9578 249.727 22.6659 252.121 16.1836C254.514 9.70121 256.822 3.48832 257.25 2.37774C258.614 -1.16667 258.71 -1.20524 249.722 5.40999ZM304.646 25.291V32.5234H297.412H290.178V25.291V18.0586H297.412H304.646V25.291ZM289.106 29.8448V33.5949H293.125H297.144V43.7738V53.9527H267.672C251.463 53.9527 238.201 53.8713 238.201 53.7716C238.201 53.4636 243.489 39.3787 243.663 39.2233C248.863 34.5822 275.755 26.3319 286.293 26.1444L289.106 26.0946V29.8448ZM315.096 27.1666C362.609 35.2873 400.095 75.6027 404.139 122.928L404.47 126.812H400.105C397.013 126.812 395.716 127.008 395.658 127.482C395.613 127.851 395.521 128.393 395.452 128.687C395.383 128.982 395.3 130.368 395.266 131.768L395.204 134.313H346.71H298.216V83.9537V33.5949H301.967H305.718V29.8448V26.0946H307.272C308.127 26.0946 311.648 26.5768 315.096 27.1666ZM297.144 68.4191V81.814L206.988 81.6785L116.832 81.5429L116.688 68.2836L116.545 55.0242H206.845H297.144V68.4191ZM126.745 64.0266C126.745 64.2634 127.591 65.277 128.624 66.2789L130.504 68.1003L128.245 70.4019C126.856 71.8173 126.298 72.7034 126.796 72.7034C127.241 72.7034 128.426 71.858 129.427 70.8251L131.248 68.9468L133.234 70.8862C134.326 71.9528 135.492 72.7344 135.825 72.6241C136.157 72.5132 135.453 71.4701 134.26 70.3059L132.091 68.1887L134.375 66.2146C135.631 65.1286 136.472 64.0507 136.246 63.8188C136.02 63.5873 134.885 64.324 133.726 65.4565L131.617 67.5153L129.447 65.5556C127.222 63.5461 126.745 63.2755 126.745 64.0266ZM297.144 108.419C297.144 128.538 296.997 134.292 296.474 134.536C295.938 134.786 295.938 134.911 296.474 135.161C297.007 135.409 297.144 159.453 297.144 252.754V370.035H206.854H116.564V226.496V82.9567L117.769 82.7859C118.432 82.6916 159.063 82.6144 208.059 82.6144H297.144V108.419ZM106.818 128.562C107.024 129.631 105.496 130.426 104.721 129.652C103.972 128.902 104.758 127.266 105.774 127.462C106.249 127.553 106.719 128.048 106.818 128.562ZM410.744 135.116V142.349H403.51H396.276V135.474C396.276 127.161 395.553 127.884 403.867 127.884H410.744V135.116ZM395.271 138.598C395.308 140.366 395.368 142.114 395.405 142.483C395.451 142.945 396.842 143.2 399.893 143.308C402.907 143.414 404.313 143.67 404.313 144.111C404.31 162.181 391.621 189.89 374.842 208.467C365.09 219.264 346.52 231.003 330.827 236.293C321.748 239.353 301.667 242.817 298.98 241.786C298.325 241.535 298.216 233.903 298.216 188.438V135.384H346.71H395.204L395.271 138.598ZM77.09 139.363C77.4399 140.275 76.1228 141.516 75.327 141.024C75.0195 140.834 74.7676 140.211 74.7676 139.638C74.7676 138.41 76.6388 138.189 77.09 139.363ZM144.428 199.938C144.428 247.789 144.566 260.214 145.097 260.227C145.869 260.248 268.805 260.244 269.416 260.223C269.638 260.216 269.759 233.148 269.684 200.074L269.548 139.938L206.988 139.802L144.428 139.666V199.938ZM267.137 141.189C267.137 141.435 266.366 142.322 265.424 143.161C263.609 144.778 235.915 171.473 223.733 183.349C212.996 193.816 207.59 198.868 207.126 198.868C206.635 198.868 201.496 194.019 182.741 175.861C175.078 168.443 163.986 157.734 158.092 152.064C152.197 146.393 147.294 141.526 147.196 141.248C147.085 140.932 169.589 140.741 207.077 140.741C240.11 140.741 267.137 140.943 267.137 141.189ZM163.718 158.892C184.653 179.136 194.806 188.977 200.959 194.985L206.318 200.218L202.567 203.839C200.504 205.83 188.586 217.339 176.082 229.415C163.578 241.49 151.582 253.021 149.423 255.039L145.499 258.709V200.213V141.718L147.241 143.18C148.199 143.984 155.613 151.055 163.718 158.892ZM268.744 200.208C268.744 232.041 268.537 258.067 268.284 258.067C267.826 258.067 261.604 252.135 231.771 223.252C223.077 214.835 214.215 206.287 212.078 204.258C209.942 202.228 208.193 200.396 208.193 200.186C208.193 199.975 214.523 193.694 222.259 186.227C229.996 178.761 242.828 166.376 250.775 158.706C258.722 151.035 265.715 144.222 266.315 143.564C268.829 140.806 268.744 138.828 268.744 200.208ZM102.531 147.312C102.744 148.419 101.198 149.165 100.381 148.349C99.5644 147.532 100.311 145.986 101.418 146.199C101.931 146.298 102.432 146.799 102.531 147.312ZM108.258 152.758C108.258 153.947 107.5 154.316 106.438 153.645C105.426 153.004 106.132 151.329 107.319 151.558C107.835 151.657 108.258 152.198 108.258 152.758ZM84.7686 156.581C85.2563 157.852 84.1133 158.748 83.0893 157.898C82.4549 157.372 82.4013 157.033 82.8642 156.474C83.6669 155.508 84.3716 155.547 84.7686 156.581ZM93.4215 167.134C93.6348 168.241 92.0883 168.987 91.2717 168.171C90.455 167.354 91.2015 165.808 92.3085 166.022C92.8219 166.12 93.3229 166.621 93.4215 167.134ZM58.9917 170.258C59.4643 171.022 57.9002 172.586 57.1361 172.113C56.813 171.914 56.5488 171.283 56.5488 170.711C56.5488 169.573 58.361 169.237 58.9917 170.258ZM115.492 171.661C115.492 173.001 115.424 173.047 114.625 172.248C114.148 171.771 113.921 171.117 114.121 170.794C114.778 169.73 115.492 170.182 115.492 171.661ZM95.6656 172.366C95.6656 173.639 94.2462 174.359 93.4017 173.515C92.98 173.093 93.0084 172.701 93.5035 172.104C94.4739 170.935 95.6656 171.079 95.6656 172.366ZM104.059 182.297C104.506 183.46 103.372 184.555 102.56 183.743C101.874 183.057 102.299 181.457 103.167 181.457C103.481 181.457 103.882 181.835 104.059 182.297ZM92.4505 190.029C92.4505 190.711 92.0931 191.1 91.4683 191.1C90.2037 191.1 89.7724 190.65 90.1336 189.708C90.5885 188.523 92.4505 188.781 92.4505 190.029ZM111.104 192.314C111.318 193.421 109.771 194.167 108.955 193.35C108.138 192.534 108.884 190.988 109.991 191.201C110.505 191.3 111.006 191.8 111.104 192.314ZM93.4279 195.566C93.6487 196.705 91.9613 197.399 91.3553 196.42C90.8339 195.576 91.7743 194.179 92.6649 194.475C92.9891 194.583 93.3325 195.074 93.4279 195.566ZM85.4845 198.122C85.4845 198.769 85.1078 199.136 84.4445 199.136C83.0936 199.136 82.547 198.217 83.3342 197.27C84.1439 196.294 85.4845 196.826 85.4845 198.122ZM217.616 211.021C223.191 216.38 234.142 226.938 241.952 234.483C249.762 242.029 258.623 250.581 261.644 253.487C264.665 256.394 267.137 258.975 267.137 259.223C267.137 259.471 240.13 259.674 207.122 259.674C174.114 259.674 147.107 259.475 147.107 259.231C147.107 258.987 149.464 256.516 152.344 253.74C172.329 234.475 190.441 216.969 197.863 209.742C202.643 205.088 206.763 201.279 207.017 201.279C207.272 201.279 212.041 205.663 217.616 211.021ZM113.349 205.046C113.349 206.272 111.941 207.051 111.152 206.261C110.382 205.492 111.17 203.958 112.334 203.958C112.997 203.958 113.349 204.336 113.349 205.046ZM107.354 208.921C107.56 209.991 106.032 210.786 105.257 210.012C104.508 209.262 105.294 207.626 106.31 207.822C106.785 207.913 107.255 208.408 107.354 208.921ZM98.6128 216.555C98.6128 217.25 98.1954 217.678 97.4071 217.79C96.2117 217.96 95.6587 216.465 96.5771 215.547C97.2882 214.836 98.6128 215.492 98.6128 216.555ZM22.357 222.722C1.19317 228.265 -7.05031 254.002 6.89028 271.011C15.3106 281.285 31.5253 284.733 43.2282 278.739L45.7156 277.465L53.9703 285.043C66.4716 296.52 65.9299 296.104 68.3824 296.104C72.8166 296.104 75.737 292.846 74.9836 288.739C74.6744 287.053 73.1145 285.211 65.3137 277.322C60.1985 272.149 56.013 267.712 56.013 267.463C56.013 267.213 56.6078 265.754 57.3344 264.218C67.9875 241.703 46.6292 216.364 22.357 222.722ZM36.3243 223.494C53.1033 227.049 63.1253 245.171 57.2792 261.386C46.3045 291.825 1.27836 284.217 1.17333 251.906C1.11278 233.097 17.8382 219.578 36.3243 223.494ZM88.0673 227.128C87.973 227.791 87.5342 228.334 87.0921 228.334C86.65 228.334 86.2111 227.791 86.1168 227.128C85.9855 226.2 86.2101 225.923 87.0921 225.923C87.9741 225.923 88.1986 226.2 88.0673 227.128ZM99.1803 228.014C98.6412 228.887 97.2871 228.725 96.9104 227.744C96.4533 226.553 97.8808 225.765 98.81 226.694C99.2135 227.098 99.3801 227.691 99.1803 228.014ZM25.8528 228.605C7.24716 231.864 0.121465 256.054 14.0245 268.757C29.3948 282.802 53.2903 272.346 53.3273 251.56C53.353 237.274 40.0094 226.125 25.8528 228.605ZM34.8074 229.942C55.5553 234.337 58.584 262.998 39.257 272.055C31.7182 275.589 22.2514 274.42 16.0024 269.186C-2.1382 253.992 11.7284 225.054 34.8074 229.942ZM99.8527 250.166C99.9508 250.683 99.6491 251.252 99.1813 251.432C98.0769 251.856 96.7137 250.716 97.1054 249.695C97.5154 248.627 99.6282 248.989 99.8527 250.166ZM46.9888 255.031C46.3527 256.455 45.8249 257.781 45.8169 257.977C45.8088 258.174 45.0753 259.296 44.1863 260.47C43.2539 261.702 42.8215 262.689 43.1633 262.803C44.3454 263.197 48.793 255.201 48.3777 253.429C48.211 252.718 47.8225 253.166 46.9888 255.031ZM74.0147 288.954C74.6604 292.397 71.1624 296.038 67.897 295.321C66.9426 295.112 62.711 291.645 56.6292 286.09L46.8907 277.196L51.05 273.018L55.2092 268.839L64.452 278.045C71.4914 285.057 73.7714 287.658 74.0147 288.954ZM318.578 275.21V280.568H320.659C323.379 280.568 323.156 275.793 322.977 330.257L322.821 377.535H320.699H318.578V382.625V387.714H323.636H328.694L328.861 385.705L329.027 383.696L377.655 383.56L426.283 383.422V385.569V387.714H431.642H437V382.655V377.597L434.723 377.432L432.445 377.267L432.309 328.917L432.171 280.568H434.586H437V275.21V269.853H431.642H426.283V272.266V274.68L377.655 274.543L329.027 274.407L328.862 272.13L328.697 269.853H323.638H318.578V275.21ZM426.283 278.157V280.568H428.697H431.112L430.974 328.917L430.838 377.267L428.56 377.432L426.283 377.597V379.977V382.357H377.521H328.759V379.977V377.597L326.482 377.432L324.204 377.267L324.068 328.917L323.93 280.568H326.345H328.759V278.157V275.746H377.521H426.283V278.157ZM178.799 282.799C170.439 284.707 167.889 297.551 174.685 303.517C177.545 306.027 177.392 306.015 207.658 306.015H235.79L237.835 304.744C244.912 300.345 244.893 288.108 237.802 283.941L235.254 282.443L208.193 282.355C191.838 282.301 180.21 282.477 178.799 282.799ZM369.483 296.4C328.899 307.699 336.834 366.869 378.932 366.871C409.075 366.873 425.409 331.349 405.991 308.024C397.698 298.064 381.749 292.985 369.483 296.4ZM387.927 320.7C389.249 322.16 388.836 324.548 387.094 325.52C384.138 327.172 381.439 323.227 383.766 320.656C384.915 319.387 386.756 319.406 387.927 320.7ZM371.718 321.098C373.685 322.878 372.261 326.105 369.507 326.105C367.642 326.105 366.804 325.193 366.804 323.158C366.804 320.305 369.563 319.148 371.718 321.098ZM367.157 333.471C372.702 342.411 384.511 342.754 389.443 334.118C391.561 330.41 394.026 331.76 392.081 335.562C386.53 346.412 371.36 346.732 365.728 336.117C363.899 332.672 365.185 330.292 367.157 333.471ZM148.982 335.836C142.257 339.545 141.331 348.111 147.195 352.358C155.833 358.614 166.522 348.353 160.721 339.375C158.459 335.873 152.287 334.013 148.982 335.836ZM186.493 336.056C180.415 339.224 179.228 346.559 184.017 351.348C192.736 360.065 205.998 347.232 197.576 338.227C194.824 335.283 189.846 334.309 186.493 336.056ZM224.805 335.813C218.037 338.503 216.958 348.621 223.021 352.539C232.288 358.528 242.853 346.918 235.781 338.515C233.302 335.569 228.433 334.37 224.805 335.813ZM261.77 336.205C254.136 340.265 255.567 351.713 263.991 353.982C274.376 356.778 280.418 341.95 271.114 336.499C268.387 334.902 264.454 334.778 261.77 336.205ZM157.314 337.491C164.521 342.347 161.327 353.121 152.68 353.121C144.284 353.121 141.221 341.671 148.502 337.498C151.311 335.888 154.931 335.885 157.314 337.491ZM194.593 337.153C197.194 338.387 198.699 340.758 198.972 344.049C199.756 353.498 187.126 356.84 182.981 348.281C179.462 341.013 187.167 333.63 194.593 337.153ZM232.305 337.087C238.045 340.054 238.475 348.505 233.057 351.853C225.403 356.582 216.614 348.017 221.255 340.352C223.473 336.689 228.604 335.173 232.305 337.087ZM270.36 337.276C277.282 340.954 275.459 351.844 267.702 353.155C261.897 354.135 256.499 348.384 257.999 342.818C259.499 337.249 265.362 334.62 270.36 337.276ZM35.3829 364.945V390.661L30.9621 390.816L26.5414 390.972V364.945V338.919L30.9621 339.075L35.3829 339.23V364.945ZM45.296 364.945V390.929H41.0093H36.7225V364.945V338.962H41.0093H45.296V364.945ZM54.9413 364.945V390.929H50.6545H46.3677V364.945V338.962H50.6545H54.9413V364.945ZM64.5865 364.945V390.929H60.2997H56.013V364.945V338.962H60.2997H64.5865V364.945ZM74.7676 364.945V390.929H70.2129H65.6582V364.945V338.962H70.2129H74.7676V364.945ZM115.618 354.901L115.76 370.839L132.505 370.98L149.25 371.121V381.025V390.929H112.545H75.8393V364.945V338.962H95.6576H115.476L115.618 354.901ZM159.699 381.017V390.661L155.011 390.815L150.322 390.97V381.017V371.065L155.011 371.219L159.699 371.374V381.017ZM169.077 381.017V390.929H164.79H160.503V381.017V371.106H164.79H169.077V381.017ZM178.722 381.017V390.929H174.435H170.148V381.017V371.106H174.435H178.722V381.017ZM188.781 381.151L188.927 390.929H184.361H179.794V380.996V371.063L184.214 371.219L188.635 371.374L188.781 381.151ZM198.548 381.017V390.929H194.261H189.975V381.017V371.106H194.261H198.548V381.017Z" fill="white"/>
</svg>
