<svg width="80" height="80" viewBox="0 0 80 80" fill="none" xmlns="http://www.w3.org/2000/svg">
<rect width="80" height="80" rx="40" fill="#FA4C63"/>
<path d="M52 37.3333C52 46.6666 40 54.6666 40 54.6666C40 54.6666 28 46.6666 28 37.3333C28 34.1507 29.2643 31.0984 31.5147 28.848C33.7652 26.5975 36.8174 25.3333 40 25.3333C43.1826 25.3333 46.2348 26.5975 48.4853 28.848C50.7357 31.0984 52 34.1507 52 37.3333Z" stroke="white" stroke-width="2" stroke-linecap="round" stroke-linejoin="round"/>
<path d="M40 41.3333C42.2091 41.3333 44 39.5424 44 37.3333C44 35.1241 42.2091 33.3333 40 33.3333C37.7909 33.3333 36 35.1241 36 37.3333C36 39.5424 37.7909 41.3333 40 41.3333Z" stroke="white" stroke-width="2" stroke-linecap="round" stroke-linejoin="round"/>
</svg>
