<svg width="256" height="66" viewBox="0 0 256 66" fill="none" xmlns="http://www.w3.org/2000/svg">
<path d="M173.44 7.44861H122.875V58.6749H173.44V7.44861Z" fill="#5995D0"/>
<path d="M224.005 7.44885H72.3109V58.6751H224.005V7.44885Z" fill="#5DA3D9"/>
<path fill-rule="evenodd" clip-rule="evenodd" d="M173.439 7.44861H255.669L245.842 58.686H173.439V7.44861Z" fill="#5DA3D9"/>
<path fill-rule="evenodd" clip-rule="evenodd" d="M12.4538 0.999878H83.0872L71.8846 65.135H1L12.4538 0.999878Z" fill="#5DA3D9" stroke="white" stroke-width="0.25" stroke-miterlimit="10"/>
<path d="M100.216 28.5096C98.9503 28.5484 97.7158 28.1065 96.7549 27.2707C96.3004 26.8528 95.9417 26.3392 95.704 25.7659C95.4663 25.1926 95.3555 24.5735 95.3792 23.9522C95.3611 23.1542 95.5006 22.3605 95.7893 21.6178C96.0781 20.8751 96.5103 20.1983 97.0607 19.6271C97.5913 19.0541 98.2349 18.6005 98.9496 18.2956C99.6644 17.9907 100.434 17.8414 101.21 17.8572C102.487 17.8078 103.736 18.2505 104.704 19.0961C105.162 19.512 105.523 20.025 105.763 20.5986C106.002 21.1722 106.114 21.7922 106.09 22.4146C106.106 23.2116 105.964 24.0036 105.673 24.7443C105.383 25.4851 104.949 26.1597 104.398 26.7287C103.864 27.3073 103.216 27.7651 102.495 28.072C101.774 28.3789 100.998 28.5281 100.216 28.5096ZM100.325 26.8946C100.845 26.8977 101.359 26.7866 101.832 26.5689C102.306 26.3512 102.726 26.0321 103.066 25.6336C103.815 24.776 104.206 23.6579 104.158 22.5142C104.173 22.1031 104.101 21.6936 103.949 21.3123C103.797 20.9311 103.566 20.5867 103.273 20.3019C102.678 19.7489 101.897 19.4481 101.09 19.4612C100.57 19.4565 100.055 19.567 99.5818 19.7848C99.1084 20.0026 98.6877 20.3225 98.3491 20.7222C97.6067 21.5878 97.2164 22.7067 97.2572 23.8526C97.2425 24.2637 97.3137 24.6733 97.4661 25.0545C97.6185 25.4358 97.8487 25.7801 98.1416 26.065C98.7377 26.6149 99.5194 26.9118 100.325 26.8946Z" fill="white"/>
<path d="M110.299 28.5101C109.824 28.5398 109.347 28.4728 108.897 28.3133C108.447 28.1537 108.033 27.9047 107.679 27.581C107.361 27.2653 107.112 26.8856 106.949 26.4664C106.785 26.0472 106.71 25.5978 106.729 25.1474C106.735 24.548 106.823 23.9524 106.991 23.3775C107.14 22.8547 107.337 22.3473 107.581 21.8621C108.036 20.9952 108.673 20.24 109.448 19.6498C110.268 19.102 111.21 18.7711 112.188 18.6874C113.28 18.5215 113.914 18.3003 113.979 18.0348H115.551C115.311 19.141 114.121 19.7825 111.97 20.0148C111.243 20.073 110.542 20.3124 109.928 20.7117C109.454 21.0378 109.076 21.4892 108.836 22.017C109.162 21.607 109.57 21.2718 110.033 21.0334C110.496 20.795 111.004 20.659 111.522 20.6343C111.932 20.613 112.341 20.6855 112.719 20.8464C113.097 21.0073 113.434 21.2523 113.706 21.5634C114.246 22.2577 114.521 23.1254 114.481 24.0081C114.493 25.1746 114.059 26.3004 113.269 27.1496C112.9 27.5789 112.443 27.9226 111.931 28.1574C111.418 28.3922 110.862 28.5125 110.299 28.5101ZM110.299 27.0721C110.645 27.0761 110.986 26.9969 111.296 26.8411C111.605 26.6854 111.874 26.4575 112.079 26.1761C112.549 25.5885 112.8 24.8525 112.789 24.0965C112.815 23.5569 112.631 23.0285 112.276 22.6254C112.09 22.4428 111.869 22.3014 111.627 22.21C111.384 22.1186 111.125 22.0792 110.867 22.0944C110.522 22.0905 110.18 22.1696 109.871 22.3254C109.561 22.4812 109.293 22.7091 109.087 22.9904C108.631 23.5792 108.392 24.3106 108.41 25.0589C108.397 25.3246 108.435 25.5904 108.523 25.841C108.611 26.0916 108.747 26.3221 108.924 26.519C109.109 26.7064 109.331 26.8524 109.576 26.9477C109.82 27.0429 110.082 27.0853 110.343 27.0721H110.299Z" fill="white"/>
<path d="M119.577 28.5101C119.097 28.5444 118.617 28.4475 118.186 28.2295C117.756 28.0116 117.392 27.6806 117.131 27.2712L116.268 31.198H114.663L116.923 20.8665H118.528L118.299 21.851C118.569 21.4811 118.919 21.1789 119.322 20.9679C119.725 20.7569 120.171 20.6427 120.625 20.6342C121.004 20.6191 121.383 20.6841 121.736 20.825C122.089 20.9659 122.41 21.1797 122.677 21.4528C123.22 22.0802 123.499 22.8984 123.453 23.7315C123.463 24.9299 123.079 26.0976 122.361 27.0499C122.049 27.5048 121.633 27.8756 121.148 28.1301C120.662 28.3846 120.123 28.515 119.577 28.5101ZM119.325 27.0721C119.666 27.0762 120.003 26.9968 120.307 26.8409C120.611 26.6849 120.874 26.4568 121.072 26.1761C121.536 25.5774 121.783 24.8354 121.771 24.0744C121.793 23.5453 121.609 23.0287 121.258 22.6364C121.09 22.4598 120.888 22.3205 120.665 22.2272C120.441 22.1339 120.2 22.0886 119.959 22.0943C119.57 22.1021 119.189 22.2071 118.85 22.4001C118.511 22.5931 118.224 22.8681 118.015 23.2005L117.382 26.0986C117.568 26.4078 117.837 26.6571 118.157 26.8177C118.519 27.0008 118.921 27.0883 119.325 27.0721Z" fill="white"/>
<path d="M128.291 20.6352C128.784 20.6296 129.27 20.7434 129.71 20.9671C130.128 21.1742 130.482 21.4913 130.737 21.8852L130.966 20.779H132.571L130.933 28.3783H129.328L129.536 27.3828C129.269 27.748 128.922 28.0452 128.522 28.2507C128.122 28.4561 127.68 28.5642 127.232 28.5664C126.852 28.5828 126.474 28.5185 126.12 28.3775C125.766 28.2365 125.446 28.022 125.179 27.7478C124.908 27.4411 124.699 27.0825 124.566 26.6932C124.433 26.3038 124.378 25.8914 124.404 25.4802C124.406 24.721 124.555 23.9695 124.841 23.2679C125.129 22.518 125.612 21.8608 126.238 21.3653C126.823 20.8967 127.546 20.6397 128.291 20.6352ZM128.531 22.0732C128.191 22.0745 127.856 22.1562 127.553 22.3117C127.25 22.4673 126.987 22.6924 126.784 22.9692C126.318 23.5708 126.071 24.3172 126.085 25.082C126.071 25.3417 126.109 25.6016 126.195 25.8466C126.281 26.0917 126.415 26.3168 126.588 26.5089C126.757 26.6894 126.963 26.8311 127.19 26.9246C127.418 27.0181 127.663 27.0612 127.909 27.0509C128.293 27.054 128.67 26.9508 129.001 26.7523C129.333 26.5589 129.622 26.2992 129.852 25.989L130.497 23.1019C130.309 22.7887 130.041 22.5326 129.721 22.3608C129.354 22.1701 128.944 22.0787 128.531 22.0953V22.0732Z" fill="white"/>
<path d="M137.273 20.6349C139.377 20.6349 140.429 21.2839 140.429 22.5818C140.431 22.8738 140.358 23.1613 140.216 23.4155C140.074 23.6698 139.869 23.882 139.621 24.0309C139.13 24.3774 138.558 24.5872 137.961 24.6393C138.393 24.6953 138.801 24.8714 139.141 25.1481C139.291 25.2677 139.412 25.4206 139.496 25.595C139.579 25.7695 139.622 25.9609 139.621 26.1547C139.606 26.5088 139.497 26.8523 139.305 27.1484C139.112 27.4445 138.844 27.6822 138.529 27.8361C137.765 28.3004 136.886 28.5345 135.996 28.5108C135.325 28.5236 134.658 28.4073 134.031 28.1679C133.515 27.9841 133.05 27.6767 132.677 27.2719L133.637 26.2764C133.955 26.5787 134.33 26.8137 134.738 26.9675C135.147 27.1214 135.582 27.191 136.018 27.1724C136.494 27.1847 136.964 27.0702 137.383 26.8405C137.541 26.7737 137.677 26.6639 137.777 26.5234C137.878 26.3828 137.937 26.217 137.95 26.0441C137.95 25.4799 137.459 25.1923 136.476 25.1923H134.697L134.97 23.9534H136.542C137.95 23.9534 138.649 23.5884 138.649 22.8473C138.649 22.2942 138.136 22.0177 137.121 22.0177C136.136 22.0243 135.178 22.3413 134.38 22.9247L133.725 21.8185C134.742 21.029 135.992 20.6118 137.273 20.6349Z" fill="white"/>
<path d="M144.594 28.5103C144.122 28.5364 143.649 28.4677 143.203 28.3083C142.757 28.1488 142.347 27.9017 141.995 27.5812C141.68 27.2646 141.433 26.8844 141.271 26.4653C141.109 26.0461 141.036 25.5972 141.056 25.1476C141.04 23.9824 141.471 22.8564 142.257 22.0061C142.629 21.5693 143.09 21.2202 143.609 20.9832C144.127 20.7463 144.691 20.6272 145.26 20.6345C145.733 20.6081 146.207 20.6777 146.653 20.8391C147.099 21.0006 147.509 21.2507 147.859 21.5747C148.17 21.8949 148.413 22.2756 148.575 22.6939C148.736 23.1122 148.812 23.5594 148.798 24.0083C148.808 25.1724 148.378 26.2965 147.597 27.1498C147.223 27.5834 146.762 27.9296 146.243 28.1646C145.725 28.3995 145.162 28.5175 144.594 28.5103ZM144.649 27.0723C144.994 27.0763 145.336 26.9971 145.645 26.8413C145.954 26.6856 146.223 26.4577 146.428 26.1763C146.898 25.5887 147.149 24.8527 147.138 24.0968C147.164 23.5571 146.98 23.0287 146.625 22.6256C146.437 22.4433 146.214 22.3021 145.97 22.2108C145.725 22.1194 145.465 22.0799 145.205 22.0946C144.86 22.0907 144.519 22.1699 144.209 22.3256C143.9 22.4814 143.631 22.7093 143.426 22.9906C142.963 23.5819 142.712 24.3154 142.716 25.0702C142.702 25.3358 142.74 25.6017 142.828 25.8523C142.916 26.1029 143.053 26.3334 143.229 26.5303C143.414 26.7174 143.637 26.8625 143.881 26.9559C144.126 27.0494 144.388 27.0891 144.649 27.0723Z" fill="white"/>
<path d="M154.374 28.377H149.536L151.152 20.8994H155.52C156.014 20.8687 156.501 21.0266 156.885 21.3419C157.05 21.4892 157.18 21.6717 157.267 21.8764C157.354 22.0811 157.395 22.3028 157.387 22.5254C157.401 23.0168 157.238 23.4965 156.928 23.875C156.618 24.2351 156.2 24.4835 155.738 24.5829C156.047 24.7004 156.313 24.9128 156.497 25.1905C156.681 25.4682 156.774 25.7972 156.765 26.1315C156.766 26.4253 156.71 26.7165 156.6 26.9881C156.489 27.2597 156.326 27.5062 156.12 27.7133C155.892 27.9424 155.618 28.12 155.317 28.2343C155.016 28.3487 154.694 28.3973 154.374 28.377ZM151.447 26.9501H154.101C154.372 26.9582 154.637 26.8636 154.843 26.6846C154.936 26.595 155.009 26.4867 155.058 26.3667C155.107 26.2466 155.13 26.1175 155.127 25.9877C155.131 25.8863 155.112 25.7853 155.07 25.693C155.028 25.6006 154.965 25.5197 154.887 25.4568C154.694 25.3162 154.458 25.2496 154.221 25.2687H151.808L151.447 26.9501ZM152.113 23.8418H154.723C154.845 23.8478 154.967 23.8283 155.082 23.7845C155.197 23.7408 155.301 23.6737 155.389 23.5874C155.473 23.5088 155.539 23.4127 155.582 23.3057C155.625 23.1987 155.645 23.0834 155.64 22.9679C155.64 22.5365 155.378 22.3263 154.832 22.3263H152.441L152.113 23.8418Z" fill="white"/>
<path d="M162.43 20.6352C162.926 20.6296 163.416 20.7433 163.86 20.9671C164.276 21.1716 164.628 21.4895 164.876 21.8852L165.105 20.779H166.71L165.072 28.3783H163.467L163.686 27.3828C163.417 27.7482 163.068 28.0454 162.666 28.2508C162.264 28.4562 161.821 28.5642 161.371 28.5664C160.991 28.5828 160.612 28.5185 160.259 28.3775C159.905 28.2365 159.585 28.022 159.318 27.7478C158.774 27.1257 158.495 26.3102 158.543 25.4802C158.549 24.7203 158.701 23.9688 158.991 23.2679C159.276 22.5589 159.743 21.9402 160.344 21.4759C160.92 20.9556 161.659 20.6579 162.43 20.6352ZM162.67 22.0732C162.33 22.0745 161.995 22.1562 161.692 22.3117C161.389 22.4673 161.125 22.6924 160.923 22.9692C160.461 23.573 160.214 24.3179 160.224 25.082C160.212 25.3424 160.252 25.6026 160.34 25.8476C160.428 26.0925 160.563 26.3173 160.738 26.5089C160.904 26.6897 161.108 26.8318 161.334 26.9253C161.56 27.0189 161.804 27.0618 162.048 27.0509C162.431 27.0502 162.808 26.9472 163.14 26.7523C163.471 26.5616 163.757 26.3014 163.98 25.989L164.625 23.1019C164.441 22.7891 164.177 22.5329 163.86 22.3608C163.492 22.172 163.083 22.0807 162.67 22.0953V22.0732Z" fill="white"/>
<path d="M170.109 28.3774H168.504L169.803 22.3267H167.729L168.046 20.8998H173.887L173.56 22.3267H171.441L170.109 28.3774Z" fill="white"/>
<path d="M177.556 28.5102C176.568 28.5652 175.595 28.2459 174.827 27.6142C174.492 27.3046 174.228 26.9241 174.054 26.4998C173.881 26.0754 173.801 25.6174 173.822 25.1585C173.802 23.9786 174.242 22.8382 175.045 21.9839C175.422 21.5568 175.885 21.2172 176.403 20.9881C176.922 20.7591 177.482 20.6459 178.048 20.6565C178.485 20.6271 178.924 20.6929 179.335 20.8493C179.745 21.0057 180.118 21.2491 180.428 21.5633C180.738 21.8775 180.979 22.2552 181.133 22.6711C181.287 23.087 181.352 23.5316 181.323 23.9749C181.325 24.3484 181.277 24.7205 181.181 25.0811H175.471C175.474 25.1216 175.474 25.1623 175.471 25.2028C175.471 25.2691 175.471 25.3134 175.471 25.3466C175.477 25.5863 175.534 25.8218 175.638 26.0374C175.741 26.253 175.889 26.4436 176.071 26.5965C176.533 26.9827 177.123 27.1765 177.72 27.1386C178.429 27.1664 179.127 26.9479 179.696 26.5191L180.199 27.6253C179.44 28.2102 178.51 28.5216 177.556 28.5102ZM175.624 23.9528H179.86C179.87 23.8794 179.87 23.805 179.86 23.7316C179.866 23.4967 179.824 23.2632 179.735 23.046C179.647 22.8288 179.515 22.6328 179.347 22.4706C179.154 22.294 178.928 22.1582 178.682 22.0708C178.437 21.9835 178.176 21.9464 177.917 21.9617C177.357 21.958 176.818 22.1718 176.41 22.5591C176.001 22.9213 175.724 23.4121 175.624 23.9528Z" fill="white"/>
<path d="M181.246 28.5103L181.541 27.1718C181.727 27.1558 181.907 27.0913 182.062 26.9848C182.216 26.8783 182.342 26.7332 182.425 26.5635C182.815 25.9118 183.124 25.2131 183.342 24.4839L184.587 20.8446H190.287L188.66 28.3776H187.066L188.354 22.3269H185.679L184.904 24.7272C184.617 25.8047 184.095 26.8029 183.375 27.6475C183.097 27.9312 182.765 28.1542 182.399 28.3026C182.033 28.451 181.64 28.5217 181.246 28.5103Z" fill="white"/>
<path d="M192.361 20.8448H193.933L193.344 23.5549H195.528C196.157 23.518 196.777 23.7235 197.264 24.1301C197.471 24.3167 197.635 24.5472 197.745 24.8053C197.854 25.0634 197.906 25.3427 197.897 25.6235C197.901 25.9772 197.835 26.3281 197.701 26.6551C197.568 26.982 197.371 27.2783 197.122 27.5261C196.854 27.7948 196.535 28.0044 196.183 28.1415C195.832 28.2786 195.456 28.3403 195.08 28.3225H190.712L192.361 20.8448ZM195.266 24.9819H193.082L192.667 26.8955H195.145C195.299 26.9024 195.452 26.8786 195.596 26.8254C195.74 26.7723 195.873 26.6909 195.986 26.5858C196.09 26.4848 196.173 26.3627 196.227 26.2273C196.282 26.092 196.307 25.9465 196.303 25.8004C196.31 25.6853 196.29 25.5701 196.244 25.4643C196.198 25.3586 196.129 25.2653 196.041 25.1921C195.813 25.0357 195.54 24.9616 195.266 24.9819Z" fill="white"/>
<path d="M200.608 28.3771H199.003L200.684 20.8994H202.289L201.645 23.7644H205.041L205.685 20.8994H207.29L205.608 28.3771H204.003L204.713 25.1913H201.328L200.608 28.3771Z" fill="white"/>
<path d="M209.285 20.845H210.89L210.311 23.5551H212.495C213.125 23.5182 213.745 23.7236 214.231 24.1303C214.438 24.3169 214.603 24.5474 214.712 24.8055C214.822 25.0635 214.874 25.3429 214.864 25.6236C214.869 25.9773 214.802 26.3282 214.669 26.6552C214.536 26.9822 214.338 27.2785 214.089 27.5262C213.821 27.7939 213.501 28.0028 213.15 28.1398C212.799 28.2768 212.424 28.3391 212.047 28.3226H207.68L209.285 20.845ZM212.189 24.982H210.006L209.602 26.8957H212.069C212.223 26.9071 212.377 26.8855 212.522 26.8321C212.667 26.7787 212.799 26.6948 212.91 26.586C213.018 26.4873 213.103 26.3659 213.16 26.2302C213.217 26.0945 213.243 25.9478 213.238 25.8006C213.245 25.6843 213.224 25.5679 213.176 25.4617C213.129 25.3556 213.056 25.263 212.965 25.1922C212.739 25.0316 212.464 24.9572 212.189 24.982ZM217.048 28.3005H215.443L217.07 20.8229H218.675L217.048 28.3005Z" fill="white"/>
<path d="M223.155 28.5108C222.167 28.568 221.193 28.2483 220.426 27.6148C220.09 27.3052 219.827 26.9247 219.653 26.5003C219.48 26.0759 219.4 25.618 219.421 25.1591C219.408 24.5743 219.509 23.9926 219.719 23.4477C219.929 22.9028 220.243 22.4054 220.644 21.9844C221.02 21.5568 221.483 21.2168 222.002 20.9877C222.52 20.7586 223.081 20.6458 223.647 20.657C224.078 20.6386 224.509 20.7095 224.913 20.8655C225.316 21.0215 225.684 21.2592 225.994 21.5641C226.3 21.8821 226.538 22.2601 226.693 22.6748C226.849 23.0896 226.92 23.5322 226.9 23.9755C226.902 24.349 226.854 24.7211 226.758 25.0817H221.048C221.045 25.1222 221.045 25.1628 221.048 25.2033C221.044 25.2512 221.044 25.2993 221.048 25.3471C221.051 25.5874 221.107 25.8239 221.211 26.0399C221.314 26.2559 221.464 26.4462 221.648 26.5971C222.11 26.9832 222.7 27.177 223.297 27.1391C224.006 27.167 224.704 26.9484 225.273 26.5197L225.776 27.6258C225.022 28.2046 224.101 28.5156 223.155 28.5108ZM221.234 23.9534H225.47C225.478 23.8799 225.478 23.8057 225.47 23.7322C225.478 23.498 225.438 23.2648 225.351 23.0475C225.265 22.8303 225.134 22.6339 224.968 22.4711C224.772 22.2943 224.545 22.1583 224.297 22.0709C224.05 21.9836 223.788 21.9467 223.526 21.9623C222.967 21.9586 222.428 22.1724 222.02 22.5596C221.61 22.9208 221.332 23.4121 221.234 23.9534Z" fill="white"/>
<path d="M97.7295 46.9055H96.1244L97.4237 40.8548H95.3164L95.6658 39.439H101.507L101.125 40.8548H98.9414L97.7295 46.9055Z" fill="white"/>
<path d="M105.185 47.094C104.197 47.149 103.224 46.8296 102.455 46.198C102.12 45.8884 101.856 45.5079 101.683 45.0835C101.509 44.6591 101.43 44.2012 101.451 43.7423C101.425 42.5548 101.865 41.4053 102.673 40.5455C103.05 40.1185 103.514 39.7789 104.032 39.5498C104.55 39.3207 105.111 39.2076 105.676 39.2181C106.114 39.1888 106.553 39.2545 106.963 39.4109C107.374 39.5673 107.747 39.8107 108.057 40.1249C108.367 40.4391 108.607 40.8169 108.761 41.2328C108.916 41.6487 108.981 42.0932 108.952 42.5366C108.954 42.9101 108.906 43.2821 108.81 43.6427H103.077C103.081 43.6832 103.081 43.7239 103.077 43.7644C103.077 43.8308 103.077 43.875 103.077 43.9082C103.084 44.1479 103.141 44.3834 103.244 44.599C103.348 44.8146 103.496 45.0053 103.678 45.1582C104.14 45.5443 104.729 45.7381 105.327 45.7002C106.036 45.7281 106.733 45.5095 107.303 45.0808L107.805 46.1869C107.055 46.7751 106.133 47.0942 105.185 47.094ZM103.241 42.5587H107.478C107.488 42.4853 107.488 42.4109 107.478 42.3375C107.484 42.1026 107.441 41.8691 107.353 41.6519C107.265 41.4347 107.132 41.2387 106.965 41.0765C106.583 40.7174 106.076 40.5265 105.556 40.5455C104.997 40.5418 104.458 40.7556 104.049 41.1428C103.628 41.5074 103.343 42.0071 103.241 42.5587Z" fill="white"/>
<path d="M116.147 46.9055H114.4L113.134 44.1512L110.612 46.9055H108.766L112.293 43.0672L110.502 39.439H112.249L113.44 41.9721L115.743 39.439H117.61L114.226 43.0672L116.147 46.9055Z" fill="white"/>
<path d="M118.867 46.9056H117.262L118.943 39.439H120.548L119.904 42.3039H123.3L123.944 39.439H125.549L123.867 46.9166H122.262L122.983 43.7309H119.587L118.867 46.9056Z" fill="white"/>
<path d="M129.751 47.0935C129.278 47.1202 128.805 47.0518 128.359 46.8923C127.913 46.7328 127.503 46.4854 127.152 46.1643C126.834 45.8487 126.585 45.469 126.422 45.0498C126.258 44.6306 126.183 44.1812 126.202 43.7308C126.179 42.5491 126.614 41.4052 127.414 40.545C127.785 40.1125 128.245 39.7676 128.762 39.5345C129.279 39.3013 129.84 39.1856 130.406 39.1955C130.879 39.1679 131.353 39.2369 131.799 39.3984C132.246 39.5599 132.655 39.8107 133.004 40.1358C133.321 40.4522 133.569 40.8321 133.732 41.2511C133.896 41.6701 133.972 42.1191 133.954 42.5693C133.989 43.7449 133.57 44.8879 132.786 45.7551C132.407 46.189 131.939 46.5336 131.415 46.7648C130.89 46.9961 130.322 47.1082 129.751 47.0935ZM129.751 45.6555C130.096 45.6594 130.437 45.5803 130.747 45.4245C131.056 45.2687 131.325 45.0408 131.53 44.7595C132.004 44.1742 132.256 43.4367 132.24 42.6799C132.255 42.4125 132.218 42.1445 132.13 41.8919C132.042 41.6393 131.905 41.407 131.727 41.2087C131.541 41.0262 131.32 40.8847 131.078 40.7933C130.835 40.7019 130.577 40.6626 130.318 40.6778C129.973 40.6738 129.631 40.753 129.322 40.9088C129.013 41.0645 128.744 41.2924 128.539 41.5738C128.068 42.161 127.817 42.8972 127.829 43.6534C127.812 43.9192 127.849 44.1858 127.938 44.4367C128.026 44.6877 128.163 44.9179 128.342 45.1135C128.532 45.3032 128.76 45.4496 129.01 45.5431C129.261 45.6365 129.528 45.6749 129.794 45.6555H129.751Z" fill="white"/>
<path d="M133.879 47.0936L134.163 45.7551C134.352 45.7409 134.533 45.6773 134.69 45.5707C134.847 45.4641 134.974 45.318 135.059 45.1468C135.442 44.4914 135.75 43.7936 135.976 43.0672L137.21 39.439H142.909L141.293 46.9166H139.688L140.988 40.8659H138.312L137.526 43.2663C137.258 44.334 136.758 45.3278 136.063 46.1755C135.783 46.4745 135.443 46.7107 135.067 46.8689C134.691 47.027 134.287 47.1036 133.879 47.0936Z" fill="white"/>
<path d="M147.191 47.0938C146.719 47.1204 146.246 47.052 145.8 46.8926C145.354 46.7331 144.943 46.4857 144.592 46.1646C144.275 45.849 144.026 45.4693 143.862 45.05C143.698 44.6308 143.624 44.1815 143.642 43.7311C143.619 42.5493 144.054 41.4055 144.854 40.5453C145.226 40.1134 145.686 39.7689 146.203 39.5358C146.72 39.3027 147.28 39.1867 147.846 39.1958C148.319 39.1669 148.794 39.2353 149.24 39.3968C149.687 39.5584 150.097 39.8099 150.445 40.136C150.761 40.4525 151.009 40.8323 151.173 41.2514C151.336 41.6704 151.412 42.1193 151.395 42.5696C151.405 43.7337 150.975 44.8578 150.194 45.7111C149.821 46.1476 149.36 46.4972 148.842 46.7359C148.324 46.9746 147.76 47.0967 147.191 47.0938ZM147.191 45.6558C147.538 45.6615 147.882 45.5831 148.193 45.4273C148.505 45.2715 148.775 45.0426 148.982 44.7598C149.451 44.1721 149.702 43.4362 149.691 42.6802C149.718 42.1406 149.533 41.6121 149.178 41.209C148.99 41.0273 148.767 40.8864 148.522 40.7951C148.278 40.7038 148.018 40.664 147.759 40.678C147.413 40.6741 147.072 40.7533 146.762 40.909C146.453 41.0648 146.184 41.2927 145.979 41.574C145.516 42.1653 145.265 42.8988 145.269 43.6536C145.255 43.9193 145.293 44.1851 145.382 44.4357C145.47 44.6863 145.606 44.9168 145.782 45.1138C145.973 45.3034 146.2 45.4499 146.451 45.5434C146.701 45.6368 146.968 45.6751 147.235 45.6558H147.191Z" fill="white"/>
<path d="M159.344 39.439L158.994 40.8548H155.009L153.699 46.9055H152.094L153.753 39.439H159.344Z" fill="white"/>
<path d="M160.591 46.9056H158.996L160.667 39.439H162.272L161.18 44.472L165.657 39.439H167.262L165.646 46.9166H164.041L165.133 41.7398L160.591 46.9056Z" fill="white"/>
<path d="M169.268 46.9055H167.729L169.345 39.439H171.005L169.913 44.472L174.346 39.439H175.951L174.28 46.9055H172.675L173.767 41.7287L169.268 46.9055Z" fill="white"/>
<path d="M42.0437 36.1209L59.6338 30.6675V43.0344C59.6326 44.0191 59.2981 44.9736 58.6861 45.7386C58.074 46.5035 57.2215 47.0327 56.2708 47.2378C47.3171 49.2953 38.0247 49.318 29.0613 47.3041C28.1285 47.0861 27.2965 46.5537 26.7014 45.7941C26.1063 45.0345 25.7834 44.0926 25.7857 43.1229V31.0657L42.0437 36.1209Z" fill="white"/>
<path d="M63.4456 42.6913C64.0603 43.0244 64.7466 43.1987 65.4437 43.1987C66.1408 43.1987 66.8272 43.0244 67.4419 42.6913C67.6042 42.5972 67.7328 42.4533 67.8093 42.2804C67.8859 42.1074 67.9063 41.9144 67.8677 41.729L65.3891 29.2847L62.9106 41.6515C62.8639 41.861 62.892 42.0804 62.9899 42.2708C63.0879 42.4612 63.2494 42.6102 63.4456 42.6913Z" fill="white"/>
<path d="M65.7474 27.2271L69.8965 25.944L42.0428 17.3491L14.189 25.944L42.0428 34.5499L64.3607 27.6585L42.0428 24.6719L65.7474 27.2271Z" fill="white"/>
<path d="M64.3626 27.658L64.9741 27.7354L65.0505 31.3857H65.7493V27.2266L64.3626 27.658Z" fill="white"/>
</svg>
