<svg width="256" height="66" viewBox="0 0 256 66" fill="none" xmlns="http://www.w3.org/2000/svg">
<path fill-rule="evenodd" clip-rule="evenodd" d="M72.171 7.30469H255.529L245.702 58.531H72.171V7.30469Z" fill="#56BBC5"/>
<path fill-rule="evenodd" clip-rule="evenodd" d="M12.3138 0.844238H82.9471L71.7444 64.9794H0.860046L12.3138 0.844238Z" fill="#56BBC5" stroke="white" stroke-width="0.5" stroke-miterlimit="10"/>
<path d="M103.562 28.1663H101.782L102.754 23.6642H97.4478L96.476 28.1663H94.6853L96.9346 17.8347H98.7252L97.8081 22.0713H103.104L104.021 17.8347H105.812L103.562 28.1663Z" fill="white"/>
<path d="M109.852 20.5008C110.348 20.4965 110.838 20.6101 111.283 20.8327C111.698 21.044 112.048 21.3651 112.298 21.7619L112.527 20.6557H114.089L112.451 28.1334H110.846L111.064 27.1489C110.795 27.513 110.445 27.8084 110.044 28.012C109.642 28.2155 109.199 28.3214 108.75 28.3214C108.371 28.3373 107.993 28.2737 107.64 28.1348C107.287 27.9958 106.966 27.7845 106.697 27.5139C106.152 26.8878 105.873 26.0687 105.922 25.2352C105.921 24.4568 106.073 23.6861 106.369 22.9676C106.655 22.2618 107.123 21.6467 107.723 21.1867C108.332 20.7123 109.085 20.4696 109.852 20.5008ZM110.093 21.9388C109.751 21.936 109.413 22.017 109.109 22.175C108.805 22.3329 108.543 22.5631 108.346 22.8459C107.882 23.4446 107.635 24.1866 107.647 24.9476C107.624 25.4714 107.805 25.9833 108.149 26.3746C108.318 26.5551 108.524 26.6968 108.752 26.7903C108.98 26.8838 109.225 26.9268 109.47 26.9166C109.854 26.9197 110.232 26.8164 110.562 26.6179C110.898 26.4347 111.189 26.1777 111.414 25.8658L112.058 22.9676C111.87 22.6544 111.602 22.3983 111.283 22.2265C110.913 22.0434 110.503 21.9596 110.093 21.9831V21.9388Z" fill="white"/>
<path d="M113.637 31.0318L114.172 29.6049C114.403 29.7025 114.653 29.7477 114.904 29.7376C115.108 29.7295 115.306 29.6682 115.48 29.5597C115.654 29.4512 115.798 29.2992 115.897 29.1182L116.476 28.2111L115.133 20.6892H116.803L117.721 26.2974L121.116 20.6892H122.885L117.426 29.5385C117.128 30.0502 116.726 30.4915 116.247 30.8327C115.812 31.1076 115.307 31.2461 114.794 31.2309C114.4 31.2329 114.008 31.1655 113.637 31.0318Z" fill="white"/>
<path d="M129.166 28.1665H127.189L125.563 25.036L124.252 26.1422L123.827 28.1554H122.221L123.848 20.6777H125.453L124.678 24.1953L128.642 20.6777H130.705L126.884 24.0737L129.166 28.1665Z" fill="white"/>
<path d="M134.385 20.5014C134.88 20.497 135.37 20.6106 135.815 20.8332C136.23 21.0446 136.581 21.3656 136.83 21.7624L137.06 20.6562H138.665L137.027 28.1339H135.422L135.64 27.1494C135.371 27.5135 135.021 27.8089 134.62 28.0124C134.218 28.216 133.775 28.3219 133.326 28.3219C132.947 28.3378 132.569 28.2742 132.216 28.1353C131.863 27.9963 131.542 27.785 131.273 27.5144C130.732 26.9101 130.443 26.1175 130.465 25.3021C130.464 24.5237 130.617 23.7529 130.912 23.0345C131.198 22.3287 131.666 21.7136 132.266 21.2535C132.863 20.7579 133.613 20.4915 134.385 20.5014ZM134.625 21.9394C134.283 21.9365 133.946 22.0175 133.641 22.1755C133.337 22.3334 133.075 22.5636 132.878 22.8464C132.414 23.4451 132.167 24.1871 132.179 24.9481C132.139 25.4786 132.308 26.0035 132.649 26.4083C132.818 26.5888 133.023 26.7305 133.251 26.824C133.479 26.9175 133.724 26.9605 133.97 26.9503C134.354 26.9534 134.731 26.8501 135.062 26.6516C135.397 26.4684 135.688 26.2114 135.913 25.8994L136.557 23.0013C136.37 22.688 136.102 22.432 135.782 22.2602C135.425 22.0712 135.027 21.9761 134.625 21.9836V21.9394Z" fill="white"/>
<path d="M96.1796 46.7508H94.64L96.256 39.2732H97.861L96.7692 44.3062L101.268 39.2732H102.873L101.257 46.7508H99.6408L100.733 41.5851L96.1796 46.7508Z" fill="white"/>
<path d="M110.198 46.7505H108.626L109.925 40.6998H107.785L108.102 39.2728H113.943L113.626 40.6998H111.443L110.198 46.7505Z" fill="white"/>
<path d="M117.658 46.9382C116.67 46.9933 115.697 46.6739 114.929 46.0422C114.595 45.7343 114.333 45.3554 114.161 44.9327C113.99 44.5101 113.912 44.0541 113.935 43.5976C113.913 42.4161 114.348 41.2727 115.147 40.4119C115.524 39.9848 115.987 39.6452 116.505 39.4161C117.023 39.1871 117.584 39.0739 118.15 39.0844C118.587 39.0551 119.026 39.1208 119.437 39.2772C119.847 39.4336 120.22 39.6771 120.53 39.9913C120.84 40.3055 121.081 40.6832 121.235 41.0991C121.389 41.515 121.454 41.9596 121.425 42.4029C121.426 42.7757 121.382 43.1471 121.294 43.5091H115.573C115.576 43.5496 115.576 43.5903 115.573 43.6308V43.7746C115.576 44.0137 115.631 44.2492 115.733 44.4649C115.834 44.6807 115.981 44.8715 116.162 45.0245C116.624 45.4127 117.212 45.6102 117.811 45.5776C118.52 45.6003 119.215 45.3822 119.787 44.9582L120.29 46.0643C119.532 46.643 118.607 46.9504 117.658 46.9382ZM115.715 42.4029H119.951C119.961 42.3295 119.961 42.2551 119.951 42.1817C119.956 41.9471 119.913 41.7139 119.825 41.4969C119.736 41.2799 119.605 41.0837 119.438 40.9207C119.245 40.7451 119.018 40.6106 118.773 40.5251C118.527 40.4396 118.267 40.4048 118.008 40.4229C117.45 40.4162 116.911 40.626 116.501 41.0092C116.092 41.3714 115.815 41.8622 115.715 42.4029Z" fill="white"/>
<path d="M128.619 46.7508H126.872L125.562 43.9965L123.039 46.7508H121.194L124.721 42.9125L122.974 39.2732H124.721L125.911 41.8173L128.226 39.2732H130.082L126.719 42.9125L128.619 46.7508Z" fill="white"/>
<path d="M131.339 46.7503H129.734L131.416 39.2727H133.021L132.377 42.1377H135.772L136.417 39.2727H138.022L136.34 46.7503H134.735L135.456 43.5646H132.06L131.339 46.7503Z" fill="white"/>
<path d="M142.227 46.938C141.754 46.9647 141.282 46.8963 140.836 46.7368C140.39 46.5773 139.979 46.3299 139.628 46.0089C139.31 45.6932 139.062 45.3135 138.898 44.8943C138.734 44.4751 138.659 44.0257 138.678 43.5753C138.666 42.4088 139.1 41.2829 139.89 40.4338C140.261 40.0013 140.721 39.6564 141.238 39.4233C141.755 39.1901 142.316 39.0744 142.882 39.0843C143.355 39.0567 143.829 39.1256 144.275 39.2872C144.722 39.4487 145.132 39.6994 145.48 40.0246C145.797 40.341 146.045 40.7209 146.209 41.1399C146.372 41.5589 146.448 42.0079 146.43 42.4581C146.443 43.6248 146.009 44.7511 145.218 45.5996C144.847 46.0307 144.386 46.3739 143.869 46.6051C143.352 46.8364 142.792 46.95 142.227 46.938ZM142.227 45.5C142.572 45.504 142.914 45.4248 143.223 45.269C143.532 45.1133 143.801 44.8854 144.006 44.6041C144.482 44.0197 144.734 43.2815 144.716 42.5245C144.733 42.2586 144.695 41.9921 144.607 41.7411C144.519 41.4901 144.382 41.2599 144.203 41.0643C144.018 40.8804 143.797 40.7373 143.555 40.644C143.312 40.5507 143.053 40.5093 142.794 40.5223C142.448 40.5197 142.106 40.6006 141.796 40.7583C141.487 40.916 141.219 41.146 141.015 41.4294C140.543 42.0113 140.291 42.7448 140.305 43.4979C140.289 43.7638 140.326 44.0303 140.414 44.2813C140.502 44.5322 140.64 44.7625 140.818 44.958C141.007 45.1501 141.234 45.2982 141.485 45.3918C141.736 45.4854 142.004 45.5224 142.27 45.5H142.227Z" fill="white"/>
<path d="M146.352 46.9384L146.647 45.611C146.834 45.5938 147.014 45.5278 147.169 45.4192C147.324 45.3107 147.449 45.1633 147.531 44.9915C147.917 44.3375 148.225 43.6394 148.448 42.912L149.682 39.2727H155.382L153.766 46.7504H152.161L153.46 40.6997H150.785L150.01 43.1C149.719 44.1757 149.197 45.1729 148.481 46.0203C148.208 46.3135 147.877 46.5464 147.511 46.7044C147.145 46.8623 146.75 46.942 146.352 46.9384Z" fill="white"/>
<path d="M159.663 46.9381C159.191 46.9641 158.719 46.8954 158.273 46.736C157.827 46.5765 157.416 46.3295 157.065 46.0089C156.749 45.6923 156.502 45.3122 156.341 44.893C156.179 44.4738 156.106 44.0249 156.126 43.5753C156.11 42.4102 156.54 41.2841 157.327 40.4339C157.699 40.0019 158.159 39.6574 158.676 39.4243C159.192 39.1913 159.753 39.0752 160.319 39.0843C160.792 39.0554 161.266 39.1238 161.713 39.2854C162.159 39.447 162.569 39.6984 162.917 40.0246C163.234 40.341 163.482 40.7209 163.645 41.1399C163.809 41.5589 163.885 42.0079 163.867 42.4581C163.88 43.6227 163.45 44.7475 162.666 45.5996C162.292 46.031 161.83 46.3743 161.311 46.6055C160.792 46.8367 160.23 46.9502 159.663 46.9381ZM159.663 45.5001C160.009 45.504 160.35 45.4248 160.66 45.2691C160.969 45.1133 161.238 44.8854 161.443 44.6041C161.914 44.0174 162.166 43.2808 162.153 42.5245C162.167 42.2589 162.129 41.993 162.041 41.7424C161.953 41.4918 161.816 41.2613 161.64 41.0644C161.453 40.8801 161.23 40.7369 160.986 40.6436C160.742 40.5504 160.481 40.5091 160.22 40.5224C159.874 40.5197 159.532 40.6006 159.222 40.7583C158.913 40.916 158.645 41.146 158.441 41.4294C157.973 42.0137 157.722 42.7456 157.731 43.4979C157.717 43.7636 157.755 44.0294 157.843 44.28C157.931 44.5307 158.068 44.7611 158.244 44.958C158.435 45.1525 158.667 45.3019 158.921 45.3956C159.176 45.4893 159.448 45.525 159.718 45.5001H159.663Z" fill="white"/>
<path d="M171.814 39.2732L171.498 40.7001H167.512L166.213 46.7508H164.608L166.224 39.2732H171.814Z" fill="white"/>
<path d="M173.048 46.7503H171.497L173.124 39.2727H174.729L173.637 44.3057L178.136 39.2727H179.741L178.114 46.7503H176.509L177.601 41.5846L173.048 46.7503Z" fill="white"/>
<path d="M181.782 46.7505H180.242L181.858 39.2728H183.463L182.372 44.3058L186.87 39.2728H188.475L186.848 46.7505H185.243L186.335 41.5847L181.782 46.7505Z" fill="white"/>
<path d="M43.8055 8.11206L50.2366 21.3196L64.6275 23.4324L54.2111 33.7197L56.6678 48.2325L43.8055 41.3743L30.9323 48.2325L33.389 33.7197L22.9835 23.4324L37.3635 21.3196L43.8055 8.11206Z" fill="white"/>
</svg>
