<svg width="277" height="66" viewBox="0 0 277 66" fill="none" xmlns="http://www.w3.org/2000/svg">
<path fill-rule="evenodd" clip-rule="evenodd" d="M72.2232 7.30432H276.139L265.204 58.5307H72.2232V7.30432Z" fill="#6C2265"/>
<path fill-rule="evenodd" clip-rule="evenodd" d="M12.1668 0.84375H82.7651L71.568 64.9789H0.71875L12.1668 0.84375Z" fill="#6C2265" stroke="white" stroke-width="0.5" stroke-miterlimit="10"/>
<path d="M100.74 37.469H98.9497L100.849 28.7414H95.5448L93.6458 37.469H91.8561L94.1042 27.1375H102.988L100.74 37.469Z" fill="white"/>
<path d="M107.131 37.6463C106.648 37.6713 106.167 37.5656 105.737 37.3402C105.308 37.1147 104.945 36.7775 104.686 36.3632L103.835 40.279H102.231L104.49 29.9475H106.094L105.865 30.943C106.138 30.5798 106.49 30.2844 106.893 30.0794C107.295 29.8743 107.739 29.7649 108.19 29.7594C108.569 29.745 108.947 29.8103 109.3 29.9511C109.653 30.092 109.974 30.3054 110.241 30.5779C110.782 31.2065 111.06 32.0239 111.016 32.8566C111.027 34.055 110.643 35.2228 109.925 36.1751C109.614 36.6336 109.196 37.0075 108.709 37.264C108.222 37.5206 107.68 37.6519 107.131 37.6463ZM106.891 36.2083C107.231 36.207 107.565 36.1253 107.869 35.9698C108.172 35.8142 108.435 35.5891 108.637 35.3123C109.105 34.7202 109.352 33.9801 109.336 33.2217C109.358 32.6892 109.174 32.1689 108.823 31.7726C108.654 31.5947 108.45 31.4545 108.224 31.3612C107.999 31.2678 107.756 31.2233 107.513 31.2306C107.127 31.242 106.749 31.3487 106.412 31.5415C106.076 31.7342 105.79 32.0072 105.581 32.3367L104.948 35.2349C105.137 35.5448 105.405 35.7971 105.723 35.965C106.088 36.1395 106.488 36.223 106.891 36.2083Z" fill="white"/>
<path d="M115.712 37.6457C114.725 37.7029 113.751 37.3832 112.984 36.7497C112.65 36.4423 112.386 36.0637 112.212 35.6411C112.039 35.2186 111.96 34.7623 111.98 34.3051C111.957 33.1214 112.397 31.9764 113.202 31.1193C113.579 30.6917 114.042 30.3517 114.56 30.1226C115.078 29.8934 115.638 29.7806 116.204 29.7919C116.641 29.7644 117.078 29.8314 117.488 29.9884C117.897 30.1454 118.269 30.389 118.579 30.7028C118.889 31.0166 119.129 31.3936 119.284 31.8086C119.439 32.2237 119.505 32.6674 119.478 33.1104C119.48 33.4839 119.432 33.8561 119.336 34.2166H113.628C113.625 34.2571 113.625 34.2977 113.628 34.3382C113.624 34.3861 113.624 34.4342 113.628 34.482C113.631 34.7222 113.687 34.9588 113.791 35.1748C113.894 35.3908 114.044 35.581 114.228 35.732C114.689 36.1211 115.278 36.3188 115.876 36.2851C116.584 36.3077 117.28 36.0897 117.851 35.6656L118.354 36.7718C117.593 37.3512 116.664 37.6586 115.712 37.6457ZM113.77 33.1104H118.004C118.013 33.0369 118.013 32.9626 118.004 32.8891C118.011 32.6552 117.97 32.4223 117.884 32.2053C117.797 31.9882 117.667 31.7917 117.502 31.6281C117.306 31.4533 117.078 31.3193 116.831 31.2339C116.584 31.1484 116.322 31.1133 116.062 31.1304C115.508 31.1265 114.974 31.336 114.567 31.7166C114.151 32.0743 113.869 32.5667 113.77 33.1104Z" fill="white"/>
<path d="M119.043 39.3607L119.73 36.1086C120.095 36.0168 120.416 35.7974 120.636 35.4891C121.007 34.9108 121.294 34.2812 121.487 33.6197L122.72 29.9805H128.428L127.108 36.0312H127.915L127.206 39.3497H125.601L126.005 37.4471H121.04L120.636 39.3497L119.043 39.3607ZM123.823 31.4074L123.048 33.8078C122.809 34.6832 122.301 35.4584 121.596 36.0201H125.536L126.529 31.3964L123.823 31.4074Z" fill="white"/>
<path d="M135.529 37.4686H133.924L135.278 31.4179H131.884L130.53 37.4686H128.926L130.607 29.991H137.209L135.529 37.4686Z" fill="white"/>
<path d="M141.904 37.6457C141.424 37.6765 140.944 37.5769 140.514 37.3571C140.084 37.1374 139.72 36.8056 139.459 36.3957L138.597 40.3116H136.993L139.252 29.98H140.813L140.583 30.9755C140.857 30.6123 141.208 30.317 141.611 30.1119C142.014 29.9068 142.457 29.7974 142.908 29.7919C143.287 29.7768 143.665 29.8418 144.019 29.9827C144.372 30.1236 144.692 30.3374 144.96 30.6105C145.5 31.2391 145.778 32.0564 145.734 32.8892C145.745 34.0876 145.361 35.2553 144.643 36.2077C144.334 36.6523 143.923 37.015 143.446 37.2653C142.97 37.5155 142.441 37.646 141.904 37.6457ZM141.653 36.2077C141.994 36.2118 142.33 36.1324 142.634 35.9765C142.938 35.8205 143.201 35.5924 143.399 35.3117C143.867 34.7195 144.114 33.9794 144.097 33.221C144.111 32.9571 144.073 32.693 143.985 32.4442C143.897 32.1954 143.761 31.9669 143.585 31.772C143.417 31.5954 143.215 31.4561 142.991 31.3628C142.768 31.2695 142.528 31.2242 142.286 31.2299C141.898 31.2415 141.519 31.3482 141.18 31.5408C140.842 31.7335 140.555 32.0063 140.343 32.3361L139.721 35.2564C139.91 35.5663 140.177 35.8186 140.496 35.9865C140.849 36.1466 141.234 36.2223 141.62 36.2077H141.653Z" fill="white"/>
<path d="M147.961 37.4684H146.423L148.038 29.9907H149.642L148.551 35.0238L153.047 29.9907H154.651L153.025 37.4684H151.421L152.512 32.3026L147.961 37.4684Z" fill="white"/>
<path d="M156.7 37.4684H155.096L156.777 29.9907H158.381L157.737 32.8557H161.131L161.775 29.9907H163.379L161.699 37.4684H160.095L160.815 34.2826H157.421L156.7 37.4684Z" fill="white"/>
<path d="M165.301 37.4686H163.729L165.345 29.991H167.003L165.912 35.024L170.408 29.991H172.013L170.365 37.4686H168.76L169.852 32.3028L165.301 37.4686Z" fill="white"/>
<path d="M180.701 37.4686H179.097L180.188 32.2697L176.914 37.4686H176.27L175.179 32.2697L174.088 37.4686H172.462L174.077 29.991H176.096L177.089 34.8249L180.166 29.991H182.349L180.701 37.4686Z" fill="white"/>
<path d="M186.93 29.7918C187.426 29.7849 187.916 29.8987 188.36 30.1236C188.779 30.3287 189.131 30.6511 189.375 31.0528L189.604 29.9467H191.208L189.582 37.4685H187.978L188.185 36.484C187.918 36.8479 187.571 37.1434 187.171 37.347C186.771 37.5506 186.33 37.6566 185.882 37.6566C185.503 37.6759 185.125 37.6139 184.771 37.4747C184.418 37.3356 184.097 37.1224 183.831 36.8491C183.559 36.5403 183.35 36.1799 183.217 35.7887C183.084 35.3975 183.029 34.9833 183.056 34.5704C183.052 33.7927 183.2 33.0219 183.492 32.3028C183.788 31.6032 184.254 30.9907 184.846 30.5219C185.439 30.0463 186.174 29.7889 186.93 29.7918ZM187.181 31.2298C186.84 31.2324 186.505 31.3157 186.202 31.4732C185.898 31.6308 185.636 31.858 185.435 32.1368C184.971 32.7355 184.725 33.4775 184.736 34.2385C184.71 34.7662 184.89 35.2831 185.238 35.6766C185.409 35.8539 185.615 35.9928 185.843 36.0843C186.07 36.1758 186.314 36.2177 186.559 36.2075C186.943 36.2106 187.32 36.1073 187.65 35.9088C187.984 35.723 188.274 35.4664 188.501 35.1567L189.145 32.2585C188.954 31.948 188.687 31.6927 188.371 31.5174C188.005 31.3191 187.595 31.22 187.181 31.2298Z" fill="white"/>
<path d="M194.604 37.4686H192.999L194.298 31.4179H192.192L192.519 29.991H198.347L198.03 31.4179H195.902L194.604 37.4686Z" fill="white"/>
<path d="M202.07 37.6456C201.082 37.7028 200.108 37.3832 199.341 36.7496C199.005 36.4437 198.74 36.0654 198.566 35.6425C198.393 35.2195 198.314 34.7626 198.337 34.305C198.315 33.1235 198.75 31.9801 199.549 31.1193C199.925 30.6922 200.388 30.3526 200.906 30.1235C201.424 29.8945 201.985 29.7813 202.55 29.7918C202.987 29.7625 203.426 29.8282 203.836 29.9846C204.246 30.141 204.619 30.3845 204.929 30.6987C205.239 31.0129 205.479 31.3906 205.634 31.8065C205.788 32.2224 205.853 32.667 205.824 33.1103C205.825 33.4831 205.781 33.8545 205.693 34.2165H199.974V34.3382C199.97 34.386 199.97 34.4341 199.974 34.482C199.978 34.7211 200.032 34.9565 200.134 35.1723C200.236 35.388 200.382 35.5789 200.564 35.7319C201.028 36.1218 201.62 36.3193 202.222 36.285C202.927 36.3095 203.62 36.0911 204.187 35.6656L204.689 36.7717C203.935 37.3488 203.014 37.6562 202.07 37.6456ZM200.127 33.1103H204.35C204.361 33.037 204.361 32.9624 204.35 32.8891C204.357 32.6551 204.316 32.4223 204.23 32.2052C204.144 31.9882 204.014 31.7917 203.848 31.6281C203.652 31.4532 203.424 31.3192 203.177 31.2338C202.93 31.1484 202.669 31.1132 202.408 31.1303C201.85 31.1236 201.312 31.3334 200.902 31.7166C200.496 32.0794 200.223 32.5705 200.127 33.1103Z" fill="white"/>
<path d="M205.746 37.6462L206.03 36.3188C206.22 36.3034 206.402 36.2382 206.559 36.1296C206.716 36.0209 206.842 35.8726 206.925 35.6993C207.31 35.0452 207.618 34.3472 207.842 33.6197L209.075 29.9805H214.772L213.156 37.4692H211.552L212.851 31.4185H210.177L209.391 33.8189C209.108 34.8953 208.59 35.8934 207.874 36.7391C207.601 37.0314 207.271 37.2629 206.904 37.4191C206.538 37.5752 206.144 37.6525 205.746 37.6462Z" fill="white"/>
<path d="M216.857 29.9807H218.461L217.861 32.6908H220.044C220.673 32.6538 221.293 32.8593 221.779 33.266C221.988 33.4533 222.154 33.6855 222.263 33.9457C222.373 34.206 222.424 34.4877 222.412 34.7703C222.417 35.1215 222.352 35.47 222.22 35.795C222.089 36.1201 221.894 36.4149 221.648 36.6619C221.38 36.929 221.06 37.1375 220.709 37.2745C220.358 37.4115 219.983 37.474 219.607 37.4583H215.242L216.857 29.9807ZM219.76 34.1177H217.577L217.163 36.0314H219.64C219.793 36.0388 219.947 36.0153 220.091 35.9621C220.235 35.9089 220.368 35.8272 220.48 35.7217C220.586 35.622 220.67 35.5001 220.724 35.3644C220.779 35.2288 220.804 35.0826 220.797 34.9363C220.801 34.8214 220.78 34.707 220.735 34.6017C220.689 34.4963 220.621 34.4028 220.535 34.3279C220.304 34.1807 220.031 34.1182 219.76 34.1509V34.1177Z" fill="white"/>
<path d="M227.3 37.6465C226.363 37.6891 225.447 37.3597 224.746 36.7284C224.42 36.413 224.165 36.0307 223.998 35.6071C223.83 35.1836 223.754 34.7285 223.775 34.2727C223.764 33.6889 223.868 33.1089 224.079 32.566C224.291 32.023 224.606 31.5278 225.008 31.109C225.387 30.6863 225.851 30.3503 226.368 30.1234C226.886 29.8964 227.445 29.7837 228.009 29.7927C228.576 29.7436 229.145 29.8514 229.657 30.1047C230.168 30.3579 230.602 30.7471 230.912 31.2307L229.7 32.1599C229.534 31.8614 229.288 31.6161 228.991 31.4519C228.694 31.2877 228.358 31.2111 228.02 31.2307C227.659 31.222 227.302 31.2973 226.974 31.4507C226.647 31.6041 226.359 31.8316 226.132 32.1157C225.65 32.7013 225.394 33.4441 225.412 34.2063C225.394 34.4786 225.436 34.7515 225.534 35.0056C225.632 35.2598 225.784 35.4891 225.979 35.6775C226.384 36.0406 226.912 36.2308 227.452 36.2085C227.775 36.2124 228.094 36.1417 228.385 36.0018C228.676 35.8619 228.932 35.6564 229.133 35.401L230.028 36.5071C229.678 36.881 229.254 37.1757 228.784 37.3721C228.314 37.5684 227.808 37.6619 227.3 37.6465Z" fill="white"/>
<path d="M234.023 37.4684H232.419L233.717 31.4177H231.611L231.938 29.9907H237.766L237.45 31.4177H235.322L234.023 37.4684Z" fill="white"/>
<path d="M242.305 37.4688H237.459L239.085 29.9912H243.45C243.945 29.9636 244.432 30.1255 244.815 30.4447C244.978 30.5908 245.108 30.7716 245.195 30.9743C245.281 31.1769 245.323 31.3964 245.317 31.6172C245.333 32.1089 245.169 32.5893 244.858 32.9668C244.545 33.3289 244.123 33.5775 243.658 33.6747C243.968 33.7908 244.234 34.0029 244.418 34.2809C244.602 34.5589 244.695 34.8887 244.684 35.2233C244.685 35.5171 244.629 35.8083 244.519 36.0799C244.408 36.3515 244.245 36.598 244.04 36.8051C243.813 37.0339 243.542 37.2114 243.242 37.3258C242.943 37.4402 242.624 37.489 242.305 37.4688ZM239.369 36.0419H242.032C242.303 36.05 242.568 35.9554 242.774 35.7764C242.866 35.6889 242.939 35.5825 242.988 35.4643C243.037 35.3461 243.061 35.2187 243.058 35.0906C243.061 34.9877 243.041 34.8853 243 34.7913C242.958 34.6974 242.896 34.6143 242.817 34.5486C242.621 34.4144 242.388 34.3485 242.152 34.3605H239.74L239.369 36.0419ZM240.045 32.9336H242.654C242.775 32.9404 242.897 32.9224 243.011 32.8805C243.125 32.8387 243.23 32.774 243.319 32.6902C243.403 32.6112 243.468 32.515 243.511 32.4081C243.555 32.3012 243.575 32.1862 243.57 32.0708C243.57 31.6283 243.309 31.4181 242.763 31.4181H240.362L240.045 32.9336Z" fill="white"/>
<path d="M250.021 37.6459C249.549 37.6726 249.076 37.6042 248.63 37.4447C248.185 37.2852 247.774 37.0378 247.423 36.7168C247.106 36.4011 246.857 36.0214 246.694 35.6022C246.53 35.183 246.455 34.7336 246.474 34.2832C246.462 33.1167 246.896 31.9908 247.685 31.1417C248.057 30.7098 248.517 30.3653 249.033 30.1322C249.55 29.8991 250.11 29.7831 250.676 29.7922C251.149 29.7645 251.622 29.8335 252.068 29.995C252.515 30.1566 252.924 30.4073 253.273 30.7324C253.589 31.0489 253.837 31.4287 254.001 31.8478C254.164 32.2668 254.24 32.7157 254.222 33.166C254.236 34.3327 253.801 35.459 253.011 36.3075C252.639 36.7386 252.179 37.0818 251.662 37.3131C251.146 37.5443 250.585 37.6579 250.021 37.6459ZM250.021 36.2079C250.366 36.2118 250.707 36.1327 251.017 35.9769C251.326 35.8212 251.594 35.5933 251.8 35.3119C252.275 34.7276 252.527 33.9894 252.509 33.2324C252.525 32.9665 252.488 32.7 252.4 32.449C252.312 32.198 252.175 31.9678 251.996 31.7722C251.811 31.5883 251.59 31.4451 251.348 31.3519C251.106 31.2586 250.847 31.2171 250.588 31.2302C250.242 31.2275 249.9 31.3084 249.591 31.4661C249.281 31.6238 249.014 31.8539 248.809 32.1373C248.342 32.7215 248.091 33.4534 248.1 34.2058C248.085 34.4732 248.122 34.7412 248.21 34.9938C248.298 35.2464 248.435 35.4787 248.613 35.677C248.804 35.8653 249.032 36.0101 249.282 36.1016C249.532 36.1932 249.799 36.2294 250.064 36.2079H250.021Z" fill="white"/>
<path d="M34.1677 50.2122L37.5618 44.3053C37.5885 44.2443 37.6024 44.1784 37.6024 44.1117C37.6024 44.045 37.5885 43.979 37.5618 43.9181L34.1568 37.9448C34.1196 37.8873 34.0696 37.8393 34.0109 37.8047C33.9521 37.7702 33.8863 37.75 33.8185 37.7457H27.0413C26.9752 37.7508 26.9112 37.7714 26.8543 37.806C26.7975 37.8406 26.7494 37.8881 26.7139 37.9448L23.3308 43.8517C23.2983 43.9109 23.2812 43.9776 23.2812 44.0453C23.2812 44.1131 23.2983 44.1797 23.3308 44.2389L26.7357 50.2122C26.7699 50.2702 26.8176 50.3187 26.8748 50.3534C26.9319 50.3882 26.9966 50.4081 27.0631 50.4113H33.8403C33.9069 50.4081 33.9716 50.3882 34.0287 50.3534C34.0858 50.3187 34.1336 50.2702 34.1677 50.2122Z" fill="white"/>
<path d="M33.3062 32.5905L37.9771 24.4381C38.0201 24.3564 38.0425 24.2652 38.0425 24.1726C38.0425 24.08 38.0201 23.9888 37.9771 23.9071L33.2844 15.6663C33.2324 15.5901 33.1642 15.5267 33.0849 15.4808C33.0056 15.4348 32.9171 15.4075 32.826 15.4008H23.4842C23.3925 15.405 23.3031 15.4313 23.2234 15.4774C23.1437 15.5236 23.076 15.5883 23.0258 15.6663L18.355 23.8076C18.3169 23.8908 18.2971 23.9814 18.2971 24.0731C18.2971 24.1648 18.3169 24.2554 18.355 24.3385L23.0586 32.5794C23.107 32.6565 23.1728 32.7208 23.2507 32.767C23.3285 32.8132 23.416 32.8399 23.506 32.8449H32.8478C32.9384 32.8411 33.0268 32.8161 33.1063 32.772C33.1858 32.7279 33.2542 32.6658 33.3062 32.5905Z" fill="white"/>
<path d="M58.3384 46.3845L64.9519 34.8472C65.0112 34.731 65.0421 34.602 65.0421 34.4711C65.0421 34.3403 65.0112 34.2113 64.9519 34.095L58.2948 22.425C58.2257 22.314 58.1309 22.2218 58.0187 22.1562C57.9065 22.0907 57.7802 22.0539 57.6508 22.049H44.4239C44.2945 22.0539 44.1682 22.0907 44.056 22.1562C43.9439 22.2218 43.8491 22.314 43.78 22.425L37.1338 33.9955C37.0745 34.1117 37.0435 34.2407 37.0435 34.3716C37.0435 34.5025 37.0745 34.6314 37.1338 34.7477L43.7909 46.4287C43.8614 46.5385 43.9564 46.6297 44.0683 46.6951C44.1802 46.7605 44.3058 46.7981 44.4348 46.8048H57.6618C57.7993 46.7939 57.9323 46.7501 58.0499 46.6771C58.1675 46.604 58.2664 46.5037 58.3384 46.3845Z" fill="white"/>
</svg>
