<svg width="255" height="66" viewBox="0 0 255 66" fill="none" xmlns="http://www.w3.org/2000/svg">
<path fill-rule="evenodd" clip-rule="evenodd" d="M68.8203 7.30518H255L245.022 58.5315H68.8203V7.30518Z" fill="#E31019"/>
<path fill-rule="evenodd" clip-rule="evenodd" d="M11.9604 0.844238H83.6762L72.3019 64.9794H0.331177L11.9604 0.844238Z" fill="#E31019" stroke="white" stroke-width="0.5" stroke-miterlimit="10"/>
<path d="M92.9217 28.1682H91.1036L93.3874 17.8361H100.438L100.083 19.4401H94.8951L92.9217 28.1682Z" fill="white"/>
<path d="M102.964 28.3548C102.476 28.3856 101.989 28.286 101.553 28.0663C101.116 27.8465 100.746 27.5147 100.481 27.1048L99.6052 31.0208H97.9866L100.281 20.6887H101.911L101.678 21.6843C101.954 21.3192 102.311 21.0225 102.72 20.8172C103.13 20.6119 103.581 20.5036 104.04 20.5006C104.423 20.4857 104.806 20.5508 105.163 20.6918C105.52 20.8327 105.843 21.0464 106.113 21.3192C106.67 21.9437 106.957 22.763 106.911 23.598C106.922 24.7965 106.532 25.9643 105.802 26.9167C105.481 27.367 105.054 27.733 104.56 27.9834C104.066 28.2338 103.519 28.3612 102.964 28.3548ZM102.709 26.9167C103.056 26.9172 103.399 26.8363 103.709 26.6807C104.019 26.5251 104.288 26.299 104.494 26.0207C104.963 25.425 105.213 24.6872 105.204 23.9299C105.227 23.3974 105.04 22.8771 104.683 22.4808C104.509 22.305 104.302 22.1662 104.073 22.073C103.845 21.9798 103.599 21.9341 103.352 21.9387C102.959 21.9521 102.574 22.0595 102.231 22.252C101.887 22.4445 101.595 22.7164 101.379 23.0449L100.747 25.9432C100.934 26.2527 101.202 26.5052 101.523 26.6733C101.894 26.8467 102.3 26.9301 102.709 26.9167Z" fill="white"/>
<path d="M111.812 20.5006C112.316 20.4949 112.814 20.6087 113.265 20.8324C113.686 21.0438 114.042 21.3648 114.296 21.7616L114.528 20.6554H116.158L114.495 28.1335H112.866L113.087 27.149C112.814 27.5131 112.459 27.8085 112.051 28.0121C111.643 28.2156 111.193 28.3216 110.737 28.3216C110.352 28.338 109.967 28.2737 109.608 28.1327C109.249 27.9917 108.924 27.7771 108.653 27.5029C108.112 26.8959 107.829 26.1021 107.866 25.2905C107.865 24.512 108.02 23.7412 108.32 23.0228C108.61 22.3169 109.085 21.7018 109.695 21.2417C110.293 20.7574 111.042 20.4954 111.812 20.5006ZM112.056 21.9386C111.709 21.9358 111.367 22.0168 111.058 22.1748C110.749 22.3327 110.483 22.563 110.283 22.8458C109.811 23.4444 109.561 24.1865 109.573 24.9476C109.561 25.208 109.601 25.4683 109.69 25.7132C109.78 25.9582 109.917 26.183 110.094 26.3746C110.263 26.556 110.469 26.6985 110.699 26.7921C110.929 26.8857 111.176 26.9282 111.424 26.9166C111.814 26.916 112.196 26.813 112.533 26.618C112.868 26.4314 113.16 26.1748 113.387 25.8658L114.041 22.9675C113.85 22.6542 113.578 22.3981 113.254 22.2263C112.882 22.0451 112.47 21.9613 112.056 21.9829V21.9386Z" fill="white"/>
<path d="M117.798 28.1672H115.647L119.727 24.0852L117.354 20.6891H119.283L121.39 23.7533L122.077 20.6891H123.718L123.097 23.4878L126.29 20.6891H128.418L124.549 24.0852L126.833 28.1672H124.826L123.175 25.0255L122.576 25.5233L121.999 28.1672H120.392L120.968 25.5343L120.691 25.1472L117.798 28.1672Z" fill="white"/>
<path d="M126.766 30.0698L127.465 26.8176C127.836 26.7285 128.163 26.5085 128.385 26.1981C128.767 25.6223 129.058 24.9919 129.25 24.3286L130.514 20.6891H136.3L134.97 26.7401H135.79L135.059 30.0588H133.429L133.85 28.1561H128.806L128.385 30.0588L126.766 30.0698ZM131.633 22.1161L130.835 24.5166C130.593 25.3921 130.076 26.1674 129.361 26.7291H133.34L134.349 22.105L131.633 22.1161Z" fill="white"/>
<path d="M141.036 20.5013C141.539 20.4957 142.037 20.6094 142.488 20.8332C142.914 21.0382 143.272 21.3607 143.519 21.7624L143.752 20.6562H145.382L143.719 28.1342H142.089L142.311 27.1497C142.037 27.5138 141.682 27.8093 141.274 28.0128C140.866 28.2163 140.417 28.3223 139.961 28.3223C139.575 28.3388 139.19 28.2744 138.832 28.1334C138.473 27.9924 138.147 27.7779 137.876 27.5037C137.335 26.8966 137.053 26.1028 137.089 25.2912C137.089 24.5128 137.243 23.742 137.544 23.0235C137.834 22.3177 138.309 21.7026 138.918 21.2424C139.517 20.7581 140.265 20.4961 141.036 20.5013ZM141.28 21.9394C140.934 21.9419 140.593 22.0253 140.285 22.1828C139.977 22.3404 139.71 22.5676 139.506 22.8465C139.035 23.4452 138.784 24.1872 138.796 24.9483C138.784 25.2087 138.824 25.469 138.914 25.714C139.003 25.9589 139.14 26.1837 139.318 26.3753C139.487 26.5561 139.694 26.6982 139.923 26.7918C140.153 26.8854 140.4 26.9282 140.648 26.9174C141.037 26.9167 141.42 26.8137 141.756 26.6187C142.092 26.4321 142.383 26.1755 142.61 25.8665L143.264 22.9682C143.075 22.6577 142.807 22.4022 142.488 22.227C142.112 22.0458 141.697 21.9621 141.28 21.9836V21.9394Z" fill="white"/>
<path d="M147.463 28.1674H145.889L147.596 20.6893H149.215L148.561 23.5545H152.009L152.651 20.6893H154.281L152.541 28.1674H150.911L151.643 24.9815H148.195L147.463 28.1674Z" fill="white"/>
<path d="M158.508 28.3555C157.556 28.3981 156.626 28.0687 155.914 27.4374C155.585 27.1207 155.327 26.7382 155.157 26.3149C154.987 25.8916 154.909 25.4372 154.927 24.9816C154.915 24.396 155.019 23.8138 155.234 23.2688C155.449 22.7238 155.771 22.2268 156.18 21.8067C156.568 21.3876 157.039 21.0548 157.565 20.8299C158.09 20.605 158.657 20.493 159.228 20.5014C159.805 20.451 160.384 20.5583 160.903 20.8117C161.423 21.0651 161.863 21.4549 162.177 21.9394L160.947 22.8687C160.768 22.5712 160.509 22.3302 160.199 22.1736C159.889 22.017 159.541 21.9512 159.195 21.9837C158.829 21.975 158.466 22.0502 158.133 22.2037C157.801 22.3571 157.508 22.5846 157.277 22.8687C156.788 23.4544 156.528 24.1972 156.546 24.9594C156.528 25.2318 156.571 25.5047 156.67 25.7588C156.77 26.013 156.924 26.2423 157.122 26.4307C157.534 26.7938 158.07 26.984 158.619 26.9617C158.946 26.9657 159.27 26.895 159.566 26.755C159.862 26.6151 160.122 26.4095 160.326 26.1541L161.235 27.2604C160.881 27.6206 160.456 27.9039 159.986 28.0924C159.517 28.2809 159.014 28.3705 158.508 28.3555Z" fill="white"/>
<path d="M169.361 28.1666H167.388L165.747 25.036L164.406 26.1423L163.973 28.1556H162.344L164.006 20.6775H165.636L164.849 24.1953L168.862 20.6775H170.957L167.077 24.0736L169.361 28.1666Z" fill="white"/>
<path d="M174.647 20.5014C175.151 20.4945 175.649 20.6083 176.099 20.8332C176.525 21.0383 176.883 21.3608 177.13 21.7625L177.363 20.6562H178.993L177.341 28.1343H175.711L175.922 27.1498C175.651 27.5137 175.298 27.8092 174.892 28.0128C174.486 28.2164 174.037 28.3224 173.583 28.3224C173.196 28.3384 172.81 28.2738 172.449 28.1329C172.088 27.992 171.761 27.7777 171.488 27.5038C170.95 26.895 170.672 26.1014 170.712 25.2913C170.707 24.5136 170.858 23.7428 171.155 23.0236C171.449 22.3199 171.923 21.7057 172.53 21.2425C173.128 20.7582 173.876 20.4962 174.647 20.5014ZM174.902 21.9395C174.554 21.9403 174.211 22.0229 173.901 22.1805C173.591 22.338 173.322 22.5662 173.117 22.8466C172.65 23.4467 172.404 24.1887 172.419 24.9484C172.404 25.2082 172.442 25.4681 172.53 25.7132C172.617 25.9582 172.753 26.1833 172.929 26.3755C173.099 26.5551 173.306 26.6964 173.535 26.7898C173.765 26.8833 174.011 26.9269 174.259 26.9175C174.649 26.92 175.032 26.8168 175.368 26.6188C175.704 26.4294 175.998 26.1735 176.232 25.8666L176.886 22.9683C176.692 22.6577 176.421 22.4024 176.099 22.2271C175.727 22.0459 175.315 21.9622 174.902 21.9837V21.9395Z" fill="white"/>
<path d="M181.121 28.1677H179.148L181.675 25.2915C181.271 25.1702 180.92 24.9163 180.678 24.571C180.437 24.2257 180.319 23.8091 180.345 23.3888C180.341 23.0351 180.408 22.6842 180.543 22.3572C180.679 22.0302 180.879 21.7339 181.132 21.4861C181.403 21.2173 181.728 21.0077 182.085 20.8706C182.442 20.7335 182.823 20.6719 183.205 20.6896H187.639L185.999 28.1677H184.369L184.957 25.4575H183.36L181.121 28.1677ZM183.083 24.0304H185.3L185.722 22.1167H183.205C183.049 22.1092 182.894 22.1327 182.747 22.1859C182.6 22.2391 182.466 22.3208 182.351 22.4264C182.249 22.5298 182.167 22.6524 182.112 22.7872C182.057 22.9219 182.029 23.0662 182.03 23.2118C182.025 23.3268 182.046 23.4414 182.092 23.5469C182.138 23.6524 182.208 23.7459 182.296 23.8203C182.527 23.9767 182.804 24.0507 183.083 24.0304Z" fill="white"/>
<path d="M94.8954 46.9382C94.4159 46.9649 93.9359 46.8965 93.483 46.737C93.0301 46.5775 92.6134 46.3301 92.2569 46.009C91.9343 45.6934 91.6818 45.3136 91.5157 44.8944C91.3495 44.4752 91.2734 44.0257 91.2924 43.5753C91.2803 42.4088 91.7213 41.2828 92.523 40.4337C92.9004 40.0017 93.3678 39.6572 93.8924 39.4241C94.4171 39.191 94.9863 39.0749 95.5606 39.0841C96.0411 39.0564 96.5222 39.1254 96.9755 39.2869C97.4287 39.4485 97.8448 39.6992 98.1991 40.0244C98.5205 40.3408 98.7724 40.7207 98.9384 41.1398C99.1045 41.5588 99.1812 42.0078 99.1635 42.4581C99.1764 43.6227 98.7398 44.7476 97.9441 45.5997C97.5635 46.0299 97.0937 46.3724 96.5673 46.6035C96.0409 46.8347 95.4704 46.9489 94.8954 46.9382ZM94.8954 45.5002C95.2462 45.5041 95.5929 45.4249 95.907 45.2691C96.2211 45.1134 96.4938 44.8855 96.7025 44.6041C97.1852 44.0198 97.441 43.2815 97.4231 42.5244C97.4393 42.2595 97.4026 41.9939 97.315 41.7432C97.2275 41.4925 97.0909 41.2617 96.9131 41.0642C96.7223 40.881 96.4961 40.7385 96.2484 40.6453C96.0006 40.5521 95.7364 40.5102 95.4719 40.5222C95.1202 40.5195 94.7729 40.6004 94.4586 40.7581C94.1444 40.9158 93.8724 41.1459 93.6649 41.4293C93.1898 42.0136 92.9348 42.7455 92.9443 43.4979C92.9276 43.7638 92.9652 44.0303 93.0547 44.2813C93.1443 44.5323 93.284 44.7625 93.4653 44.9581C93.6616 45.1563 93.8999 45.3079 94.1628 45.4017C94.4257 45.4955 94.7064 45.5292 94.9841 45.5002H94.8954Z" fill="white"/>
<path d="M102.954 46.7507H101.324L102.643 40.6996H100.492L100.825 39.2726H106.756L106.424 40.6996H104.273L102.954 46.7507Z" fill="white"/>
<path d="M111.356 46.7503H106.444L108.085 39.2722H112.52C113.023 39.239 113.52 39.4015 113.905 39.7258C114.073 39.8703 114.206 40.0509 114.295 40.2539C114.383 40.4569 114.424 40.6772 114.415 40.8984C114.432 41.39 114.266 41.8704 113.95 42.2479C113.634 42.6081 113.21 42.8565 112.741 42.9559C113.055 43.0734 113.324 43.2859 113.511 43.5636C113.698 43.8413 113.793 44.1703 113.783 44.5046C113.785 44.7984 113.728 45.0896 113.616 45.3612C113.504 45.6328 113.338 45.8794 113.129 46.0866C112.897 46.3156 112.619 46.4932 112.314 46.6076C112.008 46.7219 111.681 46.7706 111.356 46.7503ZM108.385 45.3233H111.078C111.354 45.3314 111.623 45.2367 111.832 45.0577C111.926 44.9702 112 44.8639 112.05 44.7457C112.1 44.6274 112.124 44.5 112.121 44.3719C112.126 44.2687 112.106 44.1658 112.064 44.0716C112.022 43.9773 111.957 43.8945 111.877 43.8298C111.678 43.6957 111.44 43.6297 111.2 43.6418H108.75L108.385 45.3233ZM109.061 42.2148H111.71C111.834 42.2222 111.957 42.2044 112.074 42.1626C112.19 42.1208 112.296 42.0557 112.387 41.9714C112.471 41.8923 112.538 41.7961 112.582 41.6893C112.626 41.5824 112.646 41.4674 112.642 41.3519C112.642 40.9094 112.376 40.6992 111.821 40.6992H109.393L109.061 42.2148Z" fill="white"/>
<path d="M119.394 46.9392C118.394 46.9946 117.41 46.675 116.634 46.0431C116.292 45.7372 116.023 45.3589 115.847 44.9359C115.67 44.5129 115.591 44.0559 115.614 43.5984C115.591 42.4168 116.033 41.2733 116.844 40.4124C117.227 39.9854 117.697 39.6457 118.223 39.4166C118.75 39.1876 119.319 39.0744 119.893 39.0849C120.337 39.0556 120.783 39.1213 121.2 39.2777C121.617 39.4341 121.995 39.6776 122.31 39.9918C122.625 40.3061 122.869 40.6838 123.026 41.0997C123.182 41.5157 123.248 41.9602 123.219 42.4036C123.22 42.7764 123.175 43.1478 123.086 43.5098H117.277V43.6315C117.272 43.6794 117.272 43.7275 117.277 43.7754C117.28 44.0145 117.336 44.25 117.439 44.4657C117.542 44.6815 117.691 44.8724 117.875 45.0254C118.347 45.4152 118.949 45.6128 119.56 45.5785C120.277 45.603 120.98 45.3846 121.556 44.959L122.066 46.0652C121.297 46.6439 120.357 46.9513 119.394 46.9392ZM117.432 42.4036H121.722C121.732 42.3302 121.732 42.2558 121.722 42.1824C121.727 41.9488 121.684 41.7166 121.596 41.4999C121.508 41.2833 121.378 41.0864 121.212 40.9213C121.013 40.7464 120.781 40.6124 120.53 40.527C120.279 40.4415 120.014 40.4064 119.749 40.4235C119.183 40.4168 118.635 40.6266 118.219 41.0098C117.807 41.3726 117.529 41.8638 117.432 42.4036Z" fill="white"/>
<path d="M126.953 46.7507H125.323L126.643 40.6996H124.503L124.824 39.2726H130.755L130.434 40.6996H128.272L126.953 46.7507Z" fill="white"/>
<path d="M134.326 46.9386C133.375 46.9812 132.444 46.6519 131.732 46.0205C131.402 45.7051 131.143 45.3228 130.972 44.8992C130.802 44.4756 130.725 44.0206 130.746 43.5647C130.732 42.9799 130.835 42.3981 131.048 41.8532C131.261 41.3082 131.58 40.8108 131.987 40.3898C132.378 39.971 132.852 39.6384 133.379 39.4136C133.906 39.1888 134.474 39.0766 135.047 39.0844C135.623 39.0353 136.202 39.1432 136.721 39.3965C137.24 39.6497 137.681 40.0389 137.996 40.5226L136.765 41.4518C136.596 41.1533 136.347 40.908 136.045 40.7438C135.743 40.5795 135.401 40.5029 135.058 40.5226C134.692 40.513 134.328 40.5879 133.995 40.7414C133.663 40.8949 133.37 41.1228 133.14 41.4075C132.651 41.9932 132.391 42.736 132.409 43.4983C132.391 43.7707 132.434 44.0435 132.533 44.2977C132.633 44.5518 132.787 44.7812 132.985 44.9696C133.397 45.3326 133.933 45.5229 134.482 45.5006C134.808 45.4998 135.131 45.4269 135.426 45.2873C135.721 45.1477 135.981 44.9448 136.189 44.693L137.087 45.7992C136.734 46.1734 136.305 46.4684 135.829 46.6649C135.353 46.8613 134.841 46.9546 134.326 46.9386Z" fill="white"/>
<path d="M141.159 46.7507H139.529L140.848 40.6996H138.709L139.03 39.2726H144.961L144.64 40.6996H142.422L141.159 46.7507Z" fill="white"/>
<path d="M149.573 46.7504H144.651L146.303 39.2723H150.737C151.24 39.2391 151.737 39.4016 152.123 39.7259C152.289 39.872 152.421 40.0528 152.509 40.2554C152.597 40.4581 152.639 40.6776 152.633 40.8985C152.649 41.3901 152.483 41.8706 152.167 42.2481C151.849 42.6103 151.421 42.8588 150.948 42.956C151.262 43.0721 151.533 43.2843 151.72 43.5623C151.907 43.8403 152.001 44.1701 151.99 44.5047C151.993 44.7978 151.938 45.0885 151.827 45.3601C151.717 45.6316 151.554 45.8786 151.347 46.0867C151.114 46.3146 150.836 46.4914 150.53 46.6057C150.225 46.72 149.899 46.7693 149.573 46.7504ZM146.591 45.3234H149.296C149.571 45.3315 149.84 45.2368 150.05 45.0579C150.144 44.9703 150.218 44.864 150.267 44.7458C150.317 44.6276 150.341 44.5002 150.338 44.372C150.341 44.2691 150.321 44.1667 150.279 44.0728C150.237 43.9788 150.173 43.8958 150.094 43.83C149.895 43.6958 149.658 43.6298 149.418 43.6419H147.001L146.591 45.3234ZM147.278 42.2149H149.928C150.051 42.2217 150.174 42.2036 150.291 42.1618C150.407 42.12 150.513 42.0553 150.604 41.9715C150.688 41.8925 150.755 41.7963 150.799 41.6894C150.843 41.5825 150.863 41.4675 150.859 41.352C150.859 40.9095 150.593 40.6994 150.039 40.6994H147.6L147.278 42.2149Z" fill="white"/>
<path d="M157.607 46.9392C156.603 46.9942 155.615 46.6748 154.835 46.0431C154.496 45.7351 154.23 45.3562 154.056 44.9335C153.882 44.5109 153.803 44.0549 153.826 43.5984C153.804 42.4168 154.245 41.2733 155.057 40.4124C155.439 39.9854 155.91 39.6457 156.436 39.4166C156.962 39.1876 157.531 39.0744 158.105 39.0849C158.55 39.0556 158.995 39.1213 159.412 39.2777C159.829 39.4341 160.207 39.6776 160.522 39.9918C160.837 40.3061 161.081 40.6838 161.238 41.0997C161.395 41.5157 161.461 41.9602 161.431 42.4036C161.432 42.7764 161.387 43.1478 161.298 43.5098H155.489C155.492 43.5503 155.492 43.5911 155.489 43.6315V43.7754C155.493 44.0145 155.548 44.2499 155.651 44.4657C155.755 44.6815 155.904 44.8724 156.088 45.0254C156.556 45.4135 157.154 45.6111 157.762 45.5785C158.481 45.6011 159.187 45.3831 159.768 44.959L160.278 46.0652C159.509 46.6439 158.57 46.9513 157.607 46.9392ZM155.633 42.4036H159.935C159.944 42.3302 159.944 42.2558 159.935 42.1824C159.939 41.9477 159.896 41.7145 159.806 41.4975C159.716 41.2805 159.583 41.0843 159.414 40.9213C159.217 40.7457 158.987 40.6111 158.738 40.5256C158.488 40.4401 158.224 40.4054 157.961 40.4235C157.395 40.4168 156.848 40.6266 156.431 41.0098C156.016 41.3721 155.735 41.8629 155.633 42.4036Z" fill="white"/>
<path d="M163.802 46.7507H162.172L163.879 39.2726H165.509L164.855 42.1377H168.303L168.957 39.2726H170.586L168.879 46.7507H167.25L167.97 43.5647H164.534L163.802 46.7507Z" fill="white"/>
<path d="M172.61 46.7507H170.98L172.687 39.2726H174.317L173.663 42.1377H177.111L177.754 39.2726H179.383L177.676 46.7507H176.046L176.778 43.5647H173.33L172.61 46.7507Z" fill="white"/>
<path d="M183.65 46.9389C183.17 46.9649 182.691 46.8962 182.238 46.7367C181.785 46.5773 181.368 46.3302 181.011 46.0096C180.692 45.6918 180.443 45.3114 180.279 44.8925C180.115 44.4737 180.04 44.0253 180.058 43.5759C180.042 42.4107 180.479 41.2846 181.277 40.4343C181.657 40.0015 182.126 39.6565 182.652 39.4234C183.179 39.1903 183.75 39.0747 184.326 39.0847C184.806 39.0583 185.287 39.1279 185.74 39.2893C186.193 39.4508 186.61 39.7009 186.965 40.025C187.285 40.342 187.535 40.7222 187.699 41.1413C187.863 41.5604 187.938 42.0091 187.918 42.4587C187.935 43.6241 187.498 44.7507 186.699 45.6003C186.319 46.0317 185.849 46.375 185.323 46.6062C184.796 46.8375 184.225 46.951 183.65 46.9389ZM183.705 45.5008C184.056 45.5047 184.403 45.4255 184.717 45.2698C185.031 45.114 185.304 44.8861 185.512 44.6048C185.991 44.018 186.246 43.2814 186.233 42.525C186.247 42.2594 186.208 41.9935 186.119 41.7429C186.029 41.4922 185.891 41.2618 185.712 41.0648C185.522 40.8805 185.296 40.7373 185.048 40.6441C184.8 40.5508 184.535 40.5095 184.271 40.5228C183.919 40.5201 183.572 40.601 183.257 40.7587C182.943 40.9165 182.671 41.1465 182.464 41.4299C181.989 42.0142 181.734 42.7461 181.743 43.4985C181.729 43.7642 181.768 44.03 181.857 44.2807C181.946 44.5313 182.085 44.7617 182.264 44.9587C182.452 45.1452 182.678 45.29 182.927 45.3834C183.175 45.4768 183.44 45.5168 183.705 45.5008Z" fill="white"/>
<path d="M192.551 46.9384C191.596 46.9816 190.662 46.6523 189.946 46.0203C189.617 45.7036 189.359 45.3211 189.189 44.8978C189.019 44.4745 188.94 44.0201 188.959 43.5645C188.947 42.9789 189.051 42.3967 189.266 41.8517C189.481 41.3067 189.803 40.8097 190.212 40.3896C190.6 39.9711 191.072 39.6386 191.597 39.4137C192.122 39.1889 192.689 39.0766 193.26 39.0843C193.836 39.0339 194.415 39.1412 194.935 39.3946C195.455 39.6479 195.895 40.0379 196.209 40.5224L194.979 41.4516C194.811 41.1522 194.561 40.9062 194.259 40.7418C193.957 40.5775 193.615 40.5014 193.271 40.5224C192.905 40.5137 192.542 40.5889 192.209 40.7423C191.877 40.8958 191.584 41.1233 191.354 41.4073C190.864 41.993 190.604 42.7358 190.622 43.4981C190.604 43.7715 190.647 44.0456 190.749 44.3002C190.85 44.5548 191.008 44.7834 191.209 44.9694C191.619 45.3355 192.157 45.5262 192.706 45.5004C193.033 45.4995 193.355 45.4267 193.65 45.2871C193.945 45.1475 194.206 44.9446 194.413 44.6928L195.311 45.799C194.958 46.1726 194.529 46.4673 194.053 46.6637C193.578 46.8601 193.066 46.9537 192.551 46.9384Z" fill="white"/>
<path d="M199.379 46.7507H197.75L199.069 40.6996H196.885L197.218 39.2726H203.149L202.816 40.6996H200.665L199.379 46.7507Z" fill="white"/>
<path d="M204.514 39.2728H206.143L205.534 41.9831H207.751C208.387 41.9445 209.014 42.1504 209.502 42.5583C209.728 42.7465 209.908 42.9841 210.027 43.2526C210.146 43.5212 210.202 43.8136 210.19 44.107C210.192 44.4589 210.124 44.8078 209.989 45.1327C209.854 45.4577 209.654 45.7522 209.403 45.9987C209.13 46.2664 208.806 46.4753 208.449 46.6123C208.093 46.7493 207.711 46.8116 207.33 46.7952H202.895L204.514 39.2728ZM207.463 43.4101H205.245L204.835 45.3239H207.341C207.497 45.3353 207.654 45.3136 207.801 45.2603C207.948 45.2069 208.082 45.123 208.194 45.0141C208.304 44.9155 208.391 44.794 208.448 44.6583C208.505 44.5226 208.532 44.3759 208.527 44.2287C208.533 44.1126 208.51 43.9968 208.462 43.891C208.414 43.7852 208.341 43.6924 208.25 43.6203C208.02 43.4597 207.742 43.3852 207.463 43.4101Z" fill="white"/>
<path d="M66.3938 32.7461C66.2385 33.1111 66.1055 33.4872 65.9171 33.8523C65.268 35.1547 64.3223 36.2873 63.1557 37.1595C61.9891 38.0316 60.634 38.619 59.1989 38.8745C56.9947 39.3141 54.7057 38.9624 52.7361 37.8816C50.7665 36.8007 49.2429 35.0602 48.4344 32.9673C48.4344 32.8898 48.4344 32.8235 48.3568 32.735H48.5785H66.3938V32.7461Z" fill="white"/>
<path d="M32.1255 50.2679L31.7154 50.1794C31.3622 50.0928 31.0506 49.8853 30.8351 49.5929C30.6196 49.3006 30.5139 48.942 30.5363 48.5798C30.5588 48.2176 30.708 47.8747 30.9579 47.6111C31.2079 47.3474 31.5426 47.1797 31.9038 47.1372H32.2808H51.6592C51.9147 47.1202 52.1706 47.1622 52.4072 47.2601C52.6437 47.358 52.8543 47.509 53.0228 47.7014C53.193 47.8991 53.31 48.1367 53.363 48.3919C53.4159 48.6471 53.403 48.9115 53.3254 49.1604C53.2478 49.4092 53.1081 49.6343 52.9194 49.8145C52.7308 49.9947 52.4993 50.124 52.2468 50.1905L51.8476 50.29L32.1255 50.2679Z" fill="white"/>
<path d="M43.7001 43.4214H40.3742V43.2665V11.6082C40.3463 11.3546 40.3463 11.0986 40.3742 10.845C40.4792 10.4619 40.7158 10.1278 41.0427 9.90127C41.3696 9.67472 41.766 9.57009 42.1624 9.60569C42.5588 9.64129 42.9301 9.81486 43.2112 10.096C43.4923 10.3772 43.6653 10.748 43.7001 11.1436C43.7059 11.2284 43.7059 11.3133 43.7001 11.398V43.4214Z" fill="white"/>
<path d="M17.6151 32.7028H35.6079C34.9437 34.5528 33.723 36.1529 32.1126 37.2841C30.5022 38.4154 28.581 39.0225 26.6116 39.0225C24.6422 39.0225 22.7208 38.4154 21.1105 37.2841C19.5001 36.1529 18.2793 34.5528 17.6151 32.7028Z" fill="white"/>
<path d="M48.8988 46.8162H35.0301C35.0602 46.0854 35.3466 45.3885 35.8394 44.8471C36.1546 44.4873 36.5457 44.2016 36.9846 44.0103C37.4235 43.8191 37.8994 43.7271 38.3781 43.7408H45.4953C46.309 43.7343 47.0969 44.0257 47.7098 44.5598C48.3227 45.0939 48.7181 45.8337 48.8212 46.6392C48.8518 46.6959 48.8778 46.7551 48.8988 46.8162Z" fill="white"/>
<path d="M57.4124 14.7498H43.9983V13.8648H56.0931C56.175 13.8557 56.2577 13.8695 56.3321 13.9047C56.4065 13.9398 56.4696 13.995 56.5144 14.0639C56.5841 14.1622 56.6731 14.2453 56.776 14.308C56.8789 14.3708 56.9936 14.412 57.113 14.429C57.3015 14.44 57.357 14.5506 57.4124 14.7498Z" fill="white"/>
<path d="M26.594 14.7392C26.594 14.5622 26.6716 14.4516 26.8823 14.4184C27.0101 14.3972 27.1322 14.3499 27.241 14.2795C27.3497 14.2091 27.4427 14.117 27.5141 14.0091C27.551 13.9537 27.6029 13.9097 27.6637 13.8823C27.7244 13.855 27.7918 13.8452 27.8578 13.8542H40.0525C40.0525 14.164 40.0525 14.4405 40.0525 14.7392H26.594Z" fill="white"/>
<path d="M27.1116 15.0599H27.6548L35.415 32.4056H34.9383C34.9383 32.4056 34.8386 32.3392 34.8164 32.2949L34.628 31.8967L27.2668 15.3476C27.1781 15.2369 27.1559 15.1595 27.1116 15.0599Z" fill="white"/>
<path d="M48.5687 32.3944C51.1629 26.5978 53.7459 20.8344 56.329 15.0488H56.8833L56.7835 15.2811C55.819 17.4936 54.8434 19.6286 53.8679 21.7968C52.3232 25.2408 50.7859 28.6849 49.2561 32.1289C49.1563 32.3391 49.0454 32.4498 48.8126 32.4055L48.5687 32.3944Z" fill="white"/>
<path d="M66.0715 32.3594C65.6614 32.3594 65.6613 32.3594 65.495 32.0497L57.6129 14.5834C57.5782 14.5326 57.552 14.4766 57.5353 14.4175C57.5353 14.3068 57.4245 14.2847 57.3247 14.2626L56.8813 14.1298C57.0587 13.7537 57.2138 13.4108 57.3912 13.0237C60.2181 19.5168 63.1227 25.9326 66.0715 32.3594Z" fill="white"/>
<path d="M18.4015 32.3929H17.958C17.958 32.2159 26.4389 13.4112 26.6495 13.0793L27.1484 14.1855C27.0385 14.2471 26.9183 14.2884 26.7936 14.3072C26.7167 14.3135 26.6434 14.342 26.5824 14.3891C26.5214 14.4362 26.4754 14.5 26.4499 14.5726C25.297 17.1537 24.1367 19.7347 22.9689 22.3158C21.4908 25.6121 20.0127 28.9085 18.5345 32.2049L18.4015 32.3929Z" fill="white"/>
<path d="M58.2205 14.75L58.0209 14.2964C58.1429 14.1526 58.2426 14.0309 58.3535 13.9203C58.3944 13.8786 58.4502 13.8548 58.5087 13.8539H60.5264C60.6238 13.8526 60.7189 13.8833 60.797 13.9413C60.8752 13.9993 60.932 14.0813 60.9588 14.1747C60.9874 14.2602 60.9878 14.3525 60.9598 14.4381C60.9319 14.5238 60.8771 14.5982 60.8036 14.6504C60.7322 14.7039 60.6482 14.7382 60.5597 14.75H58.2205Z" fill="white"/>
<path d="M25.9629 14.2416C25.7966 14.7284 25.7965 14.7284 25.2977 14.7284H23.5572C23.4619 14.7451 23.3643 14.7451 23.2689 14.7284C23.1787 14.6921 23.1033 14.6265 23.055 14.5422C23.0067 14.4579 22.9884 14.3598 23.0029 14.2637C23.0203 14.1722 23.0641 14.0877 23.1292 14.0209C23.1942 13.954 23.2775 13.9077 23.3687 13.8876H25.3864C25.4462 13.8825 25.5063 13.893 25.5608 13.9183C25.6153 13.9435 25.6622 13.9825 25.6968 14.0314C25.78 14.1082 25.8689 14.1785 25.9629 14.2416Z" fill="white"/>
</svg>
