<svg width="256" height="66" viewBox="0 0 256 66" fill="none" xmlns="http://www.w3.org/2000/svg">
<path d="M173.37 7.44897H122.85V58.6753H173.37V7.44897Z" fill="#EB782E" stroke="white" stroke-width="0.5" stroke-miterlimit="10"/>
<path d="M223.893 7.44922H72.3348V58.6755H223.893V7.44922Z" fill="#EB782E"/>
<path fill-rule="evenodd" clip-rule="evenodd" d="M173.374 7.44873H255.529L245.711 58.6861H173.374V7.44873Z" fill="#EB782E"/>
<path fill-rule="evenodd" clip-rule="evenodd" d="M12.3035 1H82.8736L71.681 65.1352H0.860046L12.3035 1Z" fill="#EB782E" stroke="white" stroke-width="0.5" stroke-miterlimit="10"/>
<path d="M93.1394 37.8016C92.7364 37.8041 92.3366 37.7291 91.9613 37.5804C91.6729 37.4882 91.4158 37.3157 91.2194 37.0826L92.1685 35.6004C92.3119 35.7837 92.4943 35.9316 92.7022 36.0332C92.91 36.1347 93.1378 36.1872 93.3685 36.1867C93.6974 36.1998 94.0208 36.0983 94.2848 35.899C94.6368 35.6103 94.9455 35.2713 95.2012 34.8924L95.2776 34.7597L93.0958 27.2821H95.0812L96.5866 33.3106L100.667 27.271H102.848L96.7939 35.6668C96.349 36.2816 95.7984 36.8099 95.1685 37.2264C94.5638 37.6191 93.8572 37.8194 93.1394 37.8016Z" fill="white"/>
<path d="M105.16 37.8017C104.679 37.8325 104.198 37.7318 103.768 37.51C103.338 37.2881 102.975 36.9534 102.716 36.5407L101.865 40.4676H100.262L102.52 30.1361H104.124L103.894 31.1205C104.168 30.7587 104.52 30.4651 104.923 30.2619C105.325 30.0587 105.768 29.9513 106.218 29.948C106.595 29.9331 106.972 29.9982 107.323 30.1392C107.674 30.2801 107.993 30.4938 108.258 30.7666C108.531 31.0751 108.74 31.4353 108.875 31.8264C109.01 32.2174 109.067 32.6317 109.043 33.0453C109.054 34.2437 108.67 35.4114 107.953 36.3637C107.636 36.814 107.217 37.1799 106.73 37.4303C106.244 37.6807 105.705 37.8082 105.16 37.8017ZM104.92 36.3637C105.259 36.3625 105.594 36.2808 105.897 36.1252C106.2 35.9697 106.463 35.7445 106.665 35.4677C107.129 34.8691 107.375 34.1271 107.363 33.366C107.386 32.837 107.202 32.3203 106.851 31.928C106.682 31.7501 106.478 31.6099 106.253 31.5166C106.027 31.4232 105.785 31.3788 105.542 31.386C105.154 31.3966 104.774 31.5029 104.436 31.6956C104.098 31.8883 103.811 32.1617 103.6 32.4922L102.978 35.3903C103.174 35.7143 103.463 35.9693 103.807 36.1204C104.146 36.2886 104.52 36.372 104.898 36.3637H104.92Z" fill="white"/>
<path d="M113.526 37.8013C113.055 37.8279 112.582 37.7595 112.137 37.6C111.691 37.4405 111.281 37.1931 110.93 36.8721C110.613 36.5565 110.364 36.1767 110.201 35.7575C110.037 35.3383 109.962 34.8889 109.981 34.4385C109.991 33.8387 110.083 33.2431 110.254 32.6687C110.393 32.1426 110.591 31.6342 110.843 31.1532C111.291 30.2817 111.929 29.5251 112.708 28.9409C113.524 28.3948 114.462 28.064 115.435 27.9786C116.526 27.8126 117.17 27.6025 117.225 27.3259H118.795C118.566 28.4321 117.366 29.0737 115.228 29.306C114.499 29.3642 113.794 29.6035 113.177 30.0028C112.699 30.3245 112.321 30.7771 112.086 31.3081C112.408 30.9089 112.807 30.5818 113.26 30.3476C113.713 30.1134 114.208 29.9771 114.715 29.9475C115.124 29.9279 115.533 30.0011 115.91 30.1619C116.288 30.3226 116.625 30.5669 116.897 30.8767C117.432 31.5725 117.703 32.44 117.661 33.3213C117.671 34.4855 117.242 35.6095 116.461 36.4628C116.092 36.8828 115.64 37.2192 115.135 37.4498C114.629 37.6805 114.081 37.8002 113.526 37.8013ZM113.526 36.3633C113.873 36.3689 114.217 36.2906 114.528 36.1348C114.839 35.979 115.109 35.7501 115.315 35.4673C115.785 34.8796 116.036 34.1437 116.025 33.3877C116.039 33.122 116 32.8562 115.912 32.6056C115.824 32.355 115.688 32.1245 115.512 31.9276C115.326 31.7422 115.103 31.5982 114.859 31.5049C114.615 31.4116 114.354 31.3709 114.094 31.3855C113.749 31.3816 113.407 31.4608 113.098 31.6165C112.789 31.7723 112.521 32.0002 112.316 32.2815C111.853 32.8728 111.603 33.6063 111.606 34.3611C111.593 34.6268 111.631 34.8926 111.719 35.1432C111.807 35.3938 111.943 35.6243 112.119 35.8212C112.315 36.0183 112.552 36.1691 112.812 36.2628C113.072 36.3565 113.35 36.3908 113.625 36.3633H113.526Z" fill="white"/>
<path d="M122.682 29.948C123.177 29.9436 123.667 30.0573 124.111 30.2798C124.523 30.4904 124.873 30.807 125.126 31.1979L125.355 30.0918H126.958L125.322 37.5694H123.718L123.936 36.5739C123.668 36.9393 123.319 37.2365 122.918 37.4419C122.516 37.6473 122.073 37.7553 121.624 37.7575C121.244 37.7739 120.866 37.7096 120.513 37.5686C120.16 37.4276 119.839 37.2131 119.573 36.9389C119.029 36.3168 118.75 35.5013 118.798 34.6713C118.797 33.8927 118.949 33.1218 119.246 32.4037C119.531 31.6947 119.998 31.076 120.598 30.6117C121.201 30.1614 121.934 29.9278 122.682 29.948ZM122.922 31.386C122.582 31.3873 122.248 31.4689 121.945 31.6245C121.642 31.7801 121.379 32.0052 121.176 32.282C120.715 32.8857 120.468 33.6306 120.478 34.3948C120.466 34.6552 120.506 34.9154 120.594 35.1604C120.682 35.4053 120.817 35.6301 120.991 35.8217C121.159 36.0013 121.362 36.1426 121.588 36.2361C121.814 36.3296 122.056 36.3731 122.3 36.3637C122.684 36.3668 123.061 36.2635 123.391 36.0651C123.727 35.8778 124.018 35.617 124.242 35.3018L124.886 32.4147C124.701 32.0989 124.433 31.8421 124.111 31.6736C123.746 31.4753 123.336 31.3762 122.922 31.386Z" fill="white"/>
<path d="M128.995 37.6136H127.391L129.082 30.136H130.675L130.042 33.0009H133.424L134.068 30.136H135.671L133.991 37.6136H132.388L133.108 34.4279H129.715L128.995 37.6136Z" fill="white"/>
<path d="M137.626 37.6134H136.077L137.702 30.1357H139.306L138.215 35.1688L142.698 30.1357H144.302L142.688 37.6134H141.084L142.175 32.4366L137.626 37.6134Z" fill="white"/>
<path d="M148.534 37.8019C147.595 37.8462 146.677 37.5122 145.981 36.8727C145.657 36.5591 145.402 36.1786 145.235 35.757C145.067 35.3353 144.991 34.8822 145.01 34.4281C144.998 33.8425 145.101 33.2604 145.313 32.7154C145.524 32.1705 145.84 31.6735 146.243 31.2534C146.624 30.8333 147.088 30.4997 147.605 30.2747C148.122 30.0497 148.68 29.9384 149.243 29.9481C149.81 29.8953 150.381 30.0015 150.892 30.2551C151.404 30.5087 151.837 30.8999 152.145 31.3862L150.934 32.3153C150.768 32.016 150.523 31.77 150.226 31.6056C149.928 31.4413 149.592 31.3652 149.254 31.3862C148.894 31.3778 148.538 31.4521 148.211 31.6034C147.884 31.7548 147.595 31.9793 147.366 32.26C146.884 32.8496 146.629 33.596 146.646 34.3617C146.63 34.634 146.672 34.9066 146.77 35.1607C146.868 35.4147 147.02 35.6441 147.214 35.8329C147.619 36.196 148.146 36.3862 148.686 36.3639C149.008 36.3631 149.325 36.2903 149.616 36.1507C149.906 36.0111 150.162 35.8081 150.366 35.5564L151.261 36.6625C150.911 37.0364 150.487 37.3311 150.017 37.5275C149.547 37.7238 149.042 37.8173 148.534 37.8019Z" fill="white"/>
<path d="M155.266 37.6136H153.663L154.961 31.5629H152.899L153.226 30.136H159.052L158.735 31.5629H156.608L155.266 37.6136Z" fill="white"/>
<path d="M160.252 37.6134H158.714L160.329 30.1357H161.932L160.841 35.1688L165.336 30.1357H166.94L165.314 37.6134H163.7L164.79 32.4366L160.252 37.6134Z" fill="white"/>
<path d="M174.278 37.614H172.348L170.722 34.4835L169.413 35.5897L168.988 37.6029H167.384L169.009 30.1252H170.613L169.839 33.6428L173.798 30.1252H175.86L172.042 33.5101L174.278 37.614Z" fill="white"/>
<path d="M179.493 29.948C179.988 29.9436 180.478 30.0573 180.922 30.2798C181.334 30.4904 181.684 30.807 181.936 31.1979L182.166 30.0918H183.769L182.133 37.5694H180.529L180.747 36.5739C180.479 36.9393 180.13 37.2365 179.728 37.4419C179.327 37.6473 178.884 37.7553 178.435 37.7575C178.055 37.7739 177.677 37.7096 177.324 37.5686C176.97 37.4276 176.65 37.2131 176.384 36.9389C175.84 36.3168 175.561 35.5013 175.609 34.6713C175.608 33.8927 175.76 33.1218 176.057 32.4037C176.342 31.6947 176.809 31.076 177.409 30.6117C178.011 30.1614 178.745 29.9278 179.493 29.948ZM179.733 31.386C179.393 31.3873 179.059 31.4689 178.756 31.6245C178.453 31.7801 178.189 32.0052 177.987 32.282C177.521 32.8836 177.275 33.63 177.289 34.3948C177.275 34.6545 177.312 34.9144 177.398 35.1594C177.485 35.4044 177.618 35.6296 177.791 35.8217C177.962 36.0005 178.167 36.1411 178.394 36.2345C178.622 36.3278 178.866 36.3718 179.111 36.3637C179.495 36.3668 179.872 36.2635 180.202 36.0651C180.538 35.8778 180.828 35.617 181.053 35.3018L181.696 32.4147C181.512 32.0989 181.243 31.8421 180.922 31.6736C180.557 31.4753 180.147 31.3762 179.733 31.386Z" fill="white"/>
<path d="M41.1357 22.7473C40.1518 22.7473 39.19 23.0431 38.372 23.5974C37.5539 24.1517 36.9163 24.9394 36.5398 25.8611C36.1633 26.7828 36.0648 27.797 36.2567 28.7755C36.4487 29.7539 36.9225 30.6527 37.6182 31.3581C38.3139 32.0635 39.2002 32.544 40.1652 32.7386C41.1302 32.9332 42.1304 32.8333 43.0393 32.4515C43.9483 32.0698 44.7252 31.4233 45.2718 30.5938C45.8184 29.7643 46.1101 28.789 46.1101 27.7914C46.1072 26.4545 45.5822 25.1732 44.65 24.2279C43.7177 23.2826 42.4541 22.7502 41.1357 22.7473ZM41.1357 30.8887C40.5315 30.8887 39.941 30.707 39.4387 30.3667C38.9364 30.0263 38.5449 29.5426 38.3137 28.9767C38.0825 28.4107 38.022 27.788 38.1398 27.1872C38.2577 26.5864 38.5486 26.0345 38.9758 25.6013C39.403 25.1682 39.9472 24.8732 40.5398 24.7537C41.1323 24.6342 41.7464 24.6955 42.3046 24.9299C42.8627 25.1643 43.3398 25.5613 43.6754 26.0707C44.011 26.58 44.1902 27.1788 44.1902 27.7914C44.1902 28.1981 44.1112 28.6009 43.9577 28.9767C43.8042 29.3524 43.5792 29.6939 43.2955 29.9815C43.0119 30.2691 42.6752 30.4972 42.3046 30.6529C41.934 30.8085 41.5368 30.8887 41.1357 30.8887Z" fill="white"/>
<path d="M29.147 37.9241H26.9107V41.2757H29.147V37.9241Z" fill="white"/>
<path d="M29.147 43.1224H26.9107V46.4741H29.147V43.1224Z" fill="white"/>
<path d="M44.1485 39.7265H38.0941C37.8047 39.7265 37.5273 39.8431 37.3227 40.0505C37.1181 40.2579 37.0032 40.5393 37.0032 40.8327V48.3103C37.0032 48.611 37.121 48.8994 37.3307 49.112C37.5404 49.3247 37.8248 49.4441 38.1213 49.4441C38.4179 49.4441 38.7023 49.3247 38.912 49.112C39.1217 48.8994 39.2395 48.611 39.2395 48.3103V42.0052H43.0794V48.3435C43.0794 48.6457 43.1978 48.9355 43.4086 49.1491C43.6193 49.3628 43.9051 49.4828 44.2031 49.4828C44.5011 49.4828 44.7869 49.3628 44.9976 49.1491C45.2083 48.9355 45.3267 48.6457 45.3267 48.3435V40.9322C45.3284 40.7029 45.2598 40.4787 45.1303 40.2907C45.0329 40.1148 44.89 39.9693 44.7169 39.8699C44.5439 39.7704 44.3473 39.7209 44.1485 39.7265Z" fill="white"/>
<path d="M55.362 37.9241H53.1257V41.2757H55.362V37.9241Z" fill="white"/>
<path d="M55.362 43.1224H53.1257V46.4741H55.362V43.1224Z" fill="white"/>
<path d="M61.4377 27.7357H50.6379V24.6827L48.4015 23.5101V48.3877C48.4015 48.6884 48.5193 48.9768 48.729 49.1894C48.9387 49.402 49.2231 49.5215 49.5197 49.5215C49.8162 49.5215 50.1007 49.402 50.3104 49.1894C50.52 48.9768 50.6379 48.6884 50.6379 48.3877V34.5717H61.4377C61.727 34.5717 62.0045 34.4552 62.2091 34.2477C62.4137 34.0403 62.5286 33.7589 62.5286 33.4656V28.875C62.533 28.727 62.508 28.5796 62.4551 28.4415C62.4023 28.3034 62.3226 28.1776 62.2209 28.0713C62.1192 27.965 61.9974 27.8806 61.8629 27.8229C61.7284 27.7653 61.5838 27.7356 61.4377 27.7357ZM60.3468 32.293H50.6815V30.0033H60.3141L60.3468 32.293Z" fill="white"/>
<path d="M22.1229 48.3442C22.1229 48.6449 22.2407 48.9333 22.4504 49.146C22.6601 49.3586 22.9445 49.4781 23.2411 49.4781C23.5376 49.4781 23.822 49.3586 24.0317 49.146C24.2414 48.9333 24.3593 48.6449 24.3593 48.3442V36.4862H22.1229V48.3442Z" fill="white"/>
<path d="M57.9129 48.3439C57.9129 48.6461 58.0313 48.9359 58.242 49.1495C58.4527 49.3632 58.7385 49.4832 59.0365 49.4832C59.3345 49.4832 59.6203 49.3632 59.831 49.1495C60.0417 48.9359 60.1601 48.6461 60.1601 48.3439V36.4858H57.9129V48.3439Z" fill="white"/>
<path d="M31.6317 27.7355H20.8319C20.5425 27.7355 20.265 27.852 20.0605 28.0595C19.8559 28.2669 19.741 28.5483 19.741 28.8416V33.399C19.741 33.6924 19.8559 33.9737 20.0605 34.1812C20.265 34.3886 20.5425 34.5052 20.8319 34.5052H31.6317V48.3875C31.6317 48.6897 31.7501 48.9795 31.9608 49.1931C32.1716 49.4068 32.4573 49.5268 32.7553 49.5268C33.0533 49.5268 33.3392 49.4068 33.5499 49.1931C33.7606 48.9795 33.879 48.6897 33.879 48.3875V23.4657L31.6317 24.6382V27.7355ZM31.6317 32.2929H21.9882V30.0031H31.6317V32.2929Z" fill="white"/>
<path d="M29.1257 23.6653C29.3033 23.663 29.4782 23.6215 29.6384 23.5436L41.1364 17.504L52.6345 23.5436C52.7946 23.6215 52.9696 23.663 53.1472 23.6653C53.3542 23.6709 53.5585 23.6167 53.7362 23.509C53.9139 23.4013 54.0577 23.2445 54.1508 23.0569C54.2222 22.9223 54.2653 22.7742 54.2775 22.6219C54.2896 22.4695 54.2705 22.3163 54.2213 22.1718C54.1721 22.0273 54.0939 21.8948 53.9916 21.7825C53.8894 21.6702 53.7653 21.5806 53.6272 21.5194C53.6272 21.5194 42.2164 15.4576 42.1837 15.4134C41.4584 15.3367 40.7272 15.3367 40.0019 15.4134L28.5802 21.4972C28.3151 21.5804 28.0911 21.763 27.954 22.0077C27.8169 22.2524 27.777 22.5409 27.8424 22.8145C27.9077 23.088 28.0734 23.326 28.3058 23.48C28.5381 23.6339 28.8196 23.6923 29.0929 23.6432L29.1257 23.6653Z" fill="white"/>
</svg>
