<svg width="256" height="66" viewBox="0 0 256 66" fill="none" xmlns="http://www.w3.org/2000/svg">
<path d="M171.937 7.44958H120.597V58.6759H171.937V7.44958Z" fill="#AF89BD" stroke="white" stroke-width="0.5" stroke-miterlimit="10"/>
<path d="M223.277 7.44922H69.2585V58.6755H223.277V7.44922Z" fill="#AF89BD" stroke="white" stroke-width="0.5" stroke-miterlimit="10"/>
<path fill-rule="evenodd" clip-rule="evenodd" d="M171.94 7.44958H255.44L245.462 58.6869H171.94V7.44958Z" fill="#AF89BD"/>
<path fill-rule="evenodd" clip-rule="evenodd" d="M12.3988 1H84.1143L72.74 65.1352H0.769531L12.3988 1Z" fill="#AF89BD" stroke="white" stroke-width="0.5" stroke-miterlimit="10"/>
<path d="M93.3046 28.3789H91.542L93.8257 18.0468H95.6438L94.0031 25.5027L100.932 18.0468H102.794L100.522 28.3789H98.6592L100.389 20.6353L93.3046 28.3789Z" fill="white"/>
<path d="M106.555 28.5107C105.601 28.555 104.669 28.221 103.961 27.5814C103.63 27.2691 103.37 26.8889 103.2 26.4669C103.029 26.0449 102.952 25.5911 102.975 25.1367C102.959 24.5526 103.06 23.9714 103.272 23.4265C103.483 22.8815 103.8 22.3838 104.205 21.9618C104.593 21.5359 105.068 21.1973 105.597 20.9684C106.127 20.7396 106.699 20.6257 107.276 20.6344C107.852 20.5828 108.432 20.6895 108.951 20.943C109.471 21.1965 109.911 21.5871 110.225 22.0724L108.994 23.0017C108.825 22.7032 108.575 22.4579 108.274 22.2937C107.972 22.1294 107.63 22.0528 107.287 22.0724C106.922 22.0632 106.559 22.1372 106.227 22.2886C105.895 22.44 105.601 22.6649 105.369 22.9464C104.879 23.536 104.619 24.2824 104.637 25.0482C104.621 25.3205 104.664 25.5931 104.763 25.8472C104.863 26.1012 105.017 26.3306 105.214 26.5195C105.625 26.8825 106.162 27.0728 106.71 27.0504C107.037 27.0496 107.359 26.9768 107.655 26.8372C107.95 26.6976 108.21 26.4947 108.418 26.2429L109.316 27.3491C108.965 27.7273 108.537 28.0265 108.061 28.2267C107.585 28.427 107.072 28.5238 106.555 28.5107Z" fill="white"/>
<path d="M117.407 28.3785H115.433L113.793 25.2478L112.451 26.3541L112.019 28.3785H110.389L112.052 20.9004H113.682L112.884 24.4182L116.908 20.9004H119.003L115.123 24.2854L117.407 28.3785Z" fill="white"/>
<path d="M117.603 31.1883L118.146 29.7612C118.382 29.8547 118.636 29.8962 118.889 29.8829C119.097 29.8781 119.3 29.8182 119.477 29.7093C119.655 29.6005 119.8 29.4466 119.898 29.2634L120.486 28.3674L119.122 20.8451H120.829L121.76 26.4536L125.208 20.8451H127.004L121.461 29.6949C121.156 30.2043 120.748 30.645 120.264 30.9892C119.818 31.2538 119.307 31.388 118.789 31.3763C118.386 31.3829 117.985 31.3193 117.603 31.1883Z" fill="white"/>
<path d="M130.245 28.5112C129.288 28.5573 128.351 28.2232 127.64 27.582C127.31 27.2683 127.051 26.8879 126.881 26.4662C126.711 26.0445 126.633 25.5914 126.653 25.1372C126.641 24.5517 126.745 23.9695 126.961 23.4245C127.176 22.8795 127.497 22.3825 127.906 21.9624C128.291 21.5382 128.762 21.2005 129.287 20.9716C129.813 20.7428 130.381 20.628 130.955 20.6349C131.531 20.5821 132.111 20.6883 132.631 20.9419C133.151 21.1955 133.591 21.5868 133.903 22.073L132.673 23.0022C132.505 22.7028 132.255 22.4568 131.953 22.2925C131.651 22.1281 131.309 22.052 130.966 22.073C130.601 22.0646 130.238 22.1389 129.906 22.2903C129.574 22.4416 129.28 22.6661 129.048 22.9469C128.558 23.5365 128.298 24.283 128.316 25.0487C128.3 25.321 128.342 25.5937 128.442 25.8477C128.542 26.1018 128.695 26.3312 128.893 26.52C129.308 26.8848 129.848 27.0751 130.4 27.051C130.727 27.0502 131.049 26.9774 131.344 26.8378C131.64 26.6982 131.9 26.4952 132.108 26.2435L133.005 27.3497C132.653 27.7262 132.225 28.0242 131.75 28.2244C131.274 28.4245 130.761 28.5223 130.245 28.5112Z" fill="white"/>
<path d="M137.948 28.5107C136.994 28.555 136.062 28.221 135.354 27.5814C135.022 27.2691 134.763 26.8889 134.592 26.4669C134.422 26.0449 134.345 25.5911 134.367 25.1367C134.355 24.5511 134.46 23.9689 134.675 23.4239C134.89 22.8789 135.211 22.382 135.62 21.9618C136.004 21.5365 136.475 21.198 137 20.9691C137.526 20.7401 138.095 20.626 138.669 20.6344C139.245 20.5828 139.824 20.6895 140.344 20.943C140.864 21.1965 141.304 21.5871 141.618 22.0724L140.387 23.0017C140.218 22.7032 139.968 22.4579 139.666 22.2937C139.365 22.1294 139.023 22.0528 138.68 22.0724C138.315 22.0641 137.952 22.1383 137.62 22.2897C137.288 22.4411 136.995 22.6656 136.762 22.9464C136.272 23.536 136.012 24.2824 136.03 25.0482C136.014 25.3205 136.057 25.5931 136.156 25.8472C136.256 26.1012 136.409 26.3306 136.607 26.5195C137.018 26.8825 137.554 27.0728 138.103 27.0504C138.43 27.0496 138.752 26.9768 139.047 26.8372C139.343 26.6976 139.603 26.4947 139.811 26.2429L140.72 27.3491C140.366 27.727 139.936 28.0259 139.458 28.2261C138.981 28.4263 138.466 28.5233 137.948 28.5107Z" fill="white"/>
<path d="M144.776 28.3785H143.146L144.465 22.3274H142.326L142.658 20.9004H148.545L148.224 22.3274H146.006L144.776 28.3785Z" fill="white"/>
<path d="M153.19 28.3776H148.268L149.92 20.8995H154.354C154.855 20.8688 155.35 21.0267 155.74 21.342C155.906 21.4903 156.038 21.6731 156.126 21.8775C156.214 22.082 156.257 22.3032 156.25 22.5257C156.264 23.017 156.099 23.4967 155.784 23.8753C155.466 24.2374 155.038 24.486 154.565 24.5832C154.88 24.6993 155.15 24.9114 155.337 25.1895C155.524 25.4675 155.618 25.7973 155.607 26.1319C155.61 26.425 155.555 26.7157 155.444 26.9873C155.334 27.2588 155.171 27.5058 154.964 27.7138C154.732 27.9429 154.454 28.1205 154.148 28.2349C153.843 28.3493 153.516 28.3979 153.19 28.3776ZM150.208 26.9506H152.913C153.189 26.9587 153.457 26.864 153.667 26.6851C153.761 26.5954 153.835 26.4871 153.885 26.3671C153.935 26.247 153.959 26.118 153.955 25.9881C153.957 25.8871 153.936 25.7869 153.894 25.6949C153.852 25.603 153.789 25.5218 153.711 25.4572C153.514 25.3183 153.275 25.2518 153.035 25.2691H150.585L150.208 26.9506ZM150.895 23.8421H153.545C153.669 23.8468 153.793 23.8267 153.909 23.783C154.025 23.7393 154.131 23.6729 154.221 23.5876C154.306 23.509 154.373 23.4129 154.417 23.3059C154.461 23.199 154.481 23.0837 154.476 22.9682C154.476 22.5367 154.21 22.3265 153.656 22.3265H151.217L150.895 23.8421Z" fill="white"/>
<path d="M161.03 28.5099C160.551 28.5366 160.071 28.4682 159.618 28.3087C159.165 28.1492 158.748 27.9018 158.392 27.5807C158.07 27.2642 157.818 26.8844 157.652 26.4653C157.486 26.0463 157.41 25.5973 157.427 25.147C157.415 23.9805 157.856 22.8545 158.658 22.0053C159.033 21.5694 159.499 21.2207 160.024 20.9837C160.549 20.7467 161.119 20.6272 161.695 20.6336C162.176 20.606 162.657 20.675 163.11 20.8365C163.563 20.998 163.98 21.2488 164.334 21.5739C164.655 21.8904 164.907 22.2703 165.073 22.6893C165.239 23.1084 165.316 23.5573 165.298 24.0076C165.316 25.1818 164.875 26.3167 164.068 27.1714C163.689 27.6008 163.221 27.9428 162.696 28.1739C162.172 28.4051 161.603 28.5197 161.03 28.5099ZM161.03 27.0719C161.381 27.0758 161.728 26.9966 162.042 26.8408C162.356 26.6851 162.628 26.4572 162.837 26.1758C163.318 25.5905 163.574 24.8529 163.558 24.0961C163.587 23.558 163.404 23.0297 163.048 22.6248C162.856 22.4431 162.63 22.3022 162.382 22.2109C162.134 22.1196 161.87 22.0798 161.607 22.0938C161.256 22.0899 160.909 22.1691 160.595 22.3249C160.281 22.4806 160.008 22.7085 159.8 22.9899C159.329 23.5812 159.075 24.3148 159.079 25.0696C159.062 25.3355 159.1 25.602 159.189 25.853C159.279 26.104 159.419 26.3342 159.6 26.5298C159.793 26.7195 160.024 26.866 160.279 26.9594C160.533 27.0529 160.804 27.0912 161.074 27.0719H161.03Z" fill="white"/>
<path d="M93.1162 46.9056H91.542L93.1162 39.4386H94.7458L93.6372 44.4719L98.2158 39.4386H99.8454L98.2047 46.9167H96.575L97.6836 41.7395L93.1162 46.9056Z" fill="white"/>
<path d="M107.293 46.9054H105.663L106.982 40.8544H104.843L105.175 39.4274H111.095L110.774 40.8544H108.634L107.293 46.9054Z" fill="white"/>
<path d="M115.71 46.9066H110.788L112.44 39.4396H116.874C117.375 39.4089 117.87 39.5667 118.26 39.882C118.428 40.0288 118.561 40.2114 118.649 40.4162C118.738 40.621 118.779 40.8429 118.77 41.0657C118.784 41.5571 118.618 42.0368 118.304 42.4153C117.989 42.7754 117.565 43.0238 117.096 43.1233C117.409 43.2412 117.676 43.4541 117.861 43.732C118.046 44.0098 118.139 44.3386 118.127 44.672C118.13 44.965 118.075 45.2558 117.964 45.5273C117.854 45.7989 117.691 46.0458 117.484 46.2539C117.251 46.481 116.972 46.6565 116.667 46.769C116.361 46.8814 116.035 46.9283 115.71 46.9066ZM112.728 45.4795H115.433C115.708 45.4877 115.977 45.393 116.187 45.214C116.28 45.1236 116.353 45.0151 116.403 44.8953C116.453 44.7754 116.477 44.6468 116.475 44.5171C116.479 44.4157 116.459 44.3146 116.417 44.2223C116.375 44.13 116.311 44.0491 116.231 43.9861C116.037 43.8417 115.797 43.7711 115.555 43.787H113.072L112.728 45.4795ZM113.415 42.371H116.065C116.189 42.377 116.313 42.3575 116.429 42.3138C116.546 42.27 116.652 42.2029 116.741 42.1166C116.826 42.038 116.893 41.9419 116.937 41.8349C116.981 41.7279 117.001 41.6127 116.996 41.4971C116.996 41.0657 116.73 40.8555 116.176 40.8555H113.737L113.415 42.371Z" fill="white"/>
<path d="M123.547 47.0938C123.068 47.1205 122.588 47.0521 122.135 46.8926C121.682 46.7331 121.265 46.4857 120.909 46.1646C120.587 45.8481 120.335 45.4683 120.169 45.0492C120.003 44.6302 119.927 44.1812 119.944 43.7309C119.921 42.5491 120.362 41.4052 121.175 40.545C121.551 40.1113 122.018 39.7655 122.543 39.5323C123.068 39.299 123.638 39.184 124.212 39.1954C124.693 39.1677 125.174 39.2367 125.627 39.3983C126.081 39.5598 126.497 39.8106 126.851 40.1357C127.172 40.4522 127.424 40.832 127.59 41.2511C127.756 41.6701 127.833 42.1191 127.815 42.5694C127.826 43.7336 127.39 44.8577 126.596 45.7111C126.218 46.1476 125.75 46.4972 125.224 46.7359C124.697 46.9747 124.125 47.0967 123.547 47.0938ZM123.547 45.6557C123.898 45.6597 124.245 45.5805 124.559 45.4247C124.873 45.269 125.146 45.0411 125.354 44.7597C125.835 44.1744 126.091 43.4368 126.075 42.68C126.105 42.1419 125.921 41.6136 125.565 41.2087C125.374 41.027 125.147 40.8861 124.899 40.7948C124.651 40.7035 124.388 40.6637 124.124 40.6777C123.773 40.6738 123.426 40.753 123.112 40.9088C122.798 41.0645 122.525 41.2924 122.317 41.5738C121.842 42.1624 121.587 42.8978 121.596 43.6535C121.579 43.9194 121.617 44.1859 121.707 44.4369C121.796 44.6879 121.936 44.9181 122.117 45.1137C122.31 45.3034 122.542 45.4499 122.796 45.5433C123.05 45.6368 123.321 45.6751 123.592 45.6557H123.547Z" fill="white"/>
<path d="M132.905 47.0939C132.416 47.1223 131.928 47.0205 131.492 46.7989C131.055 46.5773 130.686 46.2438 130.421 45.8328L129.557 49.7599H127.927L130.222 39.4388H131.851L131.619 40.4233C131.897 40.0615 132.254 39.7678 132.663 39.5646C133.073 39.3614 133.523 39.2541 133.98 39.2507C134.365 39.2363 134.749 39.3016 135.108 39.4425C135.466 39.5834 135.792 39.7968 136.064 40.0693C136.615 40.6968 136.898 41.515 136.851 42.3482C136.862 43.5466 136.472 44.7145 135.743 45.6668C135.422 46.1171 134.995 46.4825 134.501 46.7312C134.006 46.9799 133.458 47.1043 132.905 47.0939ZM132.661 45.6558C133.006 45.6545 133.346 45.5728 133.654 45.4172C133.962 45.2617 134.229 45.0365 134.434 44.7597C134.906 44.161 135.156 43.419 135.144 42.6579C135.167 42.1288 134.979 41.6121 134.623 41.2198C134.453 41.0402 134.246 40.8989 134.016 40.8054C133.787 40.7119 133.54 40.6684 133.293 40.6778C132.9 40.6873 132.515 40.7932 132.173 40.9861C131.831 41.179 131.541 41.4531 131.33 41.784L130.687 44.6823C130.876 44.9914 131.149 45.2408 131.474 45.4013C131.842 45.5845 132.25 45.672 132.661 45.6558Z" fill="white"/>
<path d="M138.913 39.4386H140.543L140.099 41.4519C139.966 42.005 140.022 42.4033 140.266 42.6245C140.636 42.8959 141.095 43.0184 141.552 42.9675C142.133 42.9775 142.711 42.8838 143.259 42.6909L143.979 39.4386H145.598L143.957 46.9167H142.328L142.959 44.0073C142.255 44.2901 141.501 44.4256 140.742 44.4055C139.994 44.492 139.241 44.2814 138.647 43.8192C138.455 43.5694 138.328 43.2758 138.278 42.965C138.228 42.6542 138.255 42.3357 138.359 42.0382L138.913 39.4386Z" fill="white"/>
<path d="M150.156 47.0937C149.153 47.1509 148.164 46.8313 147.385 46.1977C147.045 45.8881 146.777 45.5076 146.601 45.0832C146.424 44.6588 146.344 44.2008 146.365 43.7419C146.335 42.5557 146.777 41.4059 147.596 40.5449C147.98 40.1176 148.453 39.7779 148.981 39.5489C149.509 39.3198 150.08 39.2068 150.655 39.2174C151.099 39.1899 151.544 39.2569 151.96 39.414C152.376 39.571 152.754 39.8145 153.068 40.1284C153.383 40.4422 153.627 40.8192 153.784 41.2343C153.941 41.6494 154.009 42.0931 153.981 42.5361C153.983 42.9096 153.934 43.2817 153.837 43.6423H148.039C148.036 43.6828 148.036 43.7235 148.039 43.764C148.035 43.8119 148.035 43.86 148.039 43.9078C148.042 44.1481 148.099 44.3846 148.204 44.6006C148.31 44.8167 148.461 45.0069 148.649 45.1579C149.117 45.544 149.716 45.7378 150.323 45.6999C151.043 45.7278 151.751 45.5092 152.329 45.0804L152.839 46.1866C152.071 46.778 151.127 47.0972 150.156 47.0937ZM148.183 42.5582H152.484C152.492 42.4847 152.492 42.4105 152.484 42.337C152.493 42.1029 152.452 41.8696 152.364 41.6523C152.276 41.4351 152.143 41.2387 151.974 41.0759C151.776 40.899 151.545 40.763 151.294 40.6757C151.043 40.5884 150.777 40.5514 150.511 40.567C149.945 40.5603 149.397 40.7701 148.981 41.1533C148.567 41.5206 148.286 42.0147 148.183 42.5582Z" fill="white"/>
<path d="M158.589 47.0941C157.636 47.1385 156.703 46.8044 155.995 46.1649C155.665 45.8512 155.407 45.4708 155.237 45.0491C155.066 44.6274 154.989 44.1743 155.009 43.7202C155.002 43.1315 155.114 42.5474 155.336 42.0023C155.559 41.4571 155.889 40.9618 156.306 40.5453C156.692 40.124 157.163 39.7896 157.689 39.5646C158.215 39.3395 158.782 39.2288 159.354 39.2399C159.931 39.1884 160.51 39.2951 161.03 39.5486C161.55 39.8021 161.99 40.1927 162.303 40.678L161.073 41.6073C160.903 41.3087 160.654 41.0635 160.352 40.8992C160.05 40.735 159.709 40.6584 159.365 40.678C159 40.6697 158.638 40.7439 158.306 40.8953C157.974 41.0467 157.68 41.2712 157.448 41.552C156.958 42.1416 156.698 42.888 156.716 43.6538C156.699 43.9261 156.742 44.1987 156.842 44.4528C156.941 44.7068 157.095 44.9362 157.292 45.1251C157.704 45.4881 158.24 45.6784 158.789 45.656C159.115 45.6552 159.438 45.5824 159.733 45.4428C160.028 45.3032 160.289 45.1003 160.496 44.8485L161.405 45.9547C161.045 46.3343 160.607 46.6324 160.121 46.8289C159.635 47.0255 159.113 47.1159 158.589 47.0941Z" fill="white"/>
<path d="M165.418 46.9054H163.788L165.108 40.8544H162.957L163.29 39.4274H169.21L168.888 40.8544H166.671L165.418 46.9054Z" fill="white"/>
<path d="M173.835 46.9066H168.913L170.564 39.4396H174.999C175.5 39.4089 175.994 39.5667 176.385 39.882C176.553 40.0288 176.686 40.2114 176.774 40.4162C176.862 40.621 176.904 40.8429 176.895 41.0657C176.909 41.5571 176.743 42.0368 176.429 42.4153C176.111 42.7775 175.682 43.0261 175.21 43.1233C175.524 43.2394 175.794 43.4515 175.981 43.7295C176.169 44.0075 176.263 44.3373 176.252 44.672C176.255 44.965 176.2 45.2558 176.089 45.5273C175.979 45.7989 175.815 46.0458 175.609 46.2539C175.376 46.481 175.097 46.6565 174.791 46.769C174.486 46.8814 174.16 46.9283 173.835 46.9066ZM170.853 45.4795H173.558C173.833 45.4877 174.102 45.393 174.312 45.214C174.405 45.1236 174.478 45.0151 174.528 44.8953C174.577 44.7754 174.602 44.6468 174.6 44.5171C174.602 44.416 174.581 44.3158 174.538 44.2239C174.496 44.132 174.434 44.0508 174.356 43.9861C174.161 43.8434 173.921 43.773 173.68 43.787H171.23L170.853 45.4795ZM171.54 42.371H174.19C174.314 42.3757 174.437 42.3557 174.554 42.312C174.67 42.2683 174.776 42.2019 174.866 42.1166C174.951 42.038 175.018 41.9419 175.062 41.8349C175.106 41.7279 175.126 41.6127 175.121 41.4971C175.121 41.0657 174.855 40.8555 174.3 40.8555H171.828L171.54 42.371Z" fill="white"/>
<path d="M181.672 47.0935C181.193 47.1201 180.713 47.0517 180.26 46.8922C179.807 46.7327 179.39 46.4853 179.034 46.1642C178.712 45.8478 178.46 45.4679 178.294 45.0489C178.128 44.6298 178.052 44.1808 178.069 43.7306C178.046 42.5488 178.487 41.4048 179.3 40.5446C179.676 40.1109 180.143 39.7652 180.668 39.5319C181.193 39.2986 181.763 39.1836 182.337 39.195C182.818 39.1674 183.299 39.2364 183.752 39.3979C184.206 39.5594 184.622 39.8102 184.976 40.1353C185.297 40.4518 185.549 40.8317 185.715 41.2507C185.881 41.6698 185.958 42.1187 185.94 42.569C185.951 43.7332 185.515 44.8573 184.721 45.7107C184.343 46.1472 183.875 46.4969 183.348 46.7356C182.822 46.9743 182.25 47.0964 181.672 47.0935ZM181.672 45.6554C182.023 45.6593 182.37 45.5801 182.684 45.4244C182.998 45.2686 183.271 45.0407 183.479 44.7593C183.96 44.174 184.216 43.4364 184.2 42.6796C184.229 42.1415 184.046 41.6132 183.69 41.2084C183.499 41.0266 183.272 40.8858 183.024 40.7945C182.776 40.7031 182.513 40.6633 182.249 40.6774C181.898 40.6734 181.551 40.7526 181.237 40.9084C180.923 41.0642 180.65 41.2921 180.442 41.5734C179.967 42.162 179.712 42.8974 179.721 43.6531C179.704 43.919 179.742 44.1855 179.832 44.4365C179.921 44.6875 180.061 44.9178 180.242 45.1133C180.435 45.303 180.667 45.4495 180.921 45.543C181.175 45.6364 181.446 45.6747 181.717 45.6554H181.672Z" fill="white"/>
<path d="M63.027 30.8669L58.3155 26.1658C56.3865 24.23 57.5727 22.1946 59.6791 22.073C63.149 21.8517 65.1001 18.1572 62.2621 15.082C59.1802 12.2613 55.4885 14.1971 55.2779 17.6594C55.1449 19.7611 53.0607 20.9779 51.165 19.031L46.5532 14.4405C45.8886 13.7819 44.99 13.4122 44.0533 13.4122C43.1166 13.4122 42.218 13.7819 41.5534 14.4405L36.8862 19.0974C34.9573 21.0221 32.9063 19.8275 32.7733 17.7258C32.5516 14.2635 28.8377 12.2834 25.7558 15.1152C22.9067 18.2014 24.8801 21.9181 28.35 22.1283C30.4674 22.261 31.6758 24.3406 29.7357 26.2432L25.0907 30.878C24.7612 31.2049 24.4997 31.5936 24.3213 32.0216C24.1429 32.4497 24.051 32.9088 24.051 33.3724C24.051 33.836 24.1429 34.2951 24.3213 34.7232C24.4997 35.1512 24.7612 35.5399 25.0907 35.8668L29.6913 40.4684C31.6314 42.3821 30.4785 44.3953 28.3721 44.528C24.9022 44.7382 22.9511 48.4217 25.7891 51.4968C28.871 54.3286 32.5516 52.4039 32.7733 48.9416C32.9063 46.8288 34.924 45.6231 36.8529 47.6032L41.498 52.238C42.1772 52.9114 43.0958 53.2894 44.0533 53.2894C45.0108 53.2894 45.9294 52.9114 46.6086 52.238L49.879 48.9969L51.2759 47.6032C53.1051 45.6895 51.9189 43.6873 49.8347 43.5546C46.3648 43.3444 44.4025 39.6277 47.2405 36.5526C50.3224 33.7208 54.0363 35.6898 54.258 39.1631C54.391 41.2427 56.3865 42.4153 58.2933 40.5901L59.5682 39.3291L62.9716 35.9221H63.027C63.3639 35.5925 63.6315 35.1993 63.8142 34.7653C63.9969 34.3313 64.091 33.8653 64.091 33.3945C64.091 32.9238 63.9969 32.4578 63.8142 32.0238C63.6315 31.5898 63.3639 31.1965 63.027 30.8669Z" fill="white"/>
</svg>
