<svg width="255" height="66" viewBox="0 0 255 66" fill="none" xmlns="http://www.w3.org/2000/svg">
<path d="M172.771 7.46057H122.206V58.6869H172.771V7.46057Z" fill="#FCE952"/>
<path d="M223.336 7.46045H71.6421V58.6867H223.336V7.46045Z" fill="#FCE952"/>
<path fill-rule="evenodd" clip-rule="evenodd" d="M172.771 7.46057H255L245.173 58.6869H172.771V7.46057Z" fill="#FCE952"/>
<path fill-rule="evenodd" clip-rule="evenodd" d="M11.785 1H82.4184L71.2158 65.1352H0.331177L11.785 1Z" fill="#FCE952" stroke="white" stroke-width="0.5" stroke-miterlimit="10"/>
<path d="M103.033 28.311H101.253L103.142 19.5834H97.8352L95.9463 28.311H94.1556L96.4048 17.9795H105.282L103.033 28.311Z" fill="black"/>
<path d="M104.233 31.1876L104.768 29.7606C104.999 29.8596 105.249 29.9049 105.499 29.8933C105.703 29.8841 105.902 29.8224 106.075 29.7141C106.249 29.6057 106.393 29.4542 106.493 29.2739L107.072 28.3669L105.729 20.845H107.388L108.305 26.4532L111.701 20.845H113.481L108.022 29.6942C107.721 30.2036 107.32 30.6443 106.842 30.9884C106.406 31.2603 105.902 31.3986 105.39 31.3867C104.996 31.3886 104.604 31.3213 104.233 31.1876Z" fill="black"/>
<path d="M115.797 28.3111H114.192L115.491 22.2604H113.384L113.711 20.8335H119.542L119.225 22.2604H117.042L115.797 28.3111Z" fill="black"/>
<path d="M123.264 28.5103C122.275 28.5675 121.302 28.2478 120.534 27.6143C120.199 27.3069 119.936 26.9284 119.762 26.5058C119.588 26.0832 119.509 25.6269 119.53 25.1697C119.507 23.9882 119.942 22.8447 120.742 21.9839C121.119 21.5581 121.583 21.2192 122.101 20.9902C122.619 20.7613 123.179 20.6475 123.744 20.6565C124.181 20.629 124.619 20.696 125.029 20.853C125.439 21.0101 125.811 21.2536 126.121 21.5674C126.43 21.8812 126.671 22.2582 126.826 22.6732C126.981 23.0883 127.047 23.5321 127.02 23.975C127.017 24.3482 126.969 24.7197 126.878 25.0812H121.2V25.2029C121.196 25.2507 121.196 25.2988 121.2 25.3467C121.204 25.5869 121.259 25.8234 121.363 26.0394C121.467 26.2554 121.616 26.4457 121.801 26.5966C122.26 26.9877 122.85 27.1856 123.449 27.1497C124.155 27.1742 124.848 26.9558 125.415 26.5302L125.928 27.6364C125.159 28.216 124.222 28.5231 123.264 28.5103ZM121.32 23.975H125.568C125.575 23.9015 125.575 23.8273 125.568 23.7538C125.576 23.5197 125.535 23.2864 125.449 23.0691C125.362 22.8519 125.232 22.6555 125.065 22.4928C124.869 22.3179 124.641 22.1839 124.394 22.0985C124.146 22.0131 123.885 21.9779 123.624 21.995C123.066 21.9883 122.527 22.1981 122.117 22.5813C121.703 22.9407 121.422 23.4322 121.32 23.975Z" fill="black"/>
<path d="M137.787 20.8446H139.393L137.766 28.3111H127.753L129.38 20.8335H131.029L129.708 26.8842H132.306L133.627 20.8335H135.232L133.911 26.8842H136.488L137.787 20.8446Z" fill="black"/>
<path d="M143.871 28.5109C142.883 28.5681 141.909 28.2485 141.141 27.6149C140.807 27.3075 140.543 26.929 140.369 26.5064C140.196 26.0838 140.116 25.6276 140.137 25.1703C140.114 23.9866 140.554 22.8416 141.36 21.9845C141.736 21.557 142.199 21.2169 142.718 20.9878C143.236 20.7587 143.797 20.6459 144.362 20.6572C144.794 20.6387 145.225 20.7097 145.628 20.8656C146.032 21.0216 146.4 21.2593 146.71 21.5642C147.015 21.8822 147.253 22.2603 147.409 22.675C147.565 23.0897 147.636 23.5323 147.616 23.9756C147.619 24.3492 147.571 24.7213 147.474 25.0818H141.764C141.761 25.1223 141.761 25.163 141.764 25.2035C141.76 25.2513 141.76 25.2994 141.764 25.3473C141.767 25.5875 141.823 25.824 141.927 26.04C142.03 26.2561 142.18 26.4463 142.364 26.5972C142.825 26.9864 143.414 27.184 144.013 27.1503C144.722 27.1729 145.417 26.9549 145.989 26.5309L146.492 27.637C145.737 28.2118 144.816 28.5189 143.871 28.5109ZM141.928 23.9756H146.164C146.172 23.9021 146.172 23.8279 146.164 23.7544C146.172 23.5203 146.132 23.287 146.045 23.0698C145.959 22.8525 145.828 22.6561 145.662 22.4934C145.466 22.3185 145.237 22.1845 144.99 22.0991C144.743 22.0137 144.481 21.9785 144.221 21.9956C143.663 21.9889 143.124 22.1987 142.714 22.5819C142.312 22.9463 142.042 23.4373 141.949 23.9756H141.928Z" fill="black"/>
<path d="M152.178 28.5106C151.241 28.5532 150.324 28.2238 149.623 27.5925C149.299 27.2759 149.045 26.8933 148.878 26.4701C148.71 26.0468 148.633 25.5924 148.651 25.1368C148.639 24.5513 148.742 23.9691 148.954 23.4242C149.166 22.8792 149.482 22.3823 149.885 21.9622C150.267 21.5431 150.732 21.2103 151.249 20.9854C151.766 20.7605 152.325 20.6486 152.888 20.6569C153.455 20.6065 154.025 20.7138 154.537 20.9672C155.049 21.2206 155.483 21.6104 155.792 22.0949L154.58 23.0241C154.414 22.7247 154.169 22.4787 153.871 22.3143C153.574 22.15 153.237 22.0739 152.899 22.0949C152.539 22.0865 152.182 22.1608 151.855 22.3121C151.528 22.4635 151.239 22.688 151.01 22.9688C150.527 23.5583 150.271 24.3048 150.289 25.0705C150.273 25.3427 150.315 25.6153 150.413 25.8694C150.511 26.1234 150.663 26.3528 150.857 26.5417C151.262 26.9047 151.79 27.0949 152.331 27.0726C152.653 27.0718 152.97 26.999 153.261 26.8594C153.551 26.7198 153.808 26.5169 154.012 26.2651L154.908 27.3713C154.557 27.7451 154.133 28.0399 153.663 28.2362C153.193 28.4325 152.687 28.526 152.178 28.5106Z" fill="black"/>
<path d="M158.901 28.3111H157.296L158.595 22.2604H156.488L156.815 20.8335H162.69L162.373 22.2604H160.244L158.901 28.3111Z" fill="black"/>
<path d="M167.191 28.3113H162.343L163.97 20.8336H168.338C168.833 20.8004 169.323 20.9629 169.703 21.2871C169.868 21.4317 169.999 21.6122 170.086 21.8152C170.173 22.0183 170.214 22.2385 170.205 22.4597C170.219 22.951 170.056 23.4307 169.746 23.8092C169.436 24.1693 169.018 24.4177 168.556 24.5171C168.864 24.635 169.128 24.8479 169.31 25.1258C169.492 25.4036 169.584 25.7324 169.572 26.0657C169.575 26.3588 169.52 26.6495 169.412 26.921C169.303 27.1926 169.142 27.4395 168.938 27.6476C168.71 27.8766 168.436 28.0542 168.135 28.1686C167.834 28.2829 167.512 28.3316 167.191 28.3113ZM164.254 26.8843H166.918C167.19 26.8924 167.455 26.7978 167.661 26.6188C167.753 26.5313 167.826 26.425 167.875 26.3068C167.924 26.1885 167.948 26.0612 167.945 25.933C167.95 25.8298 167.931 25.7269 167.889 25.6327C167.847 25.5385 167.784 25.4556 167.704 25.391C167.508 25.2569 167.275 25.1909 167.038 25.2029H164.625L164.254 26.8843ZM164.931 23.776H167.541C167.786 23.786 168.025 23.6987 168.207 23.5326C168.29 23.4536 168.355 23.3574 168.399 23.2505C168.442 23.1437 168.462 23.0286 168.458 22.9132C168.458 22.4707 168.196 22.2605 167.65 22.2605H165.248L164.931 23.776Z" fill="black"/>
<path d="M172.642 28.3111H171.092L172.708 20.8335H174.324L173.232 25.8665L177.72 20.8335H179.325L177.698 28.3111H176.093L177.185 23.1454L172.642 28.3111Z" fill="black"/>
<path d="M181.428 28.3116H179.517L182.007 25.4356C181.608 25.3146 181.26 25.0611 181.021 24.716C180.781 24.371 180.663 23.9543 180.685 23.533C180.681 23.1792 180.748 22.8283 180.881 22.5014C181.014 22.1744 181.211 21.8781 181.461 21.6304C181.728 21.3616 182.047 21.152 182.399 21.0149C182.75 20.8778 183.126 20.8162 183.502 20.8339H187.87L186.265 28.3116H184.66L185.249 25.6015H183.622L181.428 28.3116ZM183.35 24.1745H185.533L185.937 22.2609H183.47C183.316 22.2494 183.161 22.2711 183.016 22.3245C182.872 22.3779 182.739 22.4618 182.629 22.5706C182.521 22.6692 182.436 22.7907 182.379 22.9264C182.322 23.0621 182.296 23.2087 182.301 23.356C182.296 23.4721 182.318 23.5878 182.365 23.6937C182.413 23.7995 182.484 23.8923 182.574 23.9644C182.799 24.1289 183.073 24.2073 183.35 24.1856V24.1745Z" fill="black"/>
<path d="M95.6507 46.9066H94.1111L95.7271 39.429H97.3322L96.2403 44.462L100.739 39.429H102.344L100.728 46.9066H99.1119L100.204 41.7408L95.6507 46.9066Z" fill="black"/>
<path d="M109.669 46.9062H108.097L109.396 40.8555H107.256L107.573 39.4286H113.414L113.098 40.8555H110.914L109.669 46.9062Z" fill="black"/>
<path d="M112.185 49.7712L112.72 48.3442C112.951 48.4432 113.201 48.4886 113.452 48.477C113.657 48.4677 113.856 48.4048 114.031 48.2943C114.205 48.1838 114.348 48.0295 114.445 47.8465L115.024 46.9505L113.681 39.4286H115.341L116.258 45.0368L119.654 39.4286H121.433L115.974 48.2779C115.673 48.7872 115.272 49.2279 114.795 49.5721C114.359 49.844 113.854 49.9823 113.343 49.9703C112.948 49.9723 112.557 49.9049 112.185 49.7712Z" fill="black"/>
<path d="M125.076 47.1163C124.596 47.1459 124.116 47.0458 123.686 46.8262C123.257 46.6066 122.892 46.2754 122.63 45.8664L121.779 49.7822H120.173L122.434 39.4506H124.039L123.809 40.4462C124.083 40.083 124.435 39.7876 124.837 39.5825C125.24 39.3775 125.684 39.268 126.135 39.2626C126.513 39.2477 126.89 39.3128 127.241 39.4537C127.593 39.5947 127.912 39.8084 128.177 40.0811C128.45 40.3897 128.66 40.7499 128.795 41.1409C128.93 41.532 128.987 41.9463 128.963 42.3598C128.974 43.5582 128.589 44.726 127.871 45.6783C127.556 46.13 127.136 46.4969 126.649 46.7475C126.162 46.998 125.622 47.1246 125.076 47.1163ZM124.836 45.6783C125.176 45.677 125.511 45.5954 125.814 45.4398C126.117 45.2843 126.381 45.0591 126.583 44.7823C127.051 44.1902 127.298 43.4501 127.282 42.6917C127.306 42.159 127.121 41.6383 126.768 41.2426C126.599 41.0647 126.396 40.9245 126.17 40.8312C125.944 40.7378 125.702 40.6933 125.458 40.7006C125.07 40.714 124.692 40.8214 124.353 41.0139C124.015 41.2064 123.728 41.4783 123.515 41.8068L122.892 44.7049C123.078 45.0174 123.346 45.2704 123.668 45.435C124.034 45.6019 124.435 45.6778 124.836 45.6562V45.6783Z" fill="black"/>
<path d="M131.183 46.9066H129.633L131.26 39.429H132.865L131.773 44.462L136.272 39.429H137.866L136.25 46.9066H134.634L135.726 41.7408L131.183 46.9066Z" fill="black"/>
<path d="M142.582 39.2399C144.667 39.2399 145.705 39.8814 145.705 41.1646C145.706 41.4564 145.632 41.7434 145.49 41.9975C145.348 42.2516 145.144 42.4639 144.897 42.6136C144.401 42.9588 143.825 43.1683 143.226 43.222C143.659 43.2758 144.067 43.4522 144.405 43.7309C144.559 43.8482 144.684 44.0003 144.769 44.1751C144.854 44.3499 144.898 44.5425 144.897 44.7375C144.88 45.091 144.769 45.4335 144.577 45.7292C144.385 46.0249 144.119 46.263 143.805 46.4188C143.043 46.8873 142.163 47.1217 141.272 47.0936C140.597 47.1073 139.927 46.9909 139.295 46.7507C138.78 46.5723 138.318 46.264 137.952 45.8547L138.913 44.8592C139.226 45.1658 139.598 45.4044 140.006 45.5603C140.413 45.7163 140.848 45.7864 141.283 45.7662C141.76 45.7806 142.232 45.662 142.648 45.4233C142.807 45.357 142.945 45.2477 143.047 45.1072C143.149 44.9668 143.211 44.8006 143.226 44.6269C143.226 44.0627 142.735 43.7751 141.741 43.7751H139.972L140.256 42.4809H141.829C143.237 42.4809 143.947 42.1159 143.947 41.3747C143.947 40.6336 143.434 40.5562 142.418 40.5562C141.436 40.5625 140.479 40.8753 139.678 41.4522L139.022 40.346C140.051 39.5785 141.306 39.1884 142.582 39.2399Z" fill="black"/>
<path d="M154.35 46.9066H152.745L153.837 41.7076L150.561 46.9066H149.917L148.825 41.7076L147.733 46.9066H146.128L147.744 39.429H149.764L150.758 44.2629L153.826 39.429H156.01L154.35 46.9066Z" fill="black"/>
<path d="M65.7806 44.0962V45.7775H61.5878C62.3302 47.4036 62.1664 48.6757 61.1073 49.5717C60.6529 49.9536 60.0896 50.1779 59.5001 50.2117C58.9105 50.2456 58.3258 50.0872 57.8317 49.7597C57.3182 49.4286 56.9327 48.9287 56.7398 48.3438C56.5977 47.9216 56.5553 47.4715 56.616 47.0297C56.6767 46.5879 56.8388 46.1666 57.0892 45.7997H54.032C54.0792 46.8865 53.7141 47.9504 53.0116 48.7732C52.3091 49.596 51.3225 50.1152 50.2541 50.2243C49.229 50.3303 48.2025 50.0377 47.3824 49.4058C46.8224 48.998 46.3728 48.4539 46.0751 47.8237C45.7774 47.1934 45.6412 46.4973 45.6791 45.7997H44.1614C44.1905 46.3765 44.1034 46.9532 43.9055 47.4948C43.7077 48.0365 43.4031 48.5317 43.0104 48.9503C42.6177 49.3689 42.1451 49.7023 41.6212 49.9301C41.0973 50.1579 40.5332 50.2754 39.9631 50.2754C39.3931 50.2754 38.829 50.1579 38.3051 49.9301C37.7812 49.7023 37.3086 49.3689 36.9159 48.9503C36.5232 48.5317 36.2186 48.0365 36.0208 47.4948C35.8229 46.9532 35.7358 46.3765 35.7649 45.7997H34.3018C34.3447 46.9015 33.9652 47.9775 33.2426 48.8023C32.5201 49.627 31.5106 50.1366 30.4256 50.2243C29.8997 50.2738 29.3694 50.2171 28.8652 50.0576C28.3611 49.8981 27.8931 49.639 27.4885 49.2951C26.9701 48.88 26.5578 48.3448 26.2861 47.7346C26.0144 47.1244 25.8913 46.457 25.9271 45.7886H23.0664C23.5795 47.0165 23.5905 47.0496 23.514 47.8018C23.4844 48.1487 23.3848 48.4858 23.2214 48.7921C23.058 49.0985 22.8343 49.3675 22.5641 49.5827C22.1005 49.9751 21.5227 50.2027 20.9193 50.2307C20.3158 50.2586 19.72 50.0854 19.223 49.7376C18.6986 49.3837 18.3125 48.8556 18.1311 48.2443C18.0164 47.8281 17.9961 47.391 18.0717 46.9658C18.1473 46.5405 18.317 46.1381 18.5678 45.7886H16.264V44.0741H18.9063V40.8994H21.5923C21.5543 40.8436 21.5214 40.7843 21.4941 40.7224C20.6206 39.2844 19.758 37.8353 18.8736 36.3973C18.8239 36.3345 18.7969 36.2565 18.7969 36.1761C18.7969 36.0957 18.8239 36.0176 18.8736 35.9549C19.7543 34.5611 20.6315 33.16 21.505 31.7514C21.5472 31.7046 21.6002 31.669 21.6592 31.6478C21.7183 31.6266 21.7815 31.6204 21.8435 31.6298H25.3484C25.2501 30.5236 25.1518 29.5612 25.0536 28.5436H24.7588V25.2804H26.3638C26.3638 25.1809 26.3638 25.1366 26.2983 25.0813C25.9778 24.3178 25.8756 23.4783 26.0035 22.6588C26.1236 21.9509 26.3202 21.265 26.4184 20.5571C26.4895 20.0618 26.685 19.5933 26.9862 19.1965C27.5922 18.3827 28.3307 17.6794 29.17 17.1169C29.7596 16.7187 29.8032 16.5639 29.7268 15.8449C29.6557 15.3386 29.6557 14.8246 29.7268 14.3184C29.9473 13.3575 30.3887 12.463 31.0152 11.7078C31.4944 10.9588 32.208 10.3946 33.0416 10.1058C33.8752 9.81693 34.7804 9.82016 35.612 10.115C36.8497 10.5169 38.0204 11.1062 39.0842 11.8627C39.5403 12.1902 40.0558 12.4233 40.601 12.5486C41.1463 12.6739 41.7106 12.6889 42.2615 12.5928L44.9039 12.1171C45.7186 11.9071 46.5779 11.9612 47.3606 12.272C47.8782 12.5472 48.3746 12.8615 48.8456 13.2122C49.1466 13.461 49.5076 13.6239 49.8915 13.6842C50.2753 13.7444 50.6681 13.6999 51.0293 13.5551C51.4058 13.4235 51.771 13.2607 52.1212 13.0684C52.5537 12.7482 53.0654 12.5559 53.5994 12.5129C54.1334 12.4699 54.6687 12.578 55.1457 12.825C55.4158 12.9574 55.6782 13.1051 55.9318 13.2675C56.6353 13.68 57.2163 14.2765 57.6139 14.9947C58.0116 15.7128 58.2113 16.5261 58.192 17.3492C58.1715 18.4894 57.8182 19.598 57.1766 20.535C56.9066 20.9829 56.5177 21.3449 56.0543 21.5796C55.591 21.8143 55.0718 21.9123 54.5561 21.8624C53.9992 21.8071 53.4642 21.619 52.9073 21.5195C52.7693 21.4917 52.6402 21.4296 52.5315 21.3389C52.4229 21.2482 52.3382 21.1316 52.285 20.9996C52.175 20.7148 51.9682 20.4793 51.702 20.3353C51.4357 20.1913 51.1275 20.1484 50.8328 20.2142C50.559 20.2411 50.2905 20.3082 50.0357 20.4133C49.4352 20.6677 48.8674 20.9774 48.2669 21.2429C47.4669 21.6585 46.578 21.8675 45.6791 21.8513C44.4294 21.7487 43.2424 21.2537 42.2834 20.4354C42.0685 20.2131 41.8019 20.0489 41.5081 19.9581C41.2143 19.8673 40.9027 19.8526 40.6019 19.9155C39.9992 20.0626 39.405 20.2435 38.8221 20.4576C37.8831 20.8115 36.9878 21.2429 36.0597 21.5637C35.5247 21.7873 34.9473 21.8875 34.3694 21.8568C33.7915 21.8262 33.2276 21.6656 32.7185 21.3867C32.4713 21.2491 32.2011 21.1591 31.9215 21.1212C31.6014 21.0936 31.2795 21.1445 30.983 21.2696C30.6865 21.3948 30.4241 21.5905 30.2182 21.8403C29.4861 22.655 28.9614 23.6384 28.6895 24.7052C28.6895 24.8379 28.6022 24.9707 28.5585 25.1477H29.4866V28.4108H29.0608C28.9407 29.4396 28.8315 30.4462 28.7114 31.4638H35.481V29.9595H49.8282V31.4638H51.4333V29.9595H64.7214V32.2492H58.0173C58.0173 32.3156 58.0173 32.3598 58.0173 32.4041C58.0173 33.82 58.0173 35.2359 58.0173 36.6407C58.0173 36.9504 58.1047 36.9836 58.3558 36.9836C59.4477 36.9836 60.5396 36.9836 61.7297 36.9836V44.0188H65.8024L65.7806 44.0962Z" fill="white"/>
</svg>
