<svg width="256" height="65" viewBox="0 0 256 65" fill="none" xmlns="http://www.w3.org/2000/svg">
<path d="M173.51 6.88257H122.99V58.1089H173.51V6.88257Z" fill="#F3B1D1" stroke="white" stroke-width="0.5" stroke-miterlimit="10"/>
<path d="M224.033 6.88245H72.4748V58.1087H224.033V6.88245Z" fill="#F3B1D1"/>
<path fill-rule="evenodd" clip-rule="evenodd" d="M173.514 6.88269H255.669L245.851 58.109H173.514V6.88269Z" fill="#F3B1D1"/>
<path fill-rule="evenodd" clip-rule="evenodd" d="M12.4435 0.422119H83.0135L71.8209 64.5573H1L12.4435 0.422119Z" fill="#F3B1D1" stroke="white" stroke-width="0.5" stroke-miterlimit="10"/>
<path d="M97.2893 27.734H92.1075L94.3439 17.4025H98.9911C99.7033 17.3685 100.4 17.6186 100.933 18.0994C101.176 18.3152 101.368 18.5829 101.496 18.8832C101.624 19.1835 101.685 19.5089 101.675 19.836C101.683 20.5175 101.437 21.1771 100.987 21.6833C100.569 22.1792 99.98 22.4954 99.3402 22.5682C99.7866 22.6852 100.175 22.9648 100.431 23.3536C100.7 23.7376 100.842 24.1988 100.835 24.6699C100.847 25.0816 100.773 25.4913 100.619 25.8724C100.465 26.2535 100.234 26.5975 99.9401 26.8823C99.577 27.197 99.1553 27.4345 98.6999 27.5808C98.2446 27.7271 97.7649 27.7792 97.2893 27.734ZM97.202 26.1411C97.4438 26.155 97.686 26.12 97.9144 26.0384C98.1429 25.9568 98.3531 25.83 98.5329 25.6655C98.6855 25.5253 98.8078 25.3547 98.8923 25.1644C98.9767 24.974 99.0215 24.768 99.0238 24.5593C99.0347 24.3921 99.0079 24.2245 98.9455 24.0693C98.8832 23.9141 98.7868 23.7753 98.6638 23.6633C98.3906 23.4205 98.0337 23.2972 97.6711 23.3204H94.8457L94.2239 26.1854L97.202 26.1411ZM98.1184 21.7165C98.3473 21.7357 98.5775 21.7052 98.7939 21.627C99.0102 21.5488 99.2076 21.4247 99.3729 21.263C99.6391 20.9591 99.7797 20.563 99.7656 20.1568C99.7638 20.0043 99.7308 19.8539 99.6689 19.7149C99.6069 19.576 99.5173 19.4515 99.4056 19.3493C99.1591 19.1287 98.8398 19.0103 98.5111 19.0175H95.7838L95.2057 21.6944L98.1184 21.7165Z" fill="white"/>
<path d="M105.782 27.9328C105.31 27.9607 104.837 27.8929 104.392 27.7333C103.946 27.5738 103.536 27.3257 103.186 27.0036C102.868 26.688 102.62 26.3083 102.456 25.8891C102.293 25.4698 102.218 25.0205 102.237 24.5701C102.226 23.4059 102.656 22.2819 103.437 21.4286C103.81 20.9964 104.272 20.6518 104.79 20.4188C105.308 20.1857 105.87 20.0698 106.436 20.0791C106.909 20.0527 107.382 20.1222 107.828 20.2837C108.274 20.4451 108.684 20.6952 109.033 21.0193C109.348 21.3363 109.594 21.7165 109.755 22.1356C109.917 22.5547 109.99 23.0033 109.971 23.4528C109.988 24.6182 109.558 25.7447 108.771 26.5943C108.399 27.0248 107.939 27.3677 107.423 27.5989C106.906 27.8301 106.346 27.944 105.782 27.9328ZM105.782 26.4948C106.127 26.4987 106.468 26.4196 106.777 26.2638C107.087 26.108 107.355 25.8801 107.56 25.5988C108.031 25.0121 108.282 24.2755 108.269 23.5192C108.283 23.2536 108.245 22.9877 108.157 22.7371C108.069 22.4865 107.933 22.256 107.756 22.0591C107.571 21.872 107.349 21.7269 107.105 21.6335C106.86 21.54 106.599 21.5004 106.338 21.5171C105.992 21.5144 105.65 21.5953 105.341 21.753C105.032 21.9107 104.764 22.1408 104.56 22.4241C104.093 23.0084 103.842 23.7403 103.851 24.4926C103.837 24.7583 103.875 25.0241 103.963 25.2747C104.051 25.5254 104.187 25.7558 104.364 25.9528C104.554 26.1451 104.783 26.2932 105.036 26.3868C105.288 26.4804 105.558 26.5172 105.826 26.4948H105.782Z" fill="white"/>
<path d="M109.894 27.9328L110.189 26.6054C110.376 26.5882 110.556 26.5221 110.711 26.4136C110.866 26.305 110.99 26.1577 111.072 25.9859C111.462 25.3343 111.77 24.6356 111.988 23.9063L113.232 20.2671H118.927L117.312 27.7337H115.708L116.996 21.683H114.323L113.548 24.0833C113.262 25.1608 112.74 26.1589 112.021 27.0036C111.749 27.2993 111.42 27.5346 111.054 27.6946C110.688 27.8545 110.293 27.9356 109.894 27.9328Z" fill="white"/>
<path d="M123.203 27.9321C122.731 27.9587 122.259 27.8903 121.813 27.7308C121.368 27.5714 120.958 27.324 120.607 27.0029C120.29 26.6873 120.041 26.3075 119.878 25.8883C119.714 25.4691 119.639 25.0198 119.658 24.5693C119.646 23.4028 120.08 22.277 120.869 21.4279C121.24 20.9953 121.699 20.6504 122.216 20.4173C122.732 20.1841 123.293 20.0685 123.858 20.0783C124.331 20.0507 124.804 20.1197 125.25 20.2812C125.696 20.4427 126.106 20.6935 126.454 21.0186C126.77 21.335 127.018 21.7149 127.182 22.1339C127.345 22.5529 127.421 23.0019 127.403 23.4521C127.416 24.6188 126.982 25.7451 126.192 26.5936C125.821 27.0247 125.361 27.368 124.844 27.5992C124.328 27.8305 123.768 27.9441 123.203 27.9321ZM123.203 26.4941C123.548 26.498 123.89 26.4188 124.199 26.2631C124.508 26.1073 124.776 25.8794 124.981 25.5981C125.456 25.0137 125.708 24.2755 125.69 23.5185C125.707 23.2526 125.67 22.9861 125.582 22.7351C125.494 22.4841 125.356 22.2539 125.178 22.0584C124.994 21.8721 124.774 21.7275 124.532 21.6341C124.289 21.5406 124.03 21.5005 123.771 21.5163C123.424 21.5137 123.083 21.5946 122.774 21.7523C122.464 21.91 122.197 22.14 121.992 22.4234C121.521 23.0053 121.269 23.7388 121.283 24.4919C121.267 24.7578 121.304 25.0243 121.392 25.2753C121.48 25.5263 121.618 25.7565 121.796 25.952C121.984 26.1441 122.212 26.2922 122.462 26.3858C122.713 26.4794 122.981 26.5164 123.247 26.4941H123.203Z" fill="white"/>
<path d="M129.735 27.7333H128.132L129.812 20.2556H131.415L130.772 23.1206H134.164L134.808 20.2556H136.412L134.732 27.7333H133.128L133.848 24.5475H130.455L129.735 27.7333Z" fill="white"/>
<path d="M139.741 27.7333H138.137L139.435 21.6826H137.33L137.646 20.2556H143.482L143.166 21.6826H141.039L139.741 27.7333Z" fill="white"/>
<path d="M147.189 27.9329C146.202 27.988 145.23 27.6686 144.462 27.0369C144.129 26.729 143.867 26.3501 143.695 25.9274C143.524 25.5048 143.446 25.0488 143.469 24.5923C143.447 23.4108 143.881 22.2674 144.68 21.4066C145.056 20.9796 145.519 20.64 146.037 20.4109C146.555 20.1818 147.115 20.0687 147.68 20.0792C148.117 20.0499 148.556 20.1156 148.966 20.272C149.376 20.4284 149.748 20.6718 150.058 20.986C150.368 21.3002 150.608 21.6779 150.762 22.0938C150.917 22.5098 150.981 22.9543 150.953 23.3977C150.953 23.7704 150.909 24.1418 150.822 24.5038H145.105C145.109 24.5443 145.109 24.585 145.105 24.6255V24.7693C145.109 25.0084 145.163 25.2439 145.265 25.4596C145.367 25.6753 145.513 25.8663 145.694 26.0193C146.155 26.4074 146.744 26.6049 147.342 26.5723C148.05 26.5967 148.745 26.3785 149.316 25.9529L149.818 27.0591C149.061 27.6377 148.137 27.9451 147.189 27.9329ZM145.247 23.3977H149.48C149.49 23.3243 149.49 23.2498 149.48 23.1764C149.485 22.9427 149.444 22.7102 149.357 22.4933C149.271 22.2765 149.142 22.0798 148.978 21.9154C148.782 21.7405 148.554 21.6065 148.307 21.5211C148.06 21.4357 147.799 21.4005 147.538 21.4176C146.981 21.4109 146.442 21.6207 146.033 22.0039C145.624 22.3662 145.348 22.857 145.247 23.3977Z" fill="white"/>
<path d="M155.961 27.933C155.481 27.9638 155.002 27.8642 154.572 27.6445C154.143 27.4248 153.779 27.0929 153.518 26.6831L152.656 30.5989H151.052L153.321 20.2673H154.925L154.696 21.2629C154.966 20.8987 155.315 20.6024 155.716 20.3972C156.117 20.1919 156.559 20.0831 157.009 20.0793C157.388 20.0628 157.766 20.1272 158.12 20.2682C158.473 20.4092 158.793 20.6237 159.059 20.8979C159.33 21.2073 159.538 21.5678 159.671 21.9589C159.804 22.3499 159.859 22.7637 159.834 23.1765C159.85 24.3758 159.465 25.5451 158.743 26.495C158.429 26.9458 158.012 27.3123 157.528 27.5629C157.043 27.8134 156.505 27.9405 155.961 27.933ZM155.71 26.495C156.052 26.4955 156.389 26.4146 156.694 26.259C156.999 26.1034 157.264 25.8773 157.467 25.599C157.924 25.0019 158.166 24.2643 158.154 23.5084C158.182 22.9771 158.002 22.4561 157.652 22.0593C157.482 21.8835 157.278 21.7448 157.053 21.6516C156.828 21.5584 156.586 21.5127 156.343 21.5173C155.956 21.5307 155.577 21.6381 155.239 21.8306C154.901 22.0231 154.614 22.295 154.401 22.6235L153.779 25.5216C153.964 25.8311 154.228 26.0835 154.543 26.2517C154.908 26.425 155.308 26.5084 155.71 26.495Z" fill="white"/>
<path d="M164.328 27.9327C163.389 27.9735 162.471 27.6445 161.765 27.0146C161.443 26.6969 161.191 26.314 161.026 25.8908C160.861 25.4676 160.785 25.0137 160.805 24.5589C160.791 23.9741 160.893 23.3924 161.102 22.8475C161.312 22.3026 161.626 21.8052 162.027 21.3842C162.409 20.9657 162.873 20.6333 163.39 20.4084C163.907 20.1836 164.464 20.0713 165.027 20.0789C165.594 20.0274 166.164 20.1341 166.675 20.3876C167.187 20.641 167.62 21.0316 167.928 21.5169L166.728 22.4461C166.562 22.1476 166.316 21.9024 166.019 21.7381C165.722 21.5739 165.386 21.4973 165.048 21.5169C164.689 21.5077 164.332 21.5817 164.005 21.7331C163.678 21.8845 163.39 22.1094 163.161 22.3908C162.676 22.9793 162.416 23.7256 162.43 24.4925C162.416 24.7655 162.46 25.0384 162.56 25.2924C162.66 25.5464 162.813 25.7754 163.009 25.9637C163.413 26.3267 163.941 26.517 164.481 26.4947C164.803 26.4986 165.122 26.4279 165.413 26.288C165.704 26.148 165.96 25.9426 166.161 25.6872L167.045 26.7933C166.697 27.1675 166.276 27.4625 165.807 27.6589C165.339 27.8553 164.835 27.9486 164.328 27.9327Z" fill="white"/>
<path d="M171.048 27.7333H169.401L170.699 21.6826H168.638L168.954 20.2556H174.79L174.474 21.6826H172.347L171.048 27.7333Z" fill="white"/>
<path d="M179.329 27.7337H174.486L176.1 20.2561H180.464C180.959 20.2285 181.445 20.3904 181.828 20.7096C181.99 20.8563 182.118 21.0374 182.203 21.2401C182.287 21.4428 182.327 21.6621 182.319 21.8821C182.332 22.3735 182.17 22.8531 181.86 23.2317C181.55 23.5918 181.133 23.8402 180.671 23.9396C180.981 24.0557 181.247 24.2678 181.431 24.5458C181.615 24.8238 181.708 25.1536 181.697 25.4882C181.698 25.782 181.642 26.0732 181.532 26.3448C181.421 26.6164 181.259 26.8629 181.053 27.07C180.828 27.2974 180.558 27.474 180.261 27.5884C179.964 27.7027 179.647 27.7523 179.329 27.7337ZM176.395 26.3068H179.057C179.328 26.3149 179.592 26.2203 179.799 26.0413C179.891 25.9538 179.964 25.8474 180.013 25.7292C180.062 25.611 180.085 25.4836 180.082 25.3555C180.086 25.2526 180.066 25.1502 180.024 25.0563C179.983 24.9623 179.92 24.8793 179.842 24.8135C179.646 24.6793 179.413 24.6134 179.177 24.6254H176.766L176.395 26.3068ZM177.071 23.1985H179.679C179.923 23.2062 180.161 23.1192 180.344 22.9551C180.425 22.8744 180.489 22.7779 180.532 22.6714C180.575 22.565 180.597 22.4508 180.595 22.3357C180.595 21.8932 180.322 21.683 179.788 21.683H177.388L177.071 23.1985Z" fill="white"/>
<path d="M187.039 27.9323C186.567 27.959 186.094 27.8906 185.649 27.7311C185.203 27.5716 184.793 27.3242 184.442 27.0031C184.125 26.6875 183.876 26.3078 183.713 25.8886C183.549 25.4694 183.475 25.02 183.493 24.5696C183.472 23.4077 183.894 22.2824 184.671 21.4281C185.042 20.9956 185.502 20.6507 186.018 20.4175C186.535 20.1844 187.095 20.0687 187.66 20.0786C188.133 20.0509 188.607 20.1199 189.053 20.2814C189.499 20.4429 189.908 20.6937 190.257 21.0188C190.573 21.3353 190.821 21.7151 190.984 22.1341C191.148 22.5532 191.223 23.0021 191.206 23.4524C191.219 24.6191 190.785 25.7454 189.995 26.5939C189.627 27.0201 189.172 27.3603 188.661 27.5914C188.151 27.8224 187.597 27.9387 187.039 27.9323ZM187.039 26.4943C187.384 26.4982 187.725 26.4191 188.034 26.2633C188.343 26.1076 188.611 25.8796 188.817 25.5983C189.292 25.014 189.543 24.2758 189.526 23.5187C189.542 23.2528 189.505 22.9863 189.417 22.7354C189.329 22.4844 189.192 22.2542 189.013 22.0586C188.83 21.8724 188.609 21.7278 188.367 21.6343C188.124 21.5409 187.865 21.5008 187.606 21.5166C187.26 21.5139 186.918 21.5948 186.609 21.7525C186.3 21.9102 186.032 22.1403 185.828 22.4236C185.356 23.0056 185.105 23.739 185.119 24.4922C185.102 24.7581 185.139 25.0246 185.227 25.2755C185.315 25.5265 185.453 25.7567 185.631 25.9523C185.82 26.1444 186.047 26.2924 186.298 26.386C186.548 26.4797 186.816 26.5166 187.082 26.4943H187.039Z" fill="white"/>
<path d="M94.4784 48.7504L93.3112 49.4141C92.5416 47.9974 92.1647 46.3958 92.2203 44.7793C92.2397 43.1217 92.6118 41.488 93.3112 39.9896C94.0394 38.3889 95.0569 36.9407 96.3111 35.7198L97.1511 36.5716C95.0935 38.9983 93.9361 42.0773 93.8784 45.2771C93.9014 46.4592 94.1037 47.6307 94.4784 48.7504Z" fill="white"/>
<path d="M95.1115 48.2313L95.7988 44.9792C96.1644 44.8901 96.4859 44.6701 96.7042 44.3598C97.073 43.7802 97.3595 43.1509 97.5552 42.4903L98.7988 38.8511H104.493L103.184 44.9018H103.948L103.228 48.2203H101.624L102.039 46.3177H97.0752L96.6606 48.2203L95.1115 48.2313ZM99.8897 40.278L99.1152 42.6784C98.8731 43.5522 98.3654 44.3264 97.6642 44.8907H101.57L102.562 40.267L99.8897 40.278Z" fill="white"/>
<path d="M108.815 46.5384C108.343 46.565 107.871 46.4967 107.425 46.3372C106.979 46.1777 106.569 45.9303 106.219 45.6092C105.901 45.2936 105.653 44.9139 105.489 44.4947C105.326 44.0754 105.251 43.6261 105.27 43.1757C105.258 42.0092 105.692 40.8833 106.48 40.0342C106.852 39.6023 107.312 39.2577 107.828 39.0246C108.344 38.7916 108.904 38.6755 109.469 38.6847C109.942 38.657 110.416 38.726 110.862 38.8875C111.308 39.049 111.717 39.2998 112.066 39.6249C112.382 39.9414 112.63 40.3212 112.793 40.7402C112.957 41.1592 113.032 41.6082 113.015 42.0584C113.028 43.2252 112.594 44.3514 111.804 45.1999C111.433 45.631 110.972 45.9743 110.456 46.2055C109.94 46.4368 109.379 46.5504 108.815 46.5384ZM108.815 45.1004C109.16 45.1043 109.501 45.0251 109.81 44.8694C110.12 44.7136 110.388 44.4857 110.593 44.2044C111.068 43.6201 111.32 42.8819 111.302 42.1248C111.318 41.8599 111.282 41.5943 111.196 41.3437C111.11 41.093 110.975 40.8622 110.8 40.6647C110.614 40.4793 110.392 40.3354 110.148 40.242C109.903 40.1487 109.643 40.108 109.382 40.1227C109.036 40.12 108.694 40.2009 108.385 40.3586C108.076 40.5163 107.808 40.7464 107.604 41.0297C107.137 41.614 106.886 42.3459 106.895 43.0982C106.879 43.3641 106.916 43.6306 107.004 43.8816C107.092 44.1326 107.229 44.3628 107.408 44.5584C107.598 44.7465 107.826 44.8904 108.077 44.9802C108.327 45.07 108.594 45.1034 108.859 45.0783L108.815 45.1004Z" fill="white"/>
<path d="M117.563 46.5388C117.092 46.5649 116.619 46.4962 116.174 46.3367C115.728 46.1773 115.318 45.9302 114.967 45.6097C114.65 45.294 114.401 44.9143 114.238 44.4951C114.074 44.0759 113.999 43.6265 114.018 43.1761C114.028 42.5799 114.12 41.9879 114.291 41.4173C114.424 40.8924 114.614 40.3842 114.858 39.9019C115.302 39.0274 115.941 38.27 116.723 37.6895C117.536 37.1348 118.475 36.7997 119.451 36.7161C120.542 36.5502 121.185 36.34 121.24 36.0635H122.811C122.585 37.1475 121.396 37.8112 119.243 38.0546C118.514 38.1053 117.809 38.3411 117.193 38.7404C116.717 39.0652 116.34 39.5169 116.102 40.0457C116.433 39.6479 116.843 39.3251 117.306 39.0984C117.768 38.8716 118.272 38.7459 118.785 38.7293C119.194 38.7097 119.602 38.7829 119.98 38.9437C120.357 39.1044 120.695 39.3487 120.967 39.6585C121.502 40.3543 121.773 41.2218 121.731 42.1031C121.743 43.2677 121.314 44.3925 120.531 45.2446C120.157 45.6636 119.698 45.996 119.186 46.2194C118.674 46.4427 118.121 46.5516 117.563 46.5388ZM117.563 45.1008C117.909 45.1047 118.25 45.0256 118.559 44.8698C118.868 44.7141 119.136 44.4862 119.342 44.2048C119.812 43.6181 120.064 42.8815 120.051 42.1252C120.065 41.8596 120.026 41.5938 119.938 41.3431C119.85 41.0925 119.714 40.8621 119.538 40.6651C119.353 40.4786 119.13 40.3339 118.886 40.2405C118.642 40.1471 118.38 40.1071 118.12 40.1231C117.774 40.1204 117.432 40.2013 117.123 40.359C116.814 40.5167 116.546 40.7468 116.342 41.0301C115.874 41.6144 115.623 42.3463 115.633 43.0987C115.619 43.3643 115.657 43.6301 115.745 43.8808C115.833 44.1314 115.969 44.3618 116.145 44.5588C116.338 44.7493 116.57 44.8946 116.825 44.9844C117.079 45.0742 117.35 45.1064 117.618 45.0787L117.563 45.1008Z" fill="white"/>
<path d="M126.853 46.5375C126.373 46.5671 125.894 46.467 125.465 46.2474C125.036 46.0278 124.672 45.6965 124.41 45.2875L123.559 49.2033H121.955L124.213 38.8718H125.762L125.533 39.8673C125.807 39.5041 126.158 39.2088 126.561 39.0037C126.963 38.7986 127.407 38.6892 127.857 38.6837C128.234 38.6688 128.611 38.7339 128.962 38.8749C129.313 39.0158 129.632 39.2295 129.897 39.5023C130.17 39.8108 130.379 40.171 130.514 40.5621C130.649 40.9532 130.706 41.3674 130.682 41.781C130.693 42.9794 130.309 44.1471 129.592 45.0995C129.281 45.5434 128.871 45.9056 128.395 46.1558C127.918 46.406 127.39 46.5368 126.853 46.5375ZM126.613 45.0995C126.953 45.0982 127.288 45.0165 127.591 44.861C127.894 44.7054 128.157 44.4803 128.359 44.2035C128.819 43.6083 129.058 42.8685 129.035 42.1128C129.059 41.5802 128.875 41.0595 128.522 40.6638C128.354 40.4858 128.15 40.3457 127.924 40.2523C127.699 40.159 127.457 40.1145 127.213 40.1217C126.826 40.1351 126.448 40.2426 126.11 40.435C125.772 40.6275 125.484 40.8994 125.272 41.2279L124.65 44.1261C124.835 44.4385 125.103 44.6916 125.424 44.8561C125.79 45.0231 126.191 45.0989 126.592 45.0773L126.613 45.0995Z" fill="white"/>
<path d="M135.202 46.5382C134.73 46.5642 134.258 46.4955 133.813 46.3361C133.367 46.1766 132.957 45.9296 132.606 45.609C132.29 45.2924 132.044 44.9123 131.882 44.4931C131.721 44.0739 131.648 43.6251 131.668 43.1755C131.652 42.0103 132.082 40.8842 132.868 40.034C133.239 39.602 133.699 39.2575 134.215 39.0244C134.732 38.7913 135.292 38.6753 135.857 38.6844C136.33 38.6555 136.804 38.7239 137.25 38.8855C137.696 39.0471 138.105 39.2985 138.453 39.6247C138.77 39.9411 139.017 40.321 139.181 40.74C139.344 41.159 139.42 41.608 139.402 42.0582C139.415 43.2228 138.985 44.3476 138.202 45.1997C137.829 45.6311 137.367 45.9744 136.848 46.2056C136.33 46.4368 135.768 46.5503 135.202 46.5382ZM135.257 45.1002C135.602 45.1041 135.943 45.0249 136.252 44.8692C136.561 44.7134 136.83 44.4855 137.035 44.2042C137.516 43.6176 137.775 42.8764 137.766 42.1135C137.78 41.8479 137.742 41.5821 137.654 41.3314C137.566 41.0808 137.43 40.8504 137.253 40.6534C137.068 40.4669 136.846 40.3222 136.601 40.2288C136.357 40.1354 136.096 40.0954 135.835 40.1114C135.489 40.1087 135.147 40.1896 134.838 40.3473C134.529 40.505 134.261 40.7351 134.057 41.0184C133.589 41.6027 133.338 42.3346 133.348 43.087C133.334 43.3526 133.372 43.6184 133.46 43.8691C133.548 44.1197 133.684 44.3501 133.86 44.5471C134.044 44.7293 134.263 44.8707 134.503 44.9621C134.744 45.0536 135 45.093 135.257 45.078V45.1002Z" fill="white"/>
<path d="M144.976 46.3276H140.133L141.758 38.85H146.122C146.617 38.8167 147.106 38.9793 147.485 39.3035C147.65 39.4481 147.781 39.6286 147.868 39.8316C147.955 40.0346 147.996 40.2549 147.987 40.476C148.001 40.9673 147.838 41.447 147.529 41.8255C147.218 42.1856 146.801 42.434 146.34 42.5335C146.647 42.6514 146.911 42.8643 147.093 43.1421C147.275 43.42 147.366 43.7487 147.354 44.0821C147.357 44.3751 147.303 44.6658 147.194 44.9374C147.086 45.2089 146.925 45.4559 146.722 45.6639C146.493 45.893 146.22 46.0705 145.919 46.1849C145.618 46.2993 145.297 46.3479 144.976 46.3276ZM142.042 44.9007H144.703C144.975 44.9088 145.239 44.8141 145.445 44.6352C145.538 44.5477 145.611 44.4413 145.66 44.3231C145.708 44.2049 145.732 44.0775 145.729 43.9494C145.734 43.8462 145.715 43.7433 145.673 43.649C145.631 43.5548 145.568 43.472 145.489 43.4073C145.293 43.2732 145.059 43.2072 144.823 43.2193H142.413L142.042 44.9007ZM142.718 41.7923H145.325C145.57 41.8024 145.809 41.715 145.991 41.549C146.074 41.4699 146.139 41.3737 146.182 41.2669C146.226 41.16 146.246 41.045 146.242 40.9295C146.242 40.4871 145.98 40.2769 145.434 40.2769H143.045L142.718 41.7923Z" fill="white"/>
<path d="M152.69 46.5382C152.218 46.5648 151.746 46.4964 151.3 46.337C150.855 46.1775 150.444 45.9301 150.094 45.609C149.776 45.2934 149.528 44.9137 149.364 44.4945C149.201 44.0752 149.126 43.6259 149.145 43.1755C149.133 42.009 149.567 40.8831 150.355 40.034C150.727 39.602 151.187 39.2575 151.703 39.0244C152.219 38.7913 152.779 38.6753 153.345 38.6844C153.817 38.6555 154.291 38.7239 154.737 38.8855C155.184 39.0471 155.593 39.2985 155.941 39.6247C156.257 39.9411 156.505 40.321 156.668 40.74C156.832 41.159 156.907 41.608 156.89 42.0582C156.903 43.2228 156.473 44.3476 155.69 45.1997C155.315 45.6299 154.853 45.9724 154.335 46.2035C153.817 46.4346 153.256 46.5488 152.69 46.5382ZM152.69 45.1002C153.037 45.1059 153.38 45.0276 153.691 44.8717C154.003 44.7159 154.273 44.4871 154.479 44.2042C154.964 43.6192 155.227 42.8778 155.221 42.1135C155.235 41.8479 155.197 41.5821 155.109 41.3314C155.021 41.0808 154.885 40.8504 154.708 40.6534C154.522 40.468 154.3 40.3241 154.055 40.2308C153.811 40.1374 153.551 40.0968 153.29 40.1114C152.944 40.1087 152.602 40.1896 152.293 40.3473C151.984 40.505 151.716 40.7351 151.512 41.0184C151.044 41.6027 150.793 42.3346 150.803 43.087C150.789 43.3526 150.827 43.6184 150.915 43.8691C151.003 44.1197 151.139 44.3501 151.315 44.5471C151.501 44.7328 151.723 44.8762 151.968 44.9678C152.213 45.0593 152.474 45.0969 152.734 45.0781L152.69 45.1002Z" fill="white"/>
<path d="M156.81 46.5381L157.105 45.2107C157.292 45.1936 157.472 45.1275 157.627 45.0189C157.782 44.9104 157.906 44.7631 157.988 44.5913C158.374 43.9372 158.681 43.2392 158.905 42.5117L160.138 38.8724H165.843L164.217 46.3501H162.614L163.912 40.2994H161.239L160.465 42.6997C160.179 43.7772 159.657 44.7754 158.938 45.62C158.665 45.9138 158.335 46.147 157.969 46.305C157.603 46.463 157.208 46.5424 156.81 46.5381Z" fill="white"/>
<path d="M167.917 38.8506H169.521L168.921 41.5607H171.102C171.731 41.5238 172.351 41.7292 172.837 42.1359C173.044 42.3246 173.208 42.5571 173.318 42.817C173.427 43.0769 173.479 43.3579 173.47 43.6403C173.472 43.9921 173.405 44.3409 173.272 44.6659C173.139 44.9909 172.943 45.2853 172.695 45.5318C172.428 45.8006 172.109 46.0102 171.758 46.1473C171.406 46.2844 171.031 46.346 170.655 46.3282H166.292L167.917 38.8506ZM170.819 42.9876H168.637L168.222 44.9013H170.688C170.843 44.909 170.998 44.8856 171.144 44.8325C171.29 44.7793 171.424 44.6975 171.539 44.5916C171.643 44.4906 171.725 44.3684 171.779 44.2331C171.834 44.0977 171.86 43.9523 171.855 43.8062C171.857 43.6938 171.834 43.5824 171.786 43.4807C171.739 43.379 171.669 43.2897 171.582 43.2199C171.363 43.054 171.092 42.9718 170.819 42.9876Z" fill="white"/>
<path d="M175.945 38.8506H177.549L177.113 40.8638C177.037 41.0568 177.012 41.2664 177.041 41.4721C177.07 41.6777 177.151 41.8722 177.276 42.0363C177.641 42.3067 178.093 42.429 178.542 42.3792C179.114 42.3948 179.684 42.301 180.222 42.1027L180.931 38.8506H182.491L180.865 46.3282H179.218L179.851 43.419C179.158 43.7018 178.415 43.8373 177.669 43.8172C177.304 43.8619 176.934 43.8331 176.581 43.7325C176.227 43.6318 175.896 43.4614 175.607 43.231C175.42 42.9802 175.296 42.6868 175.247 42.3763C175.197 42.0658 175.224 41.7478 175.324 41.4501L175.945 38.8506Z" fill="white"/>
<path d="M186.964 46.5382C185.977 46.5954 185.004 46.2758 184.237 45.6423C183.903 45.3349 183.639 44.9563 183.466 44.5337C183.292 44.1111 183.213 43.6549 183.233 43.1976C183.211 42.0139 183.65 40.869 184.455 40.0119C184.832 39.5849 185.295 39.2453 185.812 39.0162C186.33 38.7871 186.89 38.674 187.455 38.6845C187.886 38.6661 188.317 38.737 188.72 38.893C189.123 39.0489 189.491 39.2866 189.801 39.5916C190.106 39.9096 190.344 40.2876 190.499 40.7023C190.655 41.117 190.725 41.5597 190.706 42.003C190.709 42.3765 190.661 42.7487 190.564 43.1091H184.859C184.856 43.1496 184.856 43.1903 184.859 43.2308C184.859 43.2972 184.859 43.3414 184.859 43.3746C184.865 43.6143 184.922 43.8498 185.025 44.0654C185.129 44.281 185.277 44.4717 185.459 44.6246C185.919 45.0137 186.508 45.2114 187.106 45.1777C187.814 45.2003 188.509 44.9823 189.081 44.5582L189.582 45.6644C188.828 46.2392 187.908 46.5463 186.964 46.5382ZM185.022 42.003H189.255C189.263 41.9294 189.263 41.8553 189.255 41.7817C189.263 41.5476 189.223 41.3144 189.137 41.0971C189.05 40.8799 188.92 40.6835 188.753 40.5207C188.557 40.3458 188.329 40.2119 188.082 40.1264C187.835 40.041 187.574 40.0059 187.313 40.023C186.76 40.0191 186.226 40.2286 185.819 40.6092C185.407 40.9613 185.126 41.4451 185.022 41.9809V42.003Z" fill="white"/>
<path d="M195.266 46.5382C194.33 46.5808 193.414 46.2514 192.714 45.6201C192.39 45.3034 192.136 44.9209 191.969 44.4977C191.802 44.0744 191.724 43.62 191.743 43.1644C191.731 42.5789 191.834 41.9967 192.045 41.4518C192.257 40.9068 192.573 40.4098 192.975 39.9897C193.357 39.5713 193.822 39.2388 194.339 39.014C194.856 38.7891 195.413 38.6768 195.975 38.6845C196.542 38.6341 197.112 38.7414 197.623 38.9948C198.135 39.2481 198.568 39.638 198.877 40.1225L197.666 41.0516C197.501 40.7523 197.255 40.5063 196.958 40.3419C196.661 40.1776 196.324 40.1015 195.986 40.1225C195.627 40.1141 195.271 40.1884 194.944 40.3397C194.617 40.4911 194.328 40.7156 194.099 40.9964C193.617 41.5859 193.361 42.3323 193.379 43.098C193.363 43.3703 193.405 43.6429 193.503 43.897C193.601 44.151 193.752 44.3804 193.946 44.5692C194.351 44.9323 194.879 45.1225 195.419 45.1002C195.74 45.0994 196.058 45.0266 196.348 44.887C196.639 44.7474 196.895 44.5445 197.099 44.2927L197.994 45.3989C197.644 45.7727 197.22 46.0674 196.75 46.2638C196.28 46.4601 195.774 46.5536 195.266 46.5382Z" fill="white"/>
<path d="M201.988 46.3287H200.384L201.682 40.278H199.577L199.904 38.8511H205.73L205.413 40.278H203.286L201.988 46.3287Z" fill="white"/>
<path d="M210.264 46.3273H205.398L207.024 38.8497H211.387C211.882 38.8165 212.371 38.979 212.751 39.3032C212.916 39.4478 213.047 39.6283 213.134 39.8314C213.221 40.0344 213.261 40.2546 213.253 40.4758C213.267 40.9671 213.104 41.4468 212.794 41.8253C212.484 42.1854 212.067 42.4338 211.605 42.5332C211.913 42.6511 212.176 42.864 212.359 43.1419C212.541 43.4197 212.632 43.7485 212.62 44.0818C212.623 44.3749 212.569 44.6656 212.46 44.9371C212.351 45.2087 212.191 45.4556 211.987 45.6637C211.761 45.8899 211.491 46.0658 211.194 46.18C210.898 46.2943 210.581 46.3445 210.264 46.3273ZM207.329 44.9004H209.991C210.262 44.9085 210.527 44.8139 210.733 44.6349C210.825 44.5474 210.898 44.4411 210.947 44.3228C210.996 44.2046 211.019 44.0773 211.016 43.9491C211.021 43.846 211.002 43.743 210.961 43.6488C210.919 43.5546 210.856 43.4717 210.776 43.4071C210.58 43.273 210.347 43.207 210.111 43.219H207.7L207.329 44.9004ZM208.005 41.7921H210.613C210.857 41.8021 211.096 41.7148 211.278 41.5487C211.361 41.4697 211.427 41.3735 211.47 41.2666C211.513 41.1598 211.533 41.0447 211.529 40.9293C211.529 40.4868 211.267 40.2767 210.722 40.2767H208.322L208.005 41.7921Z" fill="white"/>
<path d="M217.977 46.5382C217.506 46.5648 217.033 46.4964 216.588 46.337C216.142 46.1775 215.732 45.9301 215.381 45.609C215.064 45.2934 214.815 44.9137 214.652 44.4945C214.488 44.0752 214.413 43.6259 214.432 43.1755C214.42 42.009 214.854 40.8831 215.643 40.034C216.014 39.602 216.474 39.2575 216.99 39.0244C217.507 38.7913 218.067 38.6753 218.632 38.6844C219.105 38.6555 219.579 38.7239 220.025 38.8855C220.471 39.0471 220.88 39.2985 221.228 39.6247C221.545 39.9411 221.792 40.321 221.956 40.74C222.119 41.159 222.195 41.608 222.177 42.0582C222.19 43.2228 221.76 44.3476 220.977 45.1997C220.603 45.6299 220.141 45.9724 219.623 46.2035C219.105 46.4346 218.543 46.5488 217.977 46.5382ZM217.977 45.1002C218.324 45.1059 218.668 45.0276 218.979 44.8717C219.29 44.7159 219.56 44.4871 219.766 44.2042C220.237 43.6174 220.488 42.8809 220.476 42.1246C220.489 41.8589 220.451 41.5931 220.363 41.3425C220.275 41.0919 220.139 40.8614 219.963 40.6645C219.777 40.4791 219.554 40.3351 219.31 40.2418C219.066 40.1485 218.805 40.1078 218.545 40.1225C218.199 40.1198 217.857 40.2007 217.548 40.3584C217.238 40.5161 216.971 40.7461 216.766 41.0295C216.299 41.6138 216.048 42.3457 216.057 43.098C216.043 43.3637 216.082 43.6295 216.17 43.8801C216.258 44.1308 216.394 44.3612 216.57 44.5582C216.76 44.7463 216.989 44.8902 217.239 44.98C217.49 45.0698 217.756 45.1032 218.021 45.0781L217.977 45.1002Z" fill="white"/>
<path d="M224.272 36.3833L225.417 35.7196C226.188 37.136 226.565 38.7379 226.508 40.3544C226.494 42.0126 226.121 43.6474 225.417 45.1441C224.693 46.7471 223.675 48.196 222.417 49.4139L221.599 48.5621C223.639 46.1335 224.778 43.0578 224.817 39.8677C224.808 38.6851 224.624 37.5107 224.272 36.3833Z" fill="white"/>
<path d="M27.8791 28.4967C23.7119 15.3113 42.4208 14.0502 42.8789 25.2999C42.4535 14.7692 59.886 14.006 58.577 26.6605C57.6388 35.7088 47.0462 43.1201 43.588 47.058C43.588 47.058 30.5082 36.7818 27.8791 28.4967Z" fill="white"/>
</svg>
