<svg width="256" height="65" viewBox="0 0 256 65" fill="none" xmlns="http://www.w3.org/2000/svg">
<path d="M172.027 6.75061H120.688V57.9769H172.027V6.75061Z" fill="#1753A0" stroke="white" stroke-width="0.5" stroke-miterlimit="10"/>
<path d="M223.367 6.88306H69.349V58.1093H223.367V6.88306Z" fill="#1753A0" stroke="white" stroke-width="0.5" stroke-miterlimit="10"/>
<path fill-rule="evenodd" clip-rule="evenodd" d="M172.03 6.75061H255.53L245.553 57.9769H172.03V6.75061Z" fill="#1753A0"/>
<path fill-rule="evenodd" clip-rule="evenodd" d="M12.4893 0.422119H84.2048L72.8306 64.5573H0.860046L12.4893 0.422119Z" fill="#1753A0" stroke="white" stroke-width="0.5" stroke-miterlimit="10"/>
<path d="M93.3951 27.7351H91.6325L93.9162 17.403H95.7343L94.0936 24.8589L101.022 17.403H102.885L100.601 27.7351H98.7497L100.457 20.0911L93.3951 27.7351Z" fill="white"/>
<path d="M106.645 27.9331C105.694 27.9757 104.763 27.6463 104.051 27.015C103.721 26.6996 103.462 26.3173 103.291 25.8937C103.121 25.4701 103.044 25.015 103.065 24.5591C103.051 23.9743 103.154 23.3926 103.367 22.8476C103.58 22.3027 103.899 21.8053 104.306 21.3843C104.694 20.9658 105.166 20.6333 105.692 20.4084C106.217 20.1836 106.783 20.0713 107.355 20.0789C107.931 20.0274 108.511 20.1341 109.03 20.3876C109.55 20.6411 109.99 21.0317 110.304 21.517L109.084 22.4463C108.915 22.1477 108.665 21.9025 108.364 21.7382C108.062 21.574 107.72 21.4974 107.377 21.517C107.012 21.5078 106.649 21.5817 106.317 21.7332C105.985 21.8846 105.691 22.1095 105.459 22.3909C104.966 22.9795 104.702 23.7258 104.716 24.4928C104.702 24.7658 104.747 25.0387 104.848 25.2927C104.95 25.5467 105.105 25.7757 105.304 25.964C105.715 26.3271 106.252 26.5174 106.801 26.495C107.127 26.4942 107.45 26.4214 107.745 26.2818C108.04 26.1422 108.3 25.9393 108.508 25.6875L109.406 26.7937C109.053 27.1679 108.624 27.4629 108.148 27.6593C107.672 27.8558 107.16 27.9491 106.645 27.9331Z" fill="white"/>
<path d="M113.47 27.7342H111.84L113.159 21.6831H111.02L111.341 20.2561H117.272L116.951 21.6831H114.789L113.47 27.7342Z" fill="white"/>
<path d="M120.842 27.933C120.363 27.9597 119.883 27.8913 119.43 27.7318C118.977 27.5723 118.56 27.3249 118.204 27.0038C117.881 26.6881 117.629 26.3084 117.463 25.8892C117.297 25.4699 117.22 25.0205 117.239 24.5701C117.227 23.4035 117.668 22.2776 118.47 21.4284C118.847 20.9965 119.315 20.6519 119.839 20.4188C120.364 20.1857 120.933 20.0697 121.508 20.0788C121.988 20.0512 122.469 20.1202 122.922 20.2817C123.376 20.4432 123.792 20.694 124.146 21.0191C124.468 21.3356 124.719 21.7155 124.885 22.1345C125.051 22.5535 125.128 23.0025 125.111 23.4528C125.124 24.6196 124.683 25.7459 123.88 26.5945C123.503 27.0256 123.035 27.3689 122.51 27.6001C121.985 27.8314 121.416 27.945 120.842 27.933ZM120.842 26.4949C121.193 26.4988 121.54 26.4197 121.854 26.2639C122.168 26.1081 122.441 25.8802 122.649 25.5989C123.132 25.0145 123.388 24.2763 123.37 23.5192C123.386 23.2542 123.35 22.9887 123.262 22.738C123.174 22.4873 123.038 22.2565 122.86 22.059C122.671 21.8736 122.445 21.7296 122.197 21.6363C121.949 21.5429 121.684 21.5023 121.419 21.5169C121.067 21.5143 120.72 21.5951 120.406 21.7529C120.091 21.9106 119.819 22.1406 119.612 22.424C119.137 23.0083 118.882 23.7403 118.891 24.4927C118.875 24.7586 118.912 25.0251 119.002 25.2761C119.091 25.5271 119.231 25.7573 119.412 25.9529C119.607 26.1495 119.844 26.3002 120.105 26.394C120.366 26.4878 120.644 26.5222 120.92 26.4949H120.842Z" fill="white"/>
<path d="M130.202 27.9328C129.715 27.9613 129.228 27.8606 128.792 27.6411C128.356 27.4216 127.986 27.091 127.719 26.6828L126.854 30.5988H125.225L127.519 20.2667H129.149L128.916 21.2623C129.194 20.899 129.551 20.6037 129.96 20.3986C130.369 20.1935 130.82 20.0841 131.278 20.0786C131.661 20.0637 132.044 20.1288 132.401 20.2698C132.758 20.4107 133.081 20.6244 133.351 20.8972C133.628 21.2058 133.841 21.566 133.978 21.9571C134.115 22.3482 134.173 22.7624 134.149 23.176C134.16 24.3745 133.769 25.5423 133.04 26.4947C132.721 26.9471 132.295 27.3146 131.8 27.5652C131.306 27.8159 130.757 27.942 130.202 27.9328ZM129.958 26.4947C130.304 26.4934 130.644 26.4117 130.952 26.2562C131.26 26.1006 131.527 25.8755 131.732 25.5987C132.207 25.0065 132.459 24.2663 132.442 23.5079C132.466 22.9752 132.279 22.4545 131.921 22.0588C131.749 21.8808 131.542 21.7406 131.313 21.6473C131.084 21.5539 130.838 21.5095 130.59 21.5167C130.198 21.5281 129.814 21.6349 129.472 21.8276C129.13 22.0204 128.84 22.2933 128.628 22.6229L127.985 25.5212C128.173 25.8337 128.446 26.0868 128.772 26.2513C129.142 26.4259 129.549 26.5094 129.958 26.4947Z" fill="white"/>
<path d="M136.441 27.7338H134.878L136.519 20.2557H138.148L137.04 25.289L141.607 20.2557H143.237L141.529 27.7338H139.9L141.008 22.5677L136.441 27.7338Z" fill="white"/>
<path d="M145.021 20.2672H146.65L146.207 22.2805C146.13 22.4736 146.105 22.6832 146.134 22.8888C146.163 23.0945 146.246 23.289 146.373 23.4531C146.743 23.7245 147.202 23.847 147.659 23.7961C148.24 23.8116 148.82 23.7178 149.366 23.5195L150.087 20.2672H151.717L150.065 27.7342H148.435L149.078 24.8249C148.374 25.1061 147.619 25.2416 146.861 25.2231C146.49 25.2689 146.114 25.2407 145.754 25.1401C145.394 25.0394 145.058 24.8683 144.766 24.6368C144.575 24.386 144.45 24.0925 144.399 23.7821C144.349 23.4716 144.376 23.1535 144.477 22.8558L145.021 20.2672Z" fill="white"/>
<path d="M156.262 27.9326C155.259 27.9898 154.27 27.6702 153.491 27.0366C153.151 26.7291 152.883 26.3506 152.707 25.928C152.531 25.5054 152.45 25.0491 152.471 24.5918C152.448 23.408 152.894 22.263 153.712 21.4059C154.095 20.9783 154.565 20.6382 155.091 20.4091C155.617 20.18 156.187 20.0672 156.761 20.0784C157.199 20.06 157.637 20.1309 158.047 20.2869C158.456 20.4429 158.83 20.6806 159.145 20.9855C159.455 21.3036 159.696 21.6816 159.855 22.0963C160.013 22.5111 160.084 22.9537 160.065 23.3971C160.067 23.7706 160.019 24.1428 159.921 24.5033H154.178C154.175 24.5438 154.175 24.5845 154.178 24.625C154.174 24.6728 154.174 24.721 154.178 24.7688C154.182 25.009 154.238 25.2456 154.343 25.4616C154.449 25.6776 154.6 25.8679 154.788 26.0188C155.255 26.408 155.854 26.6056 156.462 26.5719C157.181 26.5946 157.887 26.3765 158.468 25.9525L158.978 27.0587C158.197 27.6452 157.24 27.953 156.262 27.9326ZM154.289 23.3971H158.612C158.62 23.3236 158.62 23.2494 158.612 23.1758C158.621 22.9417 158.58 22.7084 158.492 22.4912C158.404 22.2739 158.271 22.0775 158.102 21.9147C157.903 21.7398 157.672 21.6059 157.42 21.5204C157.169 21.435 156.904 21.3998 156.639 21.4169C156.077 21.4131 155.534 21.6226 155.12 22.0032C154.69 22.3575 154.396 22.8503 154.289 23.3971Z" fill="white"/>
<path d="M164.702 27.9337C163.751 27.9763 162.82 27.6469 162.108 27.0155C161.779 26.6988 161.521 26.3163 161.351 25.893C161.181 25.4697 161.103 25.0153 161.121 24.5597C161.109 23.9741 161.214 23.3919 161.429 22.8469C161.644 22.3019 161.965 21.805 162.374 21.3848C162.762 20.9658 163.234 20.6329 163.759 20.408C164.284 20.1831 164.851 20.0712 165.423 20.0795C165.999 20.0291 166.578 20.1364 167.097 20.3898C167.617 20.6432 168.057 21.0331 168.372 21.5176L167.141 22.4468C166.973 22.1474 166.723 21.9014 166.421 21.737C166.119 21.5727 165.777 21.4966 165.434 21.5176C165.069 21.5092 164.707 21.5835 164.374 21.7348C164.042 21.8862 163.749 22.1107 163.516 22.3915C163.026 22.9811 162.766 23.7276 162.784 24.4933C162.768 24.7656 162.811 25.0382 162.91 25.2923C163.01 25.5463 163.163 25.7758 163.361 25.9646C163.772 26.3277 164.309 26.5179 164.857 26.4956C165.184 26.4948 165.506 26.4219 165.801 26.2823C166.097 26.1427 166.357 25.9398 166.565 25.688L167.474 26.7943C167.118 27.1681 166.687 27.4629 166.21 27.6592C165.732 27.8556 165.218 27.9491 164.702 27.9337Z" fill="white"/>
<path d="M175.553 27.7338H173.579L171.916 24.6143L170.575 25.7205L170.143 27.7338H168.591L170.254 20.2557H171.883L171.096 23.7735L175.109 20.2557H177.205L173.324 23.6518L175.553 27.7338Z" fill="white"/>
<path d="M180.842 20.0793C181.346 20.0724 181.844 20.1862 182.294 20.4111C182.72 20.6162 183.078 20.9387 183.325 21.3404L183.558 20.2341H185.221L183.536 27.7343H181.895L182.106 26.7498C181.833 27.1118 181.48 27.4059 181.074 27.6093C180.668 27.8127 180.221 27.9198 179.767 27.9224C179.381 27.9395 178.997 27.8755 178.637 27.7345C178.278 27.5934 177.953 27.3786 177.683 27.1038C177.14 26.4979 176.857 25.7033 176.896 24.8913C176.898 24.1321 177.049 23.3806 177.339 22.6789C177.633 21.9752 178.107 21.361 178.714 20.8979C179.307 20.388 180.059 20.0988 180.842 20.0793ZM181.097 21.5174C180.749 21.5182 180.406 21.6007 180.096 21.7583C179.786 21.9159 179.518 22.1441 179.312 22.4245C178.845 23.0246 178.599 23.7666 178.614 24.5263C178.6 24.786 178.637 25.046 178.725 25.291C178.813 25.536 178.948 25.7612 179.124 25.9533C179.294 26.133 179.501 26.2742 179.73 26.3677C179.96 26.4612 180.207 26.5047 180.454 26.4954C180.844 26.4979 181.227 26.3947 181.563 26.1967C181.899 26.0073 182.194 25.7513 182.427 25.4445L183.082 22.5461C182.888 22.2355 182.616 21.9802 182.294 21.805C181.927 21.6085 181.514 21.5095 181.097 21.5174Z" fill="white"/>
<path d="M187.312 27.7334H185.372L187.9 24.8572C187.497 24.7342 187.147 24.4799 186.905 24.1349C186.664 23.79 186.546 23.3744 186.569 22.9545C186.565 22.6008 186.633 22.2498 186.768 21.9228C186.903 21.5958 187.103 21.2995 187.356 21.0518C187.628 20.783 187.952 20.5734 188.309 20.4363C188.666 20.2992 189.048 20.2375 189.43 20.2553H193.864L192.234 27.7334H190.605L191.192 25.0231H189.552L187.312 27.7334ZM189.274 23.5961H191.492L191.913 21.6823H189.396C189.241 21.6749 189.085 21.6984 188.938 21.7516C188.792 21.8048 188.657 21.8865 188.543 21.9921C188.437 22.0931 188.353 22.2152 188.298 22.3506C188.243 22.4859 188.216 22.6314 188.221 22.7775C188.216 22.8925 188.237 23.0071 188.283 23.1126C188.329 23.2181 188.399 23.3116 188.487 23.3859C188.717 23.5462 188.994 23.6242 189.274 23.6072V23.5961Z" fill="white"/>
<path d="M98.291 46.3285H96.6613L98.036 40.2775H94.5993L93.2025 46.3285H91.5729L93.2801 38.8505H99.9317L98.291 46.3285Z" fill="white"/>
<path d="M104.612 38.6627C105.116 38.6584 105.613 38.772 106.064 38.9946C106.486 39.206 106.842 39.527 107.096 39.9238L107.328 38.8176H108.958L107.295 46.2957H105.665L105.876 45.3001C105.607 45.6666 105.254 45.9648 104.848 46.1704C104.442 46.376 103.993 46.4833 103.537 46.4837C103.151 46.5002 102.767 46.4359 102.408 46.2949C102.049 46.1539 101.724 45.9393 101.453 45.6651C100.9 45.0429 100.617 44.2275 100.666 43.3974C100.664 42.6188 100.819 41.8478 101.12 41.1296C101.407 40.4221 101.883 39.8063 102.495 39.3486C103.101 38.8841 103.848 38.6419 104.612 38.6627ZM104.856 40.1008C104.511 40.1021 104.171 40.1838 103.863 40.3393C103.555 40.4949 103.288 40.7201 103.082 40.9969C102.609 41.5985 102.358 42.3449 102.373 43.1098C102.359 43.3695 102.396 43.6295 102.484 43.8745C102.571 44.1195 102.707 44.3447 102.883 44.5368C103.055 44.7173 103.263 44.859 103.495 44.9525C103.726 45.046 103.975 45.0891 104.224 45.0788C104.614 45.0819 104.997 44.9787 105.333 44.7802C105.674 44.597 105.969 44.3399 106.198 44.0279L106.852 41.1296C106.658 40.819 106.386 40.5637 106.064 40.3885C105.693 40.1901 105.277 40.091 104.856 40.1008Z" fill="white"/>
<path d="M117.808 46.3285H116.178L117.287 41.1293L113.961 46.3285H113.307L112.198 41.1293L111.09 46.3285H109.46L111.112 38.8505H113.152L114.161 43.6847L117.287 38.8505H119.504L117.808 46.3285Z" fill="white"/>
<path d="M121.586 46.3281H119.646L122.174 43.4519C121.771 43.3289 121.421 43.0746 121.18 42.7297C120.938 42.3848 120.82 41.9691 120.843 41.5492C120.839 41.1955 120.907 40.8446 121.042 40.5176C121.177 40.1906 121.378 39.8943 121.631 39.6465C121.902 39.3777 122.226 39.1681 122.583 39.031C122.94 38.8939 123.322 38.8323 123.704 38.85H128.138L126.464 46.3281H124.834L125.422 43.6179H123.781L121.586 46.3281ZM123.548 42.1908H125.766L126.187 40.2771H123.67C123.515 40.2696 123.359 40.2931 123.212 40.3463C123.066 40.3995 122.931 40.4812 122.817 40.5868C122.711 40.6878 122.628 40.81 122.572 40.9453C122.517 41.0806 122.491 41.2261 122.495 41.3722C122.49 41.4872 122.511 41.6018 122.557 41.7073C122.604 41.8128 122.673 41.9063 122.761 41.9807C122.993 42.1371 123.27 42.2111 123.548 42.1908Z" fill="white"/>
<path d="M131.621 46.3285H129.991L131.31 40.2775H129.16L129.492 38.8505H135.423L135.091 40.2775H132.94L131.621 46.3285Z" fill="white"/>
<path d="M136.75 38.8505H138.379L137.769 41.5607H139.987C140.626 41.5238 141.256 41.7293 141.749 42.136C141.96 42.3247 142.127 42.5572 142.238 42.8171C142.349 43.077 142.402 43.358 142.392 43.6404C142.395 43.9923 142.327 44.3411 142.192 44.6661C142.056 44.9911 141.857 45.2856 141.605 45.5321C141.334 45.8009 141.009 46.0105 140.653 46.1476C140.296 46.2847 139.914 46.3463 139.532 46.3285H135.098L136.75 38.8505ZM139.698 42.9877H137.481L137.071 44.9015H139.576C139.734 44.9092 139.891 44.8858 140.04 44.8327C140.188 44.7795 140.325 44.6977 140.441 44.5918C140.547 44.4908 140.63 44.3686 140.686 44.2333C140.741 44.0979 140.767 43.9525 140.763 43.8063C140.768 43.6902 140.746 43.5745 140.698 43.4686C140.65 43.3628 140.577 43.27 140.486 43.1979C140.256 43.0373 139.977 42.9629 139.698 42.9877Z" fill="white"/>
<path d="M58.1647 28.6847C56.8226 30.4444 55.1415 31.9186 53.2203 33.0208C53.2203 33.0208 55.6482 12.5347 39.8173 8.9729C43.8748 23.8286 34.6623 28.0099 31.3032 20.1672C25.6937 27.6449 29.9507 34.1602 29.9507 34.1602C27.6449 34.492 25.7159 31.9479 25.7159 31.9479C25.7159 32.2576 25.7159 32.5673 25.7159 32.8881C25.7084 36.6849 27.0149 40.3678 29.4146 43.3144C31.8142 46.261 35.1599 48.2906 38.8861 49.0602C37.8425 48.5244 36.9452 47.7436 36.2713 46.7849C35.5974 45.8263 35.1672 44.7185 35.0177 43.5571C34.8683 42.3957 35.0041 41.2154 35.4134 40.118C35.8227 39.0205 36.4932 38.0388 37.3673 37.2574C40.1721 41.0626 44.163 35.2995 41.0479 31.0961C41.0479 31.0961 49.4511 32.147 49.4511 42.6444C49.45 43.9702 49.0833 45.2701 48.3911 46.4017C47.6988 47.5334 46.7078 48.4531 45.5266 49.0602C49.2513 48.2962 52.5978 46.2734 55.0012 43.3332C57.4046 40.393 58.7177 36.7155 58.719 32.9213C58.7227 31.4908 58.5363 30.0662 58.1647 28.6847Z" fill="white"/>
</svg>
