<svg width="256" height="65" viewBox="0 0 256 65" fill="none" xmlns="http://www.w3.org/2000/svg">
<path d="M173.209 6.87061H122.644V58.0969H173.209V6.87061Z" fill="#98CB96"/>
<path d="M217.562 6.87085H72.0805V58.0971H217.562V6.87085Z" fill="#89C694"/>
<path fill-rule="evenodd" clip-rule="evenodd" d="M173.209 6.87061H255.438L245.611 58.0969H173.209V6.87061Z" fill="#89C694"/>
<path fill-rule="evenodd" clip-rule="evenodd" d="M12.2233 0.421875H82.8568L71.6541 64.557H0.769531L12.2233 0.421875Z" fill="#89C694" stroke="white" stroke-width="0.5" stroke-miterlimit="10"/>
<path d="M99.9221 26.5267C101.199 26.4818 102.445 26.9329 103.405 27.7878C103.861 28.2051 104.221 28.7183 104.461 29.2915C104.701 29.8648 104.813 30.4841 104.792 31.1062C104.823 31.9247 104.686 32.7409 104.389 33.5027C104.092 34.2645 103.642 34.9552 103.067 35.5309C102.529 36.0803 101.887 36.5143 101.18 36.807C100.472 37.0996 99.7142 37.245 98.9503 37.2344C97.9842 37.2704 97.0296 37.0122 96.2097 36.4932C95.4872 36.0143 94.9211 35.3291 94.5828 34.5243L96.297 33.9048C96.5094 34.4441 96.8937 34.8958 97.3889 35.188C97.8967 35.4842 98.4736 35.637 99.0595 35.6304C99.8941 35.6308 100.702 35.3331 101.342 34.7898C102.036 34.2253 102.534 33.4498 102.761 32.5774H97.1705L97.5199 30.9846H102.914C102.901 30.5991 102.814 30.2199 102.656 29.8688C102.499 29.5176 102.275 29.2014 101.997 28.9382C101.396 28.4003 100.614 28.1189 99.8129 28.1528C99.3305 28.1513 98.8535 28.2553 98.4145 28.4576C97.9754 28.66 97.5846 28.956 97.2688 29.3253L95.9149 28.374C96.4071 27.7576 97.0458 27.278 97.7711 26.9803C98.4509 26.6847 99.1823 26.5305 99.9221 26.5267Z" fill="white"/>
<path d="M112.121 37.0353H110.177L108.54 33.9048L107.229 35.011L106.803 37.0242H105.264L106.902 29.5355H108.507L107.721 33.0531L111.684 29.5355H113.748L109.926 32.9314L112.121 37.0353Z" fill="white"/>
<path d="M116.99 37.2128C116.518 37.2388 116.046 37.1701 115.6 37.0107C115.154 36.8512 114.743 36.6041 114.392 36.2836C114.077 35.9687 113.831 35.5904 113.669 35.1732C113.507 34.7559 113.433 34.309 113.453 33.8611C113.437 32.6928 113.867 31.5634 114.654 30.7086C115.026 30.2781 115.487 29.9352 116.003 29.704C116.52 29.4728 117.081 29.3589 117.646 29.3701C118.118 29.3422 118.591 29.41 119.037 29.5696C119.483 29.7291 119.894 29.9772 120.244 30.2993C120.558 30.6198 120.805 31.0019 120.968 31.4223C121.131 31.8426 121.208 32.2924 121.194 32.7439C121.206 33.905 120.776 35.0262 119.993 35.8743C119.619 36.3057 119.157 36.649 118.638 36.8802C118.119 37.1114 117.557 37.2249 116.99 37.2128ZM117.045 35.7748C117.39 35.78 117.73 35.7025 118.04 35.5487C118.349 35.3949 118.618 35.1691 118.825 34.8898C119.29 34.2956 119.541 33.5578 119.534 32.7992C119.548 32.5335 119.51 32.2677 119.422 32.0171C119.334 31.7665 119.198 31.536 119.021 31.3391C118.833 31.1568 118.61 31.0156 118.366 30.9243C118.122 30.8329 117.862 30.7934 117.602 30.8081C117.256 30.8042 116.915 30.8834 116.606 31.0391C116.296 31.1949 116.028 31.4228 115.822 31.7041C115.354 32.2927 115.103 33.028 115.112 33.7837C115.098 34.0493 115.137 34.3152 115.225 34.5658C115.313 34.8164 115.449 35.0469 115.626 35.2438C115.816 35.4213 116.04 35.5571 116.284 35.6427C116.528 35.7284 116.787 35.762 117.045 35.7416V35.7748Z" fill="white"/>
<path d="M121.118 37.2123L121.413 35.8849C121.6 35.8688 121.779 35.8044 121.934 35.6979C122.089 35.5913 122.214 35.4463 122.297 35.2765C122.683 34.6184 122.991 33.9167 123.215 33.1859L124.459 29.5466H130.159L128.532 37.0353H126.927L128.226 30.9736H125.551L124.776 33.374C124.489 34.4546 123.967 35.4563 123.247 36.3053C122.974 36.5975 122.643 36.8291 122.277 36.9852C121.91 37.1414 121.516 37.2187 121.118 37.2123Z" fill="white"/>
<path d="M134.437 37.2128C133.965 37.2394 133.492 37.1711 133.046 37.0116C132.6 36.8521 132.19 36.6047 131.838 36.2836C131.522 35.9693 131.274 35.5913 131.111 35.1741C130.947 34.7569 130.871 34.3097 130.888 33.8611C130.878 32.6936 131.307 31.5659 132.09 30.7086C132.464 30.2784 132.927 29.9359 133.446 29.7048C133.964 29.4737 134.526 29.3595 135.092 29.3701C135.564 29.3435 136.037 29.4119 136.483 29.5713C136.929 29.7308 137.34 29.9782 137.691 30.2993C138.005 30.6198 138.251 31.0019 138.415 31.4223C138.578 31.8427 138.655 32.2924 138.641 32.7439C138.659 33.9083 138.224 35.0331 137.429 35.8743C137.057 36.3048 136.596 36.6477 136.079 36.8789C135.562 37.1101 135.002 37.224 134.437 37.2128ZM134.437 35.7748C134.782 35.78 135.122 35.7025 135.432 35.5487C135.741 35.3949 136.01 35.1691 136.217 34.8899C136.682 34.2956 136.933 33.5578 136.927 32.7992C136.94 32.5335 136.902 32.2677 136.814 32.0171C136.726 31.7665 136.59 31.536 136.413 31.3391C136.228 31.1565 136.007 31.0151 135.764 30.9237C135.522 30.8323 135.263 30.7929 135.005 30.8081C134.659 30.8042 134.318 30.8834 134.009 31.0391C133.699 31.1949 133.431 31.4228 133.225 31.7041C132.75 32.2893 132.495 33.026 132.504 33.7837C132.491 34.0493 132.529 34.3152 132.617 34.5658C132.705 34.8164 132.841 35.0469 133.018 35.2438C133.214 35.4253 133.445 35.5633 133.697 35.649C133.949 35.7347 134.216 35.7663 134.481 35.7416L134.437 35.7748Z" fill="white"/>
<path d="M146.588 29.5466L146.261 30.9736H142.275L140.976 37.0353H139.371L140.987 29.5466H146.588Z" fill="white"/>
<path d="M147.845 37.0356H146.306L147.922 29.5469H149.527L148.435 34.5799L152.933 29.5469H154.538L152.922 37.0356H151.317L152.409 31.8588L147.845 37.0356Z" fill="white"/>
<path d="M156.581 37.0357H154.67L157.16 34.1486C156.762 34.0273 156.416 33.7734 156.178 33.4281C155.94 33.0828 155.825 32.6663 155.85 32.246C155.845 31.8922 155.911 31.5411 156.044 31.214C156.178 30.887 156.375 30.5907 156.625 30.3434C156.891 30.076 157.209 29.8672 157.558 29.7302C157.908 29.5931 158.281 29.5307 158.656 29.5469H163.023L161.407 37.0357H159.857L160.436 34.3256H158.82L156.581 37.0357ZM158.503 32.8986H160.687L161.102 30.9739H158.623C158.314 30.9636 158.013 31.0746 157.782 31.2836C157.677 31.3859 157.594 31.5099 157.539 31.6472C157.484 31.7846 157.459 31.9321 157.466 32.0801C157.461 32.1934 157.482 32.3064 157.527 32.4101C157.573 32.5138 157.641 32.6053 157.728 32.6774C157.962 32.8478 158.249 32.9264 158.536 32.8986H158.503Z" fill="white"/>
<path d="M63.1041 14.3036C63.0385 14.1501 62.9303 14.0193 62.7927 13.927C62.655 13.8347 62.4939 13.7849 62.3289 13.7837C29.9875 13.7837 26.4935 27.3674 26.4935 33.2079C26.4721 35.2418 26.9406 37.2503 27.8583 39.0595C27.927 39.1937 28.0303 39.3067 28.1571 39.3866C28.2839 39.4664 28.4297 39.5101 28.579 39.513C28.7274 39.5108 28.873 39.4712 29.0026 39.3978C29.1322 39.3245 29.2418 39.2196 29.3214 39.0926C31.5052 35.2653 37.6852 25.8187 47.8833 20.8189C48.0817 20.7206 48.3105 20.7062 48.5193 20.7788C48.7282 20.8514 48.9 21.0051 48.997 21.206C49.0941 21.407 49.1083 21.6388 49.0366 21.8504C48.965 22.062 48.8133 22.236 48.6149 22.3343C47.8397 22.7104 47.0972 23.1197 46.4311 23.5511L45.6122 24.0599L44.4112 24.8453C44.0181 25.1108 43.6359 25.3873 43.2538 25.6749C43.1337 25.7523 43.0245 25.8519 42.9044 25.9404C32.739 33.6061 26.5262 45.8513 26.5262 50.1211C26.5262 50.344 26.6136 50.5579 26.7693 50.7155C26.9249 50.8732 27.136 50.9617 27.356 50.9617C27.5771 50.9618 27.7894 50.8736 27.9467 50.7162C28.1041 50.5589 28.1939 50.345 28.1968 50.1211C28.1968 48.7494 29.1031 45.9951 30.8391 42.6987C33.6499 44.8863 37.1236 46.0163 40.666 45.8955C51.3664 45.8955 53.6048 35.5751 54.8604 30.0332C56.029 24.3892 58.8528 19.2344 62.9621 15.2438C63.0781 15.1208 63.1539 14.9645 63.1793 14.7964C63.2047 14.6282 63.1785 14.4561 63.1041 14.3036Z" fill="white"/>
</svg>
