<svg width="255" height="65" viewBox="0 0 255 65" fill="none" xmlns="http://www.w3.org/2000/svg">
<path d="M172.841 6.87109H122.321V58.0974H172.841V6.87109Z" fill="#1C2A4E" stroke="white" stroke-width="0.5" stroke-miterlimit="10"/>
<path d="M217.157 6.87134H71.806V58.0976H217.157V6.87134Z" fill="#1C2A4E"/>
<path fill-rule="evenodd" clip-rule="evenodd" d="M172.845 6.87085H255L245.182 58.0971H172.845V6.87085Z" fill="#1C2A4E"/>
<path fill-rule="evenodd" clip-rule="evenodd" d="M11.7747 0.422119H82.3447L71.1521 64.5573H0.331177L11.7747 0.422119Z" fill="#1C2A4E" stroke="white" stroke-width="0.5" stroke-miterlimit="10"/>
<path d="M92.805 27.7441H90.4596L96.0777 22.2908L92.9905 17.4126H95.0523L97.8013 22.0585L98.8159 17.4126H100.594L99.6777 21.6713L104.041 17.4126H106.408L101.216 22.2908L104.488 27.7441H102.449L99.9067 23.3195L99.1758 24.0164L98.3686 27.7663H96.5795L97.3977 24.0274L97.0704 23.5076L92.805 27.7441Z" fill="white"/>
<path d="M103.791 30.6086L104.325 29.1816C104.559 29.2699 104.807 29.3112 105.056 29.3033C105.26 29.2951 105.458 29.2338 105.632 29.1254C105.806 29.0169 105.95 28.8648 106.049 28.6838L106.627 27.7878L105.285 20.2549H106.954L107.87 25.8631L111.263 20.2549H113.03L107.576 29.1042C107.285 29.6207 106.882 30.0633 106.398 30.3984C105.963 30.6733 105.459 30.8118 104.947 30.7966C104.554 30.8019 104.162 30.7383 103.791 30.6086Z" fill="white"/>
<path d="M116.683 27.921C116.203 27.9542 115.723 27.8556 115.293 27.6357C114.863 27.4158 114.499 27.0826 114.24 26.6711L113.378 30.5869H111.774L114.033 20.2554H115.647L115.407 21.2509C115.681 20.8891 116.033 20.5954 116.435 20.3922C116.838 20.1891 117.281 20.0817 117.731 20.0784C118.11 20.0605 118.489 20.1242 118.842 20.2653C119.196 20.4064 119.516 20.6216 119.782 20.8969C120.326 21.5231 120.605 22.3422 120.556 23.1756C120.564 24.3736 120.181 25.5406 119.465 26.4941C119.151 26.9435 118.733 27.3084 118.249 27.5571C117.764 27.8058 117.227 27.9307 116.683 27.921ZM116.432 26.4831C116.773 26.4848 117.109 26.4056 117.414 26.252C117.719 26.0983 117.985 25.8744 118.189 25.5981C118.648 24.998 118.891 24.2561 118.876 23.4964C118.891 23.234 118.853 22.9714 118.765 22.7242C118.677 22.4771 118.54 22.2506 118.363 22.0584C118.197 21.8796 117.996 21.7388 117.772 21.6453C117.548 21.5519 117.307 21.5079 117.065 21.5164C116.677 21.527 116.298 21.6332 115.959 21.826C115.621 22.0187 115.334 22.2921 115.123 22.6225L114.491 25.5207C114.679 25.8306 114.947 26.0829 115.265 26.2508C115.629 26.4263 116.03 26.5062 116.432 26.4831Z" fill="white"/>
<path d="M122.839 27.7436H121.235L122.915 20.2549H124.519L123.875 23.1198H127.279L127.922 20.2549H129.526L127.846 27.7436H126.188L126.897 24.5468H123.515L122.839 27.7436Z" fill="white"/>
<path d="M134.045 20.0783C134.541 20.0714 135.031 20.1852 135.474 20.4102C135.89 20.6147 136.241 20.9326 136.489 21.3283L136.729 20.2221H138.321L136.696 27.7108H135.092L135.299 26.7153C135.032 27.0791 134.685 27.3746 134.286 27.5782C133.886 27.7818 133.445 27.8878 132.998 27.8878C132.619 27.9071 132.241 27.8451 131.887 27.706C131.534 27.5668 131.213 27.3536 130.947 27.0803C130.412 26.4745 130.134 25.6799 130.172 24.868C130.167 24.0902 130.316 23.3192 130.609 22.6004C130.901 21.8958 131.367 21.2789 131.961 20.8084C132.554 20.3328 133.289 20.0754 134.045 20.0783ZM134.296 21.5163C133.955 21.5122 133.619 21.5915 133.315 21.7475C133.011 21.9035 132.749 22.1316 132.55 22.4123C132.087 23.011 131.84 23.753 131.852 24.514C131.837 24.7755 131.874 25.0374 131.96 25.2843C132.046 25.5312 132.18 25.7582 132.354 25.952C132.524 26.128 132.728 26.2661 132.953 26.3575C133.179 26.4489 133.421 26.4917 133.663 26.483C134.045 26.4857 134.422 26.3865 134.754 26.1954C135.086 26.002 135.375 25.7423 135.605 25.4321L136.249 22.534C136.06 22.2241 135.793 21.9718 135.474 21.8039C135.114 21.6025 134.707 21.5032 134.296 21.5163Z" fill="white"/>
<path d="M137.96 27.9206L138.244 26.5932C138.432 26.5789 138.613 26.5154 138.77 26.4087C138.927 26.3021 139.054 26.156 139.138 25.9848C139.523 25.3266 139.831 24.6249 140.054 23.8941L141.287 20.2549H146.982L145.367 27.7436H143.763L145.062 21.6818H142.389L141.604 24.0822C141.323 25.1629 140.804 26.165 140.087 27.0135C139.813 27.3042 139.482 27.5347 139.116 27.6907C138.75 27.8467 138.357 27.9249 137.96 27.9206Z" fill="white"/>
<path d="M148.987 27.7433H147.438L149.096 20.2546H150.7L149.609 25.2877L154.092 20.2546H155.641L154.027 27.7433H152.423L153.514 22.5665L148.987 27.7433Z" fill="white"/>
<path d="M159.928 27.9206C158.991 27.9692 158.073 27.639 157.376 27.0025C157.05 26.6872 156.795 26.3049 156.628 25.8813C156.46 25.4577 156.384 25.0027 156.405 24.5468C156.394 23.9631 156.498 23.383 156.709 22.8401C156.921 22.2971 157.236 21.802 157.637 21.3832C158.018 20.963 158.482 20.6295 158.999 20.4045C159.516 20.1795 160.075 20.0682 160.637 20.0779C161.205 20.0251 161.775 20.1313 162.287 20.3849C162.799 20.6385 163.232 21.0297 163.539 21.5159L162.328 22.4451C162.163 22.1457 161.917 21.8997 161.62 21.7354C161.323 21.571 160.986 21.495 160.648 21.5159C160.289 21.5051 159.931 21.5782 159.604 21.7298C159.277 21.8813 158.988 22.1071 158.761 22.3898C158.279 22.9794 158.023 23.7258 158.041 24.4915C158.025 24.7638 158.067 25.0364 158.165 25.2904C158.263 25.5445 158.414 25.7739 158.608 25.9627C159.066 26.3434 159.653 26.5266 160.243 26.4728C160.832 26.419 161.378 26.1325 161.761 25.6751L162.656 26.7813C162.306 27.1551 161.882 27.4498 161.412 27.6462C160.942 27.8425 160.436 27.936 159.928 27.9206Z" fill="white"/>
<path d="M166.649 27.7436H165.045L166.343 21.6818H164.238L164.565 20.2549H170.391L170.074 21.6818H167.892L166.649 27.7436Z" fill="white"/>
<path d="M171.632 27.7433H170.094L171.708 20.2546H173.312L172.221 25.2877L176.716 20.2546H178.319L176.694 27.7433H175.09L176.181 22.5665L171.632 27.7433Z" fill="white"/>
<path d="M185.663 27.7439H183.732L182.106 24.6135L180.797 25.7196L180.372 27.7328H178.768L180.394 20.2441H181.997L181.223 23.7617L185.183 20.2441H187.277L183.459 23.64L185.663 27.7439Z" fill="white"/>
<path d="M190.877 20.0782C191.373 20.0738 191.862 20.1875 192.307 20.41C192.718 20.6206 193.068 20.9372 193.321 21.3282L193.55 20.222H195.154L193.517 27.7107H191.914L192.132 26.7152C191.863 27.0792 191.514 27.3747 191.112 27.5782C190.711 27.7818 190.268 27.8877 189.819 27.8877C189.441 27.9056 189.063 27.843 188.71 27.7039C188.356 27.5649 188.036 27.3524 187.768 27.0802C187.238 26.472 186.96 25.6791 186.994 24.8679C186.992 24.0893 187.145 23.3183 187.441 22.6002C187.726 21.8913 188.193 21.2725 188.794 20.8083C189.384 20.3279 190.121 20.0699 190.877 20.0782ZM191.117 21.5162C190.778 21.5175 190.443 21.5992 190.14 21.7547C189.837 21.9103 189.574 22.1354 189.372 22.4122C188.909 23.0109 188.662 23.7529 188.674 24.5139C188.659 24.7754 188.696 25.0373 188.782 25.2842C188.868 25.5311 189.002 25.7581 189.176 25.9519C189.347 26.1293 189.553 26.2682 189.78 26.3597C190.007 26.4511 190.251 26.4931 190.496 26.4829C190.878 26.4856 191.254 26.3864 191.587 26.1953C191.923 26.008 192.213 25.7473 192.437 25.432L193.081 22.5339C192.896 22.2214 192.627 21.9684 192.307 21.8038C191.943 21.6005 191.532 21.5011 191.117 21.5162Z" fill="white"/>
<path d="M92.9357 46.3272H91.3867L93.0121 38.8385H94.6157L93.5248 43.8715L98.0084 38.8385H99.612L97.9975 46.3272H96.3939L97.4848 41.1504L92.9357 46.3272Z" fill="white"/>
<path d="M105.591 46.3282H103.987L105.667 38.8395H107.271L106.627 41.7044H110.02L110.664 38.8395H112.267L110.587 46.3282H108.984L109.704 43.1314H106.311L105.591 46.3282Z" fill="white"/>
<path d="M116.47 46.5055C115.998 46.5322 115.525 46.4638 115.08 46.3043C114.634 46.1448 114.224 45.8974 113.873 45.5764C113.557 45.262 113.31 44.8841 113.146 44.4669C112.983 44.0497 112.907 43.6024 112.924 43.1539C112.913 41.9842 113.347 40.8551 114.135 40.0013C114.507 39.5702 114.967 39.227 115.483 38.9957C116 38.7645 116.56 38.6508 117.124 38.6628C117.596 38.6362 118.068 38.7046 118.514 38.8641C118.96 39.0235 119.37 39.271 119.721 39.592C120.035 39.9125 120.281 40.2947 120.444 40.715C120.607 41.1354 120.684 41.5851 120.67 42.0366C120.682 43.1978 120.252 44.319 119.47 45.1671C119.095 45.5973 118.633 45.9397 118.115 46.1709C117.597 46.402 117.036 46.5161 116.47 46.5055ZM116.47 45.0675C116.814 45.0727 117.154 44.9953 117.463 44.8415C117.773 44.6877 118.041 44.4619 118.248 44.1826C118.722 43.5934 118.973 42.8522 118.957 42.0919C118.973 41.8261 118.936 41.5596 118.848 41.3086C118.76 41.0576 118.623 40.8274 118.444 40.6318C118.259 40.4493 118.038 40.3078 117.796 40.2164C117.553 40.125 117.295 40.0857 117.037 40.1009C116.692 40.0969 116.351 40.1761 116.042 40.3319C115.732 40.4876 115.464 40.7155 115.259 40.9968C114.791 41.5854 114.541 42.3208 114.55 43.0764C114.533 43.3423 114.57 43.6088 114.658 43.8598C114.747 44.1108 114.884 44.341 115.062 44.5366C115.253 44.7249 115.481 44.8696 115.731 44.9612C115.981 45.0528 116.248 45.089 116.513 45.0675H116.47Z" fill="white"/>
<path d="M126.242 46.3277H121.398L123.024 38.839H127.387C127.882 38.8114 128.369 38.9732 128.751 39.2925C128.913 39.4395 129.042 39.6205 129.129 39.8229C129.215 40.0253 129.258 40.2444 129.253 40.465C129.271 40.957 129.107 41.4381 128.795 41.8145C128.483 42.1808 128.061 42.4333 127.595 42.5335C127.905 42.6481 128.172 42.8599 128.356 43.1383C128.541 43.4166 128.633 43.7471 128.62 44.0821C128.625 44.3747 128.57 44.6651 128.459 44.9353C128.348 45.2055 128.184 45.4498 127.976 45.6529C127.754 45.8879 127.483 46.0702 127.184 46.1868C126.884 46.3035 126.562 46.3516 126.242 46.3277ZM123.307 44.9007H125.969C126.105 44.9079 126.241 44.8871 126.368 44.8396C126.496 44.7921 126.612 44.7188 126.711 44.6242C126.803 44.5367 126.876 44.4303 126.925 44.3121C126.974 44.1939 126.998 44.0665 126.995 43.9383C127.002 43.8365 126.983 43.7345 126.942 43.6418C126.9 43.549 126.835 43.4684 126.755 43.4074C126.562 43.2646 126.327 43.1942 126.089 43.2083H123.678L123.307 44.9007ZM123.984 41.7813H126.591C126.712 41.7881 126.834 41.7701 126.948 41.7283C127.062 41.6865 127.167 41.6218 127.256 41.538C127.34 41.4589 127.405 41.3627 127.448 41.2559C127.491 41.149 127.512 41.034 127.507 40.9185C127.507 40.4871 127.246 40.2659 126.7 40.2659H124.3L123.984 41.7813Z" fill="white"/>
<path d="M131.754 38.8386H133.368L132.768 41.5487H134.95C135.578 41.5172 136.196 41.722 136.684 42.1239C136.893 42.3117 137.058 42.544 137.167 42.8041C137.277 43.0642 137.328 43.3457 137.317 43.6283C137.32 43.9801 137.253 44.3289 137.12 44.6539C136.987 44.9789 136.79 45.2733 136.543 45.5198C136.278 45.7922 135.959 46.005 135.608 46.1441C135.256 46.2833 134.88 46.3457 134.503 46.3273H130.139L131.754 38.8386ZM134.655 42.9756H132.474L132.059 44.9003H134.535C134.844 44.9106 135.145 44.7997 135.375 44.5906C135.478 44.4859 135.559 44.3616 135.613 44.2248C135.667 44.088 135.694 43.9416 135.692 43.7942C135.697 43.6808 135.676 43.5678 135.63 43.4642C135.585 43.3605 135.516 43.269 135.43 43.1969C135.204 43.0366 134.931 42.9586 134.655 42.9756ZM139.521 46.2941H137.917L139.532 38.8054H141.135L139.521 46.2941Z" fill="white"/>
<path d="M145.604 46.5042C144.617 46.5571 143.645 46.238 142.876 45.6082C142.543 45.3002 142.282 44.9214 142.11 44.4987C141.938 44.076 141.861 43.6201 141.884 43.1636C141.862 41.9821 142.296 40.8386 143.095 39.9778C143.472 39.5523 143.935 39.2143 144.453 38.9871C144.971 38.7599 145.531 38.6488 146.095 38.6615C146.533 38.6284 146.973 38.6916 147.385 38.8467C147.796 39.0018 148.17 39.2451 148.481 39.5601C148.792 39.8751 149.032 40.2544 149.185 40.672C149.338 41.0896 149.4 41.5357 149.367 41.98C149.367 42.3527 149.323 42.724 149.236 43.0861H143.52C143.523 43.123 143.523 43.16 143.52 43.1968V43.3516C143.524 43.5891 143.578 43.8229 143.68 44.0369C143.782 44.2508 143.928 44.4397 144.109 44.5905C144.573 44.9804 145.166 45.1779 145.767 45.1436C146.472 45.1663 147.163 44.9482 147.731 44.5242L148.233 45.6303C147.479 46.2143 146.552 46.5224 145.604 46.5042ZM143.662 41.9689H147.895C147.905 41.8992 147.905 41.8284 147.895 41.7588C147.9 41.5224 147.857 41.2875 147.769 41.0687C147.68 40.8499 147.549 40.6518 147.382 40.4867C147.189 40.3111 146.962 40.1765 146.717 40.091C146.472 40.0055 146.212 39.9708 145.953 39.9889C145.396 39.9822 144.857 40.1919 144.447 40.5751C144.035 40.9379 143.752 41.4274 143.64 41.9689H143.662Z" fill="white"/>
<path d="M162.286 46.3275H160.683L161.773 41.1174L158.501 46.3275H157.824L156.734 41.1174L155.643 46.3275H154.039L155.643 38.8387H157.661L158.654 43.6727L161.719 38.8387H163.901L162.286 46.3275Z" fill="white"/>
<path d="M168.375 46.5045C167.391 46.56 166.422 46.2404 165.658 45.6085C165.324 45.3011 165.06 44.9226 164.887 44.5C164.713 44.0774 164.634 43.6212 164.655 43.1639C164.632 41.9824 165.067 40.839 165.865 39.9782C166.242 39.5526 166.706 39.2147 167.223 38.9875C167.741 38.7603 168.301 38.6492 168.865 38.6619C169.304 38.6288 169.743 38.692 170.155 38.8471C170.567 39.0021 170.941 39.2455 171.252 39.5605C171.563 39.8755 171.803 40.2547 171.955 40.6723C172.108 41.0899 172.171 41.5361 172.138 41.9803C172.138 42.353 172.094 42.7244 172.007 43.0865H166.291V43.1971C166.287 43.2486 166.287 43.3005 166.291 43.352C166.295 43.5895 166.349 43.8233 166.451 44.0372C166.553 44.2511 166.699 44.4401 166.88 44.5909C167.344 44.9807 167.936 45.1783 168.538 45.144C169.243 45.1684 169.935 44.9501 170.502 44.5245L171.014 45.6307C170.256 46.2132 169.326 46.5209 168.375 46.5045ZM166.444 41.9693H170.665C170.675 41.8996 170.675 41.8288 170.665 41.7591C170.672 41.5235 170.632 41.2889 170.545 41.07C170.459 40.8512 170.329 40.6527 170.164 40.487C169.968 40.3121 169.74 40.1781 169.492 40.0927C169.245 40.0073 168.984 39.9721 168.724 39.9892C168.166 39.9825 167.628 40.1923 167.218 40.5755C166.817 40.942 166.545 41.4315 166.444 41.9693Z" fill="white"/>
<path d="M171.71 48.23L172.397 44.9779C172.756 44.8812 173.072 44.6626 173.292 44.3585C173.669 43.7783 173.959 43.1446 174.153 42.478L175.386 38.8387H181.081L179.772 44.9005H180.579L179.859 48.219H178.255L178.67 46.3164H173.706L173.292 48.219L171.71 48.23ZM176.488 40.2657L175.713 42.6661C175.465 43.5368 174.958 44.3091 174.263 44.8784H178.168L179.161 40.2436L176.488 40.2657Z" fill="white"/>
<path d="M183.131 46.3272H181.593L183.208 38.8385H184.811L183.72 43.8715L188.215 38.8385H189.818L188.193 46.3272H186.589L187.68 41.1504L183.131 46.3272Z" fill="white"/>
<path d="M194.424 38.6621C194.916 38.6565 195.403 38.7703 195.843 38.9939C196.259 39.201 196.614 39.5182 196.868 39.912L197.097 38.8059H198.701L197.064 46.2946H195.461L195.668 45.299C195.401 45.6629 195.054 45.9584 194.654 46.1619C194.255 46.3655 193.813 46.4715 193.366 46.4715C192.988 46.4894 192.61 46.4268 192.257 46.2878C191.903 46.1487 191.583 45.9362 191.315 45.6641C190.797 45.0626 190.524 44.2833 190.552 43.4849C190.553 42.7245 190.705 41.972 190.999 41.2726C191.284 40.5665 191.747 39.9486 192.341 39.4806C192.922 38.9732 193.658 38.6841 194.424 38.6621ZM194.664 40.1001C194.325 40.1014 193.99 40.183 193.687 40.3386C193.384 40.4941 193.121 40.7193 192.919 40.9961C192.455 41.5947 192.209 42.3367 192.221 43.0978C192.2 43.3691 192.235 43.6419 192.323 43.8989C192.411 44.1559 192.551 44.3916 192.734 44.5911C192.905 44.7684 193.11 44.9074 193.338 44.9988C193.565 45.0903 193.809 45.1323 194.053 45.122C194.436 45.1247 194.812 45.0255 195.144 44.8344C195.478 44.6442 195.768 44.384 195.995 44.0712L196.639 41.173C196.451 40.8632 196.183 40.6109 195.864 40.443C195.503 40.2184 195.088 40.0997 194.664 40.1001Z" fill="white"/>
<path d="M47.7836 34.4034C50.1001 33.4634 52.1424 31.9406 53.718 29.9788C55.1196 28.2915 55.8882 26.1563 55.8882 23.9502C55.8882 21.7441 55.1196 19.609 53.718 17.9217C52.1401 15.9623 50.0985 14.4401 47.7836 13.497C42.5334 11.356 36.6703 11.356 31.4201 13.497C29.1052 14.4401 27.0636 15.9623 25.4857 17.9217C24.0889 19.6126 23.3173 21.7445 23.3039 23.9502C23.3063 25.8318 23.8816 27.6668 24.9511 29.2045C26.12 30.9215 27.6612 32.3443 29.4565 33.3636C29.3038 33.7397 29.1401 34.0826 28.9874 34.3924C28.8193 34.7126 28.6221 35.0163 28.3983 35.2994L27.8856 35.9742C27.7547 36.1401 27.5583 36.3724 27.2856 36.6711C27.0129 36.9697 26.8275 37.1578 26.7511 37.2573C26.6747 37.3569 26.7511 37.2573 26.6529 37.3569C26.5547 37.4564 26.5657 37.4896 26.5547 37.4786C26.5438 37.4675 26.5547 37.4786 26.4565 37.5892L26.3802 37.7219V37.8436C26.3574 37.8857 26.3391 37.9302 26.3256 37.9763C26.3256 38.0316 26.3256 38.0759 26.3256 38.1312C26.3196 38.1826 26.3196 38.2346 26.3256 38.2861C26.3514 38.4778 26.4491 38.6522 26.5984 38.7728C26.725 38.8944 26.893 38.9618 27.0675 38.9608H27.1438C30.1741 38.5738 33.0633 37.4339 35.5546 35.6423C36.9009 35.8906 38.2663 36.0165 39.6346 36.0184C42.4305 36.0429 45.2025 35.4936 47.7836 34.4034Z" fill="white"/>
<path d="M63.1318 35.2659C64.2048 33.7258 64.7803 31.8862 64.779 30.0005C64.7733 28.0613 64.1666 26.1729 63.0445 24.6025C61.8077 22.8621 60.1912 21.4349 58.3209 20.4323C58.6765 21.5851 58.8567 22.7862 58.8555 23.9941C58.8594 26.0843 58.3255 28.1394 57.3064 29.9563C56.195 31.9157 54.6807 33.6096 52.8664 34.9229C51.0101 36.2701 48.9455 37.2944 46.7574 37.9538C44.4405 38.663 42.0322 39.0172 39.6121 39.0047C39.143 39.0047 38.4666 39.0047 37.5721 38.9162C40.8237 41.0257 44.6218 42.1041 48.481 42.0134C49.8457 42.0112 51.2075 41.8854 52.5501 41.6373C54.4957 43.0289 56.6776 44.0451 58.9864 44.635C59.6408 44.7976 60.3036 44.9231 60.9718 45.0111C61.0639 45.0212 61.1572 45.0116 61.2455 44.9831C61.3337 44.9545 61.4152 44.9075 61.4845 44.8452C61.6417 44.7186 61.7467 44.5372 61.7791 44.3364C61.7791 44.2368 61.7791 44.1926 61.7791 44.1815C61.7791 44.1705 61.7791 44.1815 61.7791 44.0267C61.777 43.9824 61.777 43.9381 61.7791 43.8939L61.7245 43.7722C61.698 43.7263 61.6689 43.682 61.6372 43.6395C61.613 43.5989 61.5837 43.5617 61.55 43.5289L61.4409 43.4072L61.3536 43.3076C61.2773 43.2081 61.0918 43.009 60.8191 42.7214C60.5463 42.4338 60.3391 42.1904 60.2191 42.0245C60.0991 41.8586 59.9245 41.6374 59.6954 41.3498C59.4812 41.062 59.288 40.7589 59.1173 40.4427C58.944 40.108 58.7875 39.7646 58.6482 39.414C60.4326 38.3925 61.9656 36.9743 63.1318 35.2659Z" fill="white"/>
</svg>
