<svg width="256" height="66" viewBox="0 0 256 66" fill="none" xmlns="http://www.w3.org/2000/svg">
<path d="M172.167 7.29382H120.828V58.5201H172.167V7.29382Z" fill="#EA5654" stroke="white" stroke-width="0.5" stroke-miterlimit="10"/>
<path d="M217.199 7.29346H69.489V58.5197H217.199V7.29346Z" fill="#EA5654" stroke="white" stroke-width="0.5" stroke-miterlimit="10"/>
<path fill-rule="evenodd" clip-rule="evenodd" d="M172.17 7.29382H255.67L245.693 58.5201H172.17V7.29382Z" fill="#EA5654"/>
<path fill-rule="evenodd" clip-rule="evenodd" d="M12.6292 0.844238H84.3448L72.9705 64.9794H1L12.6292 0.844238Z" fill="#EA5654" stroke="white" stroke-width="0.5" stroke-miterlimit="10"/>
<path d="M95.9609 28.3447C95.0417 28.3578 94.1317 28.1611 93.3003 27.7695C92.5758 27.4483 91.979 26.8957 91.6041 26.1986L92.8458 25.0924C93.1423 25.6095 93.5914 26.0228 94.1318 26.2761C94.6946 26.5626 95.318 26.7106 95.9498 26.7075C96.5229 26.7386 97.0885 26.5662 97.5462 26.2207C97.735 26.0725 97.8865 25.8823 97.9885 25.6652C98.0906 25.4482 98.1403 25.2104 98.1338 24.9707C98.1319 24.7806 98.0809 24.5942 97.9857 24.4295C97.8906 24.2648 97.7545 24.1274 97.5906 24.0304C97.1046 23.7585 96.5504 23.6317 95.9942 23.6654H93.9433L94.298 22.0724H96.6705C97.2397 22.0929 97.8046 21.9672 98.3112 21.7073C98.5127 21.6022 98.6808 21.4429 98.7964 21.2474C98.912 21.0519 98.9705 20.828 98.9653 20.6011C98.9596 20.3995 98.8987 20.2032 98.7893 20.0336C98.6799 19.8639 98.526 19.7274 98.3445 19.6387C97.8479 19.3609 97.2835 19.2268 96.7148 19.2515C95.7533 19.2313 94.8167 19.5572 94.0763 20.1697L93.389 18.9307C93.8413 18.5155 94.373 18.1957 94.9521 17.9904C95.5657 17.7627 96.2153 17.6465 96.87 17.6475C97.8722 17.5995 98.8667 17.8456 99.7302 18.3555C100.053 18.5355 100.326 18.7932 100.524 19.1053C100.721 19.4174 100.838 19.7739 100.862 20.1423C100.886 20.5106 100.817 20.8792 100.662 21.2144C100.507 21.5496 100.271 21.8408 99.9741 22.0613C99.4323 22.5367 98.7527 22.8274 98.034 22.891C98.5587 23.0083 99.037 23.2777 99.4087 23.6654C99.7732 24.0668 99.9645 24.5954 99.9408 25.1366C99.9478 25.575 99.851 26.0088 99.6583 26.4029C99.4657 26.7969 99.1827 27.14 98.8322 27.4044C98.015 28.0436 96.9988 28.3764 95.9609 28.3447Z" fill="white"/>
<path d="M99.6868 30.069L100.385 26.8167C100.755 26.7231 101.08 26.5041 101.305 26.1972C101.68 25.6134 101.971 24.9805 102.17 24.3166L103.434 20.6771H109.221L107.89 26.7392H108.711L107.979 30.0579H106.349L106.771 28.1441H101.727L101.305 30.0579L99.6868 30.069ZM104.542 22.1041L103.755 24.5047C103.511 25.3792 102.995 26.1538 102.281 26.7171H106.25L107.259 22.082L104.542 22.1041Z" fill="white"/>
<path d="M113.612 28.3436C113.132 28.3703 112.652 28.3019 112.2 28.1424C111.747 27.9829 111.33 27.7355 110.973 27.4144C110.651 27.0987 110.398 26.719 110.232 26.2998C110.066 25.8805 109.99 25.4311 110.009 24.9807C109.997 23.8141 110.438 22.6882 111.24 21.839C111.618 21.4085 112.085 21.0656 112.61 20.8344C113.135 20.6032 113.704 20.4892 114.277 20.5005C114.757 20.4738 115.237 20.5422 115.69 20.7017C116.142 20.8612 116.559 21.1086 116.916 21.4297C117.235 21.7502 117.485 22.1324 117.651 22.5528C117.816 22.9732 117.895 23.4229 117.88 23.8745C117.891 25.0355 117.455 26.1563 116.661 27.0051C116.28 27.4353 115.81 27.7778 115.284 28.0089C114.757 28.2401 114.187 28.3542 113.612 28.3436ZM113.612 26.9055C113.962 26.9107 114.308 26.8333 114.622 26.6795C114.936 26.5257 115.209 26.2999 115.419 26.0206C115.901 25.4313 116.156 24.6901 116.14 23.9298C116.156 23.6648 116.119 23.3993 116.032 23.1486C115.944 22.8979 115.807 22.6671 115.63 22.4696C115.438 22.2878 115.212 22.147 114.964 22.0557C114.716 21.9644 114.452 21.9245 114.188 21.9386C113.838 21.9347 113.491 22.0138 113.177 22.1696C112.863 22.3254 112.59 22.5533 112.381 22.8346C111.908 23.4199 111.653 24.1512 111.661 24.9033C111.643 25.1709 111.68 25.4394 111.77 25.6923C111.86 25.9452 112 26.1773 112.182 26.3745C112.375 26.5628 112.607 26.7077 112.862 26.7992C113.116 26.8908 113.387 26.9271 113.656 26.9055H113.612Z" fill="white"/>
<path d="M122.965 28.3437C122.477 28.3756 121.989 28.2765 121.553 28.0567C121.116 27.8369 120.746 27.5043 120.482 27.0937L119.617 31.0097H117.987L120.282 20.6776H121.912L121.679 21.6732C121.957 21.3113 122.315 21.0177 122.724 20.8145C123.133 20.6113 123.583 20.5039 124.041 20.5006C124.424 20.4829 124.808 20.5467 125.165 20.6878C125.522 20.8289 125.846 21.0441 126.114 21.3192C126.392 21.6271 126.605 21.9872 126.743 22.3784C126.88 22.7697 126.937 23.1843 126.912 23.598C126.924 24.7967 126.534 25.9651 125.803 26.9167C125.487 27.372 125.062 27.7411 124.566 27.9903C124.07 28.2396 123.52 28.3611 122.965 28.3437ZM122.721 26.9056C123.065 26.9056 123.405 26.8256 123.713 26.672C124.021 26.5184 124.288 26.2954 124.495 26.0206C124.966 25.4219 125.217 24.6799 125.205 23.9188C125.217 23.6566 125.177 23.3946 125.088 23.1478C124.998 22.901 124.861 22.6743 124.684 22.4807C124.513 22.3011 124.306 22.1598 124.077 22.0663C123.848 21.9728 123.601 21.9293 123.353 21.9387C122.96 21.9491 122.576 22.0555 122.234 22.2483C121.892 22.4411 121.603 22.7146 121.391 23.0449L120.748 25.9432C120.936 26.2557 121.209 26.5087 121.535 26.6733C121.905 26.8488 122.313 26.9287 122.721 26.9056Z" fill="white"/>
<path d="M131.472 28.3435C130.993 28.3695 130.513 28.3008 130.06 28.1414C129.607 27.9819 129.19 27.7348 128.834 27.4143C128.515 27.0964 128.265 26.7161 128.101 26.2972C127.937 25.8783 127.862 25.43 127.88 24.9806C127.864 23.8153 128.301 22.6892 129.1 21.8389C129.479 21.4075 129.949 21.0642 130.475 20.833C131.002 20.6018 131.573 20.4883 132.148 20.5004C132.628 20.4743 133.108 20.543 133.56 20.7025C134.013 20.8619 134.43 21.109 134.787 21.4296C135.104 21.7511 135.352 22.1336 135.516 22.554C135.68 22.9743 135.756 23.4236 135.74 23.8743C135.762 25.0373 135.324 26.1619 134.521 27.005C134.141 27.4363 133.671 27.7796 133.145 28.0109C132.618 28.2421 132.047 28.3556 131.472 28.3435ZM131.527 26.9054C131.877 26.9106 132.223 26.8331 132.537 26.6793C132.851 26.5255 133.125 26.2997 133.334 26.0204C133.807 25.4262 134.061 24.6883 134.055 23.9297C134.069 23.664 134.03 23.3981 133.941 23.1475C133.852 22.8969 133.713 22.6664 133.534 22.4694C133.343 22.2871 133.117 22.146 132.869 22.0546C132.621 21.9633 132.357 21.9237 132.093 21.9385C131.742 21.9345 131.395 22.0137 131.081 22.1695C130.767 22.3252 130.494 22.5532 130.286 22.8345C129.812 23.4197 129.558 24.1511 129.565 24.9031C129.55 25.1706 129.589 25.4383 129.678 25.6909C129.767 25.9434 129.906 26.1758 130.086 26.3744C130.277 26.5567 130.504 26.6979 130.752 26.7893C131 26.8806 131.264 26.9201 131.527 26.9054Z" fill="white"/>
<path d="M141.404 28.155H136.492L138.133 20.6769H142.568C143.073 20.6508 143.571 20.8124 143.964 21.1305C144.129 21.2771 144.259 21.4583 144.345 21.661C144.432 21.8638 144.472 22.083 144.463 22.3031C144.479 22.7947 144.314 23.2752 143.998 23.6527C143.684 24.0169 143.26 24.2693 142.789 24.3717C143.103 24.4858 143.373 24.6959 143.56 24.972C143.747 25.2481 143.842 25.5762 143.831 25.9094C143.833 26.2032 143.776 26.4944 143.664 26.766C143.552 27.0376 143.386 27.2842 143.177 27.4913C142.946 27.7209 142.668 27.8989 142.362 28.0133C142.056 28.1277 141.729 28.176 141.404 28.155ZM138.432 26.739H141.126C141.264 26.7463 141.402 26.7255 141.532 26.6779C141.661 26.6304 141.78 26.5571 141.88 26.4625C141.974 26.375 142.048 26.2686 142.098 26.1504C142.148 26.0322 142.172 25.9048 142.168 25.7766C142.176 25.6748 142.157 25.5728 142.115 25.48C142.072 25.3872 142.007 25.3066 141.925 25.2456C141.731 25.1003 141.49 25.0296 141.248 25.0465H138.798L138.432 26.739ZM139.109 23.6195H141.769C142.018 23.6307 142.261 23.5432 142.446 23.3761C142.528 23.2954 142.593 23.1989 142.637 23.0924C142.681 22.986 142.702 22.8717 142.701 22.7566C142.701 22.3252 142.423 22.104 141.869 22.104H139.441L139.109 23.6195Z" fill="white"/>
<path d="M147.012 20.6774H148.642L148.032 23.3876H150.249C150.885 23.3546 151.51 23.5598 152.001 23.9629C152.213 24.1507 152.381 24.383 152.492 24.6431C152.603 24.9032 152.655 25.1847 152.644 25.4673C152.649 25.8185 152.583 26.167 152.449 26.4921C152.316 26.8171 152.118 27.112 151.868 27.359C151.596 27.6267 151.271 27.8356 150.915 27.9726C150.558 28.1096 150.177 28.1719 149.795 28.1554H145.36L147.012 20.6774ZM149.961 24.8147H147.744L147.323 26.7395H149.839C150.154 26.7521 150.46 26.6409 150.693 26.4297C150.799 26.326 150.883 26.202 150.94 26.0652C150.997 25.9284 151.026 25.7815 151.026 25.6333C151.029 25.5191 151.005 25.4058 150.957 25.3022C150.909 25.1986 150.838 25.1075 150.748 25.0359C150.521 24.8714 150.242 24.793 149.961 24.8147ZM154.895 28.1333H153.265L154.906 20.6553H156.535L154.895 28.1333Z" fill="white"/>
<path d="M158.578 28.157H157.004L158.656 20.6789H160.285L159.177 25.7122L163.744 20.6789H165.407L163.755 28.157H162.081L163.19 22.9909L158.578 28.157ZM165.13 18.5328C164.75 18.9562 164.285 19.2958 163.766 19.5301C163.247 19.7643 162.684 19.8881 162.115 19.8935C161.603 19.9015 161.099 19.7756 160.651 19.5284C160.24 19.2931 159.902 18.9484 159.676 18.5328L160.529 17.9133C160.687 18.2373 160.938 18.5071 161.25 18.6884C161.562 18.8696 161.921 18.9541 162.281 18.9311C162.701 18.927 163.116 18.8343 163.499 18.6589C163.881 18.4835 164.221 18.2294 164.498 17.9133L165.13 18.5328Z" fill="white"/>
<path d="M95.5642 46.9269C95.0847 46.9535 94.6047 46.8851 94.1518 46.7256C93.6989 46.5661 93.2822 46.3187 92.9257 45.9976C92.6031 45.682 92.3506 45.3023 92.1845 44.883C92.0183 44.4638 91.9423 44.0144 91.9613 43.564C91.9491 42.3974 92.3901 41.2715 93.1918 40.4223C93.5698 39.9918 94.0375 39.6489 94.5622 39.4177C95.0869 39.1865 95.6559 39.0725 96.2293 39.0837C96.7088 39.0571 97.1889 39.1255 97.6418 39.285C98.0946 39.4445 98.5113 39.6919 98.8678 40.013C99.1869 40.3335 99.437 40.7157 99.6029 41.1361C99.7687 41.5564 99.8468 42.0062 99.8323 42.4577C99.8434 43.6187 99.4068 44.7396 98.6129 45.5883C98.2322 46.0185 97.7624 46.3611 97.236 46.5922C96.7096 46.8233 96.1392 46.9375 95.5642 46.9269ZM95.5642 45.4888C95.914 45.494 96.2601 45.4165 96.5742 45.2627C96.8882 45.1089 97.1614 44.8831 97.3712 44.6038C97.853 44.0146 98.1085 43.2733 98.0919 42.513C98.1081 42.2481 98.0713 41.9825 97.9838 41.7318C97.8962 41.4811 97.7596 41.2503 97.5819 41.0528C97.3905 40.8711 97.164 40.7302 96.9162 40.6389C96.6684 40.5476 96.4045 40.5078 96.1407 40.5218C95.7899 40.5179 95.4433 40.5971 95.1291 40.7528C94.815 40.9086 94.5424 41.1365 94.3337 41.4179C93.8602 42.0031 93.6055 42.7344 93.6131 43.4865C93.5962 43.7541 93.6336 44.0224 93.7231 44.2752C93.8127 44.528 93.9525 44.7602 94.1341 44.9578C94.3328 45.152 94.5718 45.3003 94.8343 45.3921C95.0967 45.4838 95.3762 45.5169 95.6529 45.4888H95.5642Z" fill="white"/>
<path d="M104.499 46.927C104.019 46.9531 103.539 46.8844 103.087 46.7249C102.634 46.5655 102.217 46.3184 101.86 45.9978C101.54 45.6812 101.289 45.301 101.125 44.8818C100.961 44.4626 100.886 44.0138 100.907 43.5641C100.913 42.9683 101.003 42.3763 101.173 41.8052C101.312 41.2784 101.513 40.7698 101.772 40.2897C102.221 39.4141 102.87 38.6562 103.667 38.0772C104.498 37.5318 105.449 37.1975 106.439 37.1038C107.547 36.9489 108.202 36.7277 108.257 36.4622H109.853C109.621 37.5684 108.412 38.1989 106.228 38.4423C105.487 38.4931 104.77 38.7289 104.144 39.1282C103.664 39.4559 103.281 39.9069 103.035 40.4335C103.373 40.0372 103.79 39.7161 104.26 39.4912C104.73 39.2663 105.242 39.1426 105.763 39.1282C106.177 39.1063 106.592 39.1775 106.976 39.3364C107.359 39.4953 107.702 39.7378 107.98 40.0463C108.525 40.7456 108.801 41.6172 108.756 42.5021C108.767 43.6632 108.33 44.784 107.536 45.6328C107.154 46.0547 106.684 46.3888 106.16 46.6122C105.635 46.8357 105.069 46.9431 104.499 46.927ZM104.554 45.489C104.904 45.4942 105.25 45.4167 105.564 45.2629C105.878 45.1091 106.151 44.8833 106.361 44.604C106.834 44.0097 107.088 43.2718 107.082 42.5132C107.096 42.2475 107.057 41.9817 106.968 41.7311C106.878 41.4804 106.74 41.25 106.561 41.053C106.37 40.8707 106.143 40.7295 105.895 40.6382C105.648 40.5468 105.383 40.5073 105.12 40.522C104.769 40.5181 104.422 40.5973 104.108 40.753C103.794 40.9088 103.521 41.1367 103.313 41.418C102.839 42.0033 102.584 42.7346 102.592 43.4867C102.578 43.7541 102.616 44.0217 102.706 44.2741C102.795 44.5266 102.933 44.759 103.113 44.958C103.303 45.1414 103.53 45.2833 103.778 45.3747C104.026 45.4661 104.29 45.505 104.554 45.489Z" fill="white"/>
<path d="M113.923 46.9269C113.435 46.9566 112.948 46.8564 112.512 46.6368C112.076 46.4172 111.706 46.086 111.44 45.6769L110.575 49.5929H108.945L111.24 39.2608H112.87L112.637 40.2564C112.915 39.8946 113.272 39.6009 113.682 39.3977C114.091 39.1945 114.541 39.0872 114.998 39.0838C115.382 39.0661 115.765 39.13 116.123 39.2711C116.48 39.4122 116.803 39.6274 117.071 39.9024C117.348 40.209 117.561 40.5672 117.698 40.9565C117.835 41.3458 117.893 41.7583 117.869 42.1702C117.882 43.3689 117.492 44.5373 116.761 45.4888C116.441 45.9412 116.015 46.3087 115.521 46.5594C115.026 46.81 114.477 46.9362 113.923 46.9269ZM113.679 45.4888C114.023 45.4888 114.363 45.4089 114.67 45.2553C114.978 45.1017 115.246 44.8787 115.453 44.6039C115.924 44.0052 116.174 43.2631 116.162 42.502C116.175 42.2399 116.135 41.9779 116.046 41.7311C115.956 41.4843 115.819 41.2576 115.641 41.0639C115.471 40.8843 115.264 40.743 115.035 40.6495C114.805 40.5561 114.558 40.5125 114.311 40.5219C113.917 40.5334 113.531 40.6401 113.188 40.8328C112.844 41.0254 112.552 41.2983 112.338 41.6281L111.706 44.5264C111.894 44.8389 112.167 45.092 112.493 45.2565C112.862 45.4335 113.27 45.5134 113.679 45.4888Z" fill="white"/>
<path d="M122.766 39.0836C123.27 39.0727 123.769 39.1867 124.218 39.4155C124.643 39.6165 125.001 39.9352 125.25 40.3336L125.482 39.2274H127.112L125.449 46.7055H123.819L124.041 45.721C123.767 46.085 123.413 46.3805 123.005 46.5841C122.597 46.7876 122.147 46.8935 121.691 46.8935C121.306 46.9114 120.922 46.8488 120.563 46.7098C120.204 46.5707 119.878 46.3582 119.607 46.086C119.085 45.4823 118.811 44.7036 118.842 43.9067C118.847 43.1467 119.001 42.395 119.296 41.6943C119.586 40.9853 120.061 40.3665 120.671 39.9022C121.253 39.3947 121.994 39.1053 122.766 39.0836ZM123.01 40.5217C122.665 40.523 122.325 40.6046 122.017 40.7602C121.709 40.9158 121.442 41.1409 121.236 41.4177C120.765 42.0164 120.515 42.7585 120.527 43.5196C120.508 43.7916 120.546 44.0645 120.638 44.3214C120.729 44.5783 120.873 44.8137 121.059 45.013C121.231 45.19 121.438 45.3289 121.667 45.4204C121.897 45.5119 122.143 45.554 122.389 45.544C122.779 45.5433 123.161 45.4403 123.498 45.2453C123.836 45.0623 124.128 44.8051 124.352 44.493L125.006 41.5947C124.819 41.2853 124.55 41.0328 124.23 40.8646C123.862 40.6416 123.44 40.523 123.01 40.5217Z" fill="white"/>
<path d="M131.89 39.0834C134.008 39.0834 135.061 39.7139 135.061 40.9971C135.062 41.289 134.987 41.576 134.843 41.8301C134.699 42.0842 134.491 42.2965 134.24 42.4463C133.739 42.7961 133.154 43.0061 132.544 43.0547C132.985 43.1158 133.401 43.2913 133.753 43.5636C133.905 43.6838 134.028 43.8368 134.112 44.0111C134.197 44.1854 134.24 44.3766 134.24 44.5702C134.224 44.9241 134.113 45.2671 133.918 45.563C133.723 45.8589 133.451 46.0968 133.132 46.2517C132.358 46.7202 131.464 46.9546 130.56 46.9265C129.876 46.9381 129.196 46.8256 128.553 46.5946C128.031 46.4084 127.563 46.0969 127.19 45.6875L128.165 44.703C128.484 45.0076 128.862 45.2442 129.276 45.3983C129.689 45.5523 130.13 45.6206 130.571 45.599C131.054 45.6113 131.532 45.4969 131.957 45.2672C132.118 45.2009 132.259 45.0916 132.362 44.9511C132.466 44.8106 132.529 44.6444 132.544 44.4707C132.544 43.8954 132.045 43.6189 131.036 43.6189H129.241L129.529 42.3135H131.125C132.555 42.3135 133.276 41.9485 133.276 41.2073C133.276 40.6653 132.755 40.3887 131.724 40.3887C130.726 40.395 129.754 40.7079 128.941 41.2848L128.276 40.1785C129.321 39.4141 130.596 39.0278 131.89 39.0834Z" fill="white"/>
<path d="M140.627 46.739H138.477L142.556 42.657L140.184 39.2609H142.124L144.23 42.3251L144.918 39.2609H146.558L145.938 42.0707L149.13 39.2609H151.259L147.401 42.657L149.618 46.739H147.667L146.015 43.5973L145.417 44.0951L144.851 46.739H143.233L143.798 44.1061L143.521 43.719L140.627 46.739Z" fill="white"/>
<path d="M152.346 46.739H150.783L152.424 39.2609H154.053L152.945 44.2942L157.501 39.2609H159.131L157.49 46.739H155.86L156.969 41.5729L152.346 46.739Z" fill="white"/>
<path d="M163.934 39.0841C166.04 39.0841 167.094 39.7146 167.094 40.9978C167.097 41.2901 167.023 41.578 166.879 41.8325C166.734 42.0869 166.526 42.2989 166.273 42.447C165.778 42.7998 165.195 43.0102 164.588 43.0554C165.025 43.1163 165.438 43.2919 165.785 43.5643C165.938 43.6845 166.06 43.8375 166.145 44.0118C166.229 44.1861 166.273 44.3773 166.273 44.5709C166.258 44.9251 166.147 45.2685 165.952 45.5647C165.757 45.8608 165.485 46.0985 165.165 46.2524C164.387 46.7206 163.49 46.9549 162.582 46.9272C161.902 46.9379 161.226 46.8255 160.586 46.5953C160.059 46.4128 159.586 46.1009 159.211 45.6882L160.198 44.7037C160.517 45.0083 160.895 45.2449 161.308 45.399C161.722 45.553 162.163 45.6213 162.604 45.5997C163.087 45.612 163.565 45.4976 163.989 45.2678C164.15 45.201 164.289 45.0913 164.39 44.9507C164.492 44.8101 164.553 44.6443 164.566 44.4714C164.566 43.8961 164.067 43.6196 163.069 43.6196H161.307L161.606 42.3142H163.191C164.621 42.3142 165.331 41.9492 165.331 41.208C165.331 40.666 164.81 40.3894 163.779 40.3894C162.785 40.3958 161.817 40.7088 161.007 41.2854L160.331 40.1792C161.375 39.4211 162.644 39.0354 163.934 39.0841Z" fill="white"/>
<path d="M169.109 46.7386H167.48L169.187 39.2605H170.816L170.173 42.1256H173.61L174.264 39.2605H175.894L174.187 46.7386H172.557L173.289 43.5526H169.841L169.109 46.7386Z" fill="white"/>
<path d="M177.855 46.7388H176.28L177.932 39.2607H179.562L178.453 44.2941L183.01 39.2607H184.639L182.999 46.7388H181.369L182.477 41.5728L177.855 46.7388Z" fill="white"/>
<path d="M49.6795 49.2611H38.272C37.978 49.2611 37.6961 49.1446 37.4882 48.9371C37.2802 48.7297 37.1634 48.4483 37.1634 48.155V37.8345H26.8313C26.5372 37.8345 26.2553 37.7179 26.0474 37.5105C25.8395 37.303 25.7227 37.0217 25.7227 36.7283V25.4455C25.7227 25.1521 25.8395 24.8708 26.0474 24.6633C26.2553 24.4559 26.5372 24.3393 26.8313 24.3393H37.1745V14.041C37.1745 13.7476 37.2913 13.4662 37.4992 13.2588C37.7071 13.0514 37.9891 12.9348 38.2831 12.9348H49.6906C49.9846 12.9348 50.2666 13.0514 50.4745 13.2588C50.6824 13.4662 50.7992 13.7476 50.7992 14.041V24.3504H61.1425C61.4365 24.3504 61.7185 24.4669 61.9264 24.6744C62.1343 24.8818 62.2511 25.1632 62.2511 25.4566V36.8279C62.2511 37.1213 62.1343 37.4026 61.9264 37.6101C61.7185 37.8175 61.4365 37.934 61.1425 37.934H50.7992V48.2545C50.7741 48.5322 50.6448 48.7902 50.4372 48.9769C50.2295 49.1635 49.959 49.265 49.6795 49.2611Z" fill="white"/>
</svg>
